<svg width="358" height="203" viewBox="0 0 358 203" fill="none" xmlns="http://www.w3.org/2000/svg">
<g clip-path="url(#clip0)">
<path d="M124.3 92C140.6 72.1 163.7 62.6 189.9 60.7C232 58.1 287.4 81.6 295.9 124.5C302.6 171 224.2 169.7 196.9 185.7C174.6 198.6 126.5 213.7 106.2 192.6C76.6 162 108 111.8 124.3 92Z" fill="#EEF4FA"/>
<path d="M352.6 174.9H84.5001C81.5001 174.9 79.1001 177.3 79.1001 180.3C79.1001 183.3 81.5001 185.7 84.5001 185.7H352.6C355.6 185.7 358 183.3 358 180.3C357.9 177.4 355.5 174.9 352.6 174.9Z" fill="#EDF5FD"/>
<path d="M162.7 98.8C166.9 98.8 170.6 101.4 172.1 105.3L195.5 168.1H95.8001L73.3001 106.5L72.6001 98.8H162.7Z" fill="url(#paint0_linear)"/>
<path d="M126.2 103.1C126.6 103.1 127 102.6 127 102C127 101.4 126.7 100.9 126.2 100.9C125.8 100.9 125.4 101.4 125.4 102C125.4 102.6 125.8 103.1 126.2 103.1Z" fill="#1775D0"/>
<path d="M168.5 106C168.2 105.2 167.5 104.7 166.6 104.7H80.0999C79.3999 104.7 78.8999 105.4 79.1999 106L102.1 168H191.5L168.5 106Z" fill="white"/>
<path d="M159.7 146.4C158.9 146.1 156.8 146 155.7 146.4C155.1 146 154.4 145.8 153.7 145.6C153.6 145.6 153.5 145.6 153.5 145.6C152.6 145.4 151.9 145.3 151.6 145.3C149.7 145.3 147.4 145.3 144.8 145.4L143.8 141C145 141 146.2 140.7 147.2 140.3C156.5 136.6 156.7 119.5 152.5 106.7C152.5 106.5 152.5 106.3 152.5 106.1C152.4 105.7 152.2 105.4 152 105.1C150.7 101.7 149 98.6 147.1 96.3C138.8 86.5 128.6 89.3 123.6 92.2C122.4 92.9 121.3 94.1 120.5 95.4C115.8 99.9 114.9 105.7 114.8 109.7C113.5 112 112.9 115.6 113.6 119.5C113.6 119.6 113.6 119.7 113.6 119.8C113.6 120.1 113.7 120.3 113.7 120.6C113.8 121 113.9 121.4 114 121.8C114.1 122.2 114.2 122.6 114.3 123C114.4 123.3 114.5 123.5 114.6 123.8C114.6 123.9 114.7 124 114.7 124.1C116.8 129.6 120.6 133.3 124 133C124.8 133.7 125.6 134.4 126.5 135L129.1 146.7C125.8 147.2 123.1 147.8 121.7 148.6C121.2 148.6 120.6 148.7 120.1 148.8C116.7 149.2 114 151.4 112.3 153.8C111.7 154.6 111.2 155.7 110.8 156.8C110.8 156.9 110.8 156.9 110.7 157C110.3 158.3 110.1 159.7 110 161.3C110 161.4 110 161.4 110 161.5C110 161.7 110 161.9 110 162.2C110 162.5 110 162.9 110 163.2C110.1 165 110.5 166.5 111 167.9H121.5H128.5H131.3H161.5H163.8H169.4C170.5 159.2 168.8 149.6 159.7 146.4Z" fill="white"/>
<g opacity="0.5">
<path d="M130.5 152L144.9 146L137.5 113.6L123.2 119.6L130.5 152Z" fill="url(#paint1_linear)"/>
<path d="M141.8 138.7C154.1 133.8 153.1 107.2 144.1 96.6C135.8 86.8 124.5 91.8 120.4 95.7C115.6 100.2 114.8 106.2 114.8 110.3C114.7 117 117.4 124.1 118.7 126.6C122.7 134.2 134.5 141.7 141.8 138.7Z" fill="url(#paint2_linear)"/>
<path d="M147.2 140.4C159.5 135.5 156.1 107.1 147 96.5C138.7 86.7 128.5 89.5 123.5 92.4C118.6 95.3 117.2 104.3 117.6 108.4C118.3 116 121.8 126.5 123.1 128.9C127.2 136.5 139.8 143.3 147.2 140.4Z" fill="url(#paint3_linear)"/>
<path d="M152.4 106.2C152.2 105.1 151.1 104.4 150 104.7C148.9 104.9 148.2 106 148.5 107.1C148.7 108.2 149.8 108.9 150.9 108.6C151.9 108.4 152.6 107.2 152.4 106.2Z" fill="url(#paint4_linear)"/>
<path d="M138.8 109C138.6 107.9 137.5 107.2 136.4 107.5C135.3 107.7 134.6 108.8 134.9 109.9C135.1 111 136.2 111.7 137.3 111.4C138.3 111.3 139 110.1 138.8 109Z" fill="url(#paint5_linear)"/>
<path d="M128.6 118.3C130.5 125.4 128.7 132 124.7 133.1C120.7 134.1 115.8 129.2 114.1 122.1C112.2 115 114 108.4 118 107.3C121.9 106.2 126.8 111.2 128.6 118.3Z" fill="url(#paint6_linear)"/>
<path d="M125.2 119.1C126.8 125.2 125.6 130.8 122.5 131.7C119.4 132.5 115.6 128.2 113.9 122.1C112.3 116 113.5 110.4 116.6 109.5C119.8 108.7 123.7 112.9 125.2 119.1Z" fill="url(#paint7_linear)"/>
<path d="M121.8 148.7C113.8 153.3 110.8 158.5 111.4 166.7V167.9H169.7C170.5 159 168.7 149.6 159.6 146.4C158.8 146.1 156.7 146 155.6 146.4C154.3 145.6 152 145.3 151.5 145.3C143.8 145.3 126.2 146.1 121.8 148.7Z" fill="url(#paint8_linear)"/>
<path d="M131.7 167.9C131.7 167.9 132 149.8 124.1 148.7C122.2 148.5 120 148.5 118.5 149.4C115.7 151.2 114.2 154.8 113.7 156.9C113 159.8 112.6 164.2 113.2 167.8H131.7V167.9Z" fill="url(#paint9_linear)"/>
<path d="M128.9 167.9C128.9 167.9 128.8 148.7 121.3 148.7C115.8 148.7 112 153.5 110.9 156.9C110 159.7 111.1 164.2 111.8 167.8H128.9V167.9Z" fill="url(#paint10_linear)"/>
<path d="M153.5 145.6C153.5 145.6 166.5 148.2 164.1 168H161.7C161.8 167.9 165.9 153.8 153.5 145.6Z" fill="url(#paint11_linear)"/>
<path d="M111.2 167.9C110.7 166.5 110.3 164.9 110.2 163.2C109.8 157.3 112.1 152.4 115.5 152.1C118.8 151.9 121.8 156.4 122.3 162.3C122.5 164.3 122.3 166.3 121.8 167.9H111.3H111.2Z" fill="url(#paint12_linear)"/>
<path d="M111.3 167.9C110.8 166.5 110.4 164.9 110.3 163.2C109.9 158.1 111.7 153.9 114.2 153.7C116.8 153.5 119.1 157.4 119.6 162.6C119.8 164.6 119.6 166.5 119.1 168.1H111.4V167.9H111.3Z" fill="url(#paint13_linear)"/>
</g>
<path d="M98.3999 168L72.3999 98.8C70.7999 98.8 69.7999 100.4 70.2999 101.8L94.9999 168H98.3999Z" fill="url(#paint14_linear)"/>
<path d="M136.3 174.8H228.8C232.5 174.8 235.5 171.8 235.5 168.1H136.3V174.8Z" fill="#8AC6FF"/>
<path d="M190 170.6H179.9C179.9 171.8 180.8 172.7 182 172.7H187.9C189.1 172.7 190 171.8 190 170.6Z" fill="#1775D0"/>
<path d="M101.4 174.8H136C139.7 174.8 142.7 171.8 142.7 168.1H95.3999V168.7C95.3999 172.2 98.0999 174.8 101.4 174.8Z" fill="url(#paint15_linear)"/>
<path d="M136.3 170.2H130.4C130.4 171.4 131.3 172.3 132.5 172.3H134.3C135.5 172.3 136.3 171.3 136.3 170.2Z" fill="#1775D0"/>
<path d="M128.4 170.2H122.1C122.1 171.4 123 172.3 124.2 172.3H126.3C127.4 172.3 128.4 171.3 128.4 170.2Z" fill="#1775D0"/>
<g opacity="0.2">
<path opacity="0.2" d="M74.9 77.2C74.9 71.7 70.6 67.4 65.1 67.4H9.8C4.3 67.4 0 71.7 0 77.2C0 82.7 4.3 87 9.8 87H65.1C70.6 86.8 74.9 82.5 74.9 77.2Z" fill="#72BAFF"/>
</g>
<path d="M2.69995 74.5C2.69995 69 6.99995 64.7 12.5 64.7H67.8C73.3 64.7 77.6 69 77.6 74.5C77.6 80 73.3 84.3 67.8 84.3H12.4C6.99995 84.3 2.69995 79.9 2.69995 74.5Z" fill="url(#paint16_linear)"/>
<path d="M67.2 73H22.8C22.3 73 22 72.7 22 72.2C22 71.7 22.3 71.4 22.8 71.4H67.2C67.7 71.4 68 71.7 68 72.2C68 72.7 67.7 73 67.2 73Z" fill="white"/>
<path d="M47.3 79.1H22.8C22.3 79.1 22 78.8 22 78.3C22 77.8 22.3 77.5 22.8 77.5H47.3C47.8 77.5 48.1 77.8 48.1 78.3C48.1 78.8 47.8 79.1 47.3 79.1Z" fill="white"/>
<path d="M14.4 77.2H12.4V76.3C12.4 75.8 12.4 75.5 12.6 75.4C12.8 75.2 12.9 74.9 13.2 74.6L14.3 73.5C14.6 73 14.8 72.7 14.8 72.4C14.8 72.1 14.6 71.6 14.5 71.5C14.2 71.2 13.9 71 13.6 71C13.1 71 12.8 71.2 12.7 71.3C12.4 71.6 12.2 71.9 12.2 72.2H10C10.2 71.4 10.5 70.6 11.1 69.9C11.7 69.4 12.5 69.1 13.5 69.1C14.4 69.1 15.3 69.4 15.9 69.9C16.5 70.4 16.8 71.1 16.8 72.2C16.8 72.8 16.6 73.3 16.3 73.8C16.1 74.1 16 74.3 15.8 74.3C15.6 74.5 15.5 74.6 15.3 74.8C15.1 75 15 75.1 14.8 75.3C14.6 75.5 14.6 75.5 14.5 75.6C14.3 75.8 14.2 76.2 14.2 76.5V77.3H14.5V77.2H14.4ZM13.5 80.7C13.2 80.7 12.9 80.5 12.7 80.4C12.4 80.2 12.4 79.9 12.4 79.6C12.4 79.3 12.6 79 12.7 78.8C13 78.6 13.2 78.5 13.5 78.5C13.8 78.5 14.1 78.7 14.4 78.8C14.7 79 14.7 79.3 14.7 79.6C14.7 79.9 14.5 80.2 14.4 80.4C14.1 80.7 13.8 80.7 13.5 80.7Z" fill="white"/>
<g opacity="0.2">
<path opacity="0.2" d="M97.0001 103.4C97.0001 97.9 92.7001 93.6 87.2001 93.6H31.9001C26.4001 93.6 22.1001 97.9 22.1001 103.4C22.1001 108.9 26.4001 113.2 31.9001 113.2H87.4001C92.7001 113.1 97.0001 108.8 97.0001 103.4Z" fill="#72BAFF"/>
</g>
<path d="M24.8999 100.8C24.8999 95.3 29.1999 91 34.6999 91H89.9999C95.4999 91 99.7999 95.3 99.7999 100.8C99.7999 106.3 95.4999 110.6 89.9999 110.6H34.5999C29.1999 110.4 24.8999 106 24.8999 100.8Z" fill="#FF6A3D"/>
<path d="M89.5001 99.3H44.9001C44.4001 99.3 44.1001 99 44.1001 98.5C44.1001 98 44.4001 97.7 44.9001 97.7H89.3001C89.8001 97.7 90.1001 98 90.1001 98.5C90.1001 99 89.8001 99.3 89.5001 99.3Z" fill="white"/>
<path d="M69.6001 105.2H44.9001C44.4001 105.2 44.1001 104.9 44.1001 104.4C44.1001 103.9 44.4001 103.6 44.9001 103.6H69.4001C69.9001 103.6 70.2001 103.9 70.2001 104.4C70.2001 104.9 70.0001 105.2 69.6001 105.2Z" fill="white"/>
<path d="M36 103.4H34.2001V102.5C34.2001 102 34.2001 101.7 34.4001 101.6C34.6001 101.4 34.7 101.1 35 100.8L36.1 99.7C36.4 99.4 36.4001 99.1 36.4001 98.8C36.4001 98.3 36.2 98 36.1 97.9C35.8 97.6 35.5001 97.4 35.2001 97.4C34.7001 97.4 34.4 97.6 34.3 97.7C34 98 33.8 98.3 33.8 98.6H31.8C32 97.7 32.3001 96.8 32.9001 96.3C33.5001 95.8 34.3 95.5 35.3 95.5C36.2 95.5 37.1001 95.8 37.7001 96.3C38.3001 96.8 38.6 97.5 38.6 98.6C38.6 99.2 38.4 99.7 38.1 100.2C37.9 100.5 37.8 100.7 37.6 100.7C37.4 100.9 37.3 101 37.1 101.2C36.9 101.4 36.8 101.5 36.6 101.7C36.4 101.9 36.4 101.9 36.3 102C36.1 102.2 36 102.6 36 102.9V103.5V103.4V103.4ZM35.1 107.1C34.8 107.1 34.5 106.9 34.3 106.8C34 106.6 34 106.3 34 106C34 105.7 34.2 105.4 34.3 105.2C34.6 105 34.8 104.9 35.1 104.9C35.4 104.9 35.7 105.1 36 105.2C36.3 105.4 36.3 105.7 36.3 106C36.3 106.3 36.1 106.6 36 106.8C35.7 106.9 35.6 107.1 35.1 107.1Z" fill="white"/>
<g opacity="0.2">
<path opacity="0.2" d="M95.2999 132.1C95.2999 126.6 90.9999 122.3 85.4999 122.3H30.1999C24.6999 122.3 20.3999 126.6 20.3999 132.1C20.3999 137.6 24.6999 141.9 30.1999 141.9H85.4999C90.8999 141.9 95.2999 137.5 95.2999 132.1Z" fill="#72BAFF"/>
</g>
<path d="M23.1001 129.5C23.1001 124 27.4001 119.7 32.9001 119.7H88.2001C93.7001 119.7 98.0001 124 98.0001 129.5C98.0001 135 93.7001 139.3 88.2001 139.3H32.8001C27.4001 139.1 23.1001 134.8 23.1001 129.5Z" fill="url(#paint17_linear)"/>
<path d="M87.5999 128.1H43.1999C42.6999 128.1 42.3999 127.8 42.3999 127.3C42.3999 126.8 42.6999 126.5 43.1999 126.5H87.5999C88.0999 126.5 88.3999 126.8 88.3999 127.3C88.3999 127.7 87.9999 128.1 87.5999 128.1Z" fill="white"/>
<path d="M67.6999 133.9H43.1999C42.6999 133.9 42.3999 133.6 42.3999 133.1C42.3999 132.6 42.6999 132.3 43.1999 132.3H67.6999C68.1999 132.3 68.4999 132.6 68.4999 133.1C68.4999 133.6 68.0999 133.9 67.6999 133.9Z" fill="white"/>
<path d="M34.3001 132.1H32.5001V131.2C32.5001 130.7 32.5001 130.4 32.7001 130.3C32.9001 130.1 33.0001 129.8 33.3001 129.5L34.4001 128.4C34.7001 128.1 34.7001 127.8 34.7001 127.5C34.7001 127.2 34.5001 126.7 34.4001 126.6C34.1001 126.3 33.8001 126.1 33.5001 126.1C33.0001 126.1 32.7001 126.3 32.6001 126.4C32.3001 126.7 32.1001 127 32.1001 127.3H30.1001C30.3001 126.4 30.6001 125.5 31.2001 125C31.8001 124.5 32.6001 124.2 33.6001 124.2C34.5001 124.2 35.4001 124.5 36.0001 125C36.6001 125.5 36.9001 126.2 36.9001 127.3C36.9001 127.9 36.7001 128.4 36.4001 128.9C36.2001 129.2 36.1001 129.4 35.9001 129.4C35.7001 129.6 35.6001 129.7 35.4001 129.9C35.2001 130.1 35.1001 130.2 34.9001 130.4C34.7001 130.6 34.7001 130.6 34.6001 130.7C34.4001 130.9 34.3001 131.3 34.3001 131.6V132.2V132.1V132.1ZM33.4001 135.8C33.1001 135.8 32.8001 135.6 32.6001 135.5C32.3001 135.3 32.3001 135 32.3001 134.7C32.3001 134.4 32.5001 134.1 32.6001 133.9C32.9001 133.7 33.1001 133.6 33.4001 133.6C33.7001 133.6 34.0001 133.8 34.3001 133.9C34.6001 134.1 34.6001 134.4 34.6001 134.7C34.6001 135 34.4001 135.3 34.3001 135.5C34.0001 135.6 33.7001 135.8 33.4001 135.8Z" fill="white"/>
<path opacity="0.2" d="M216 32.7L221.8 45.5L235.8 47.1C238.3 47.3 239.2 50.4 237.4 52.2L227.1 61.7L229.8 75.4C230.3 77.9 227.6 79.7 225.5 78.6L213.3 71.8L201.1 78.6C198.9 79.8 196.4 78 196.8 75.4L199.5 61.7L189.2 52.2C187.5 50.6 188.3 47.5 190.8 47.1L204.7 45.5L210.5 32.7C211.8 30.4 214.9 30.4 216 32.7Z" fill="#72BAFF"/>
<path d="M213.4 28.7L219.1 41.4L232.8 43C235.2 43.2 236.2 46.3 234.4 48L224.3 57.5L226.9 71.2C227.4 73.7 224.7 75.5 222.7 74.4L210.8 67.9L198.9 74.7C196.7 75.9 194.3 74.1 194.7 71.5L197.3 57.8L187.2 48.3C185.5 46.7 186.4 43.6 188.8 43.3L202.4 41.7L208 29C209.4 26.4 212.5 26.4 213.4 28.7Z" fill="url(#paint18_linear)"/>
<path d="M201.4 111.1V85.9" stroke="url(#paint19_linear)" stroke-width="2" stroke-miterlimit="10" stroke-linecap="round"/>
<path d="M210.6 101.9V79.7" stroke="url(#paint20_linear)" stroke-width="2" stroke-miterlimit="10" stroke-linecap="round"/>
<path d="M220.3 108.5V89.5" stroke="url(#paint21_linear)" stroke-width="2" stroke-miterlimit="10" stroke-linecap="round"/>
<path d="M210.3 58C212.5 58 214.3 56.2 214.3 54C214.3 51.8 212.5 50 210.3 50C208.1 50 206.3 51.8 206.3 54C206.3 56.2 208.1 58 210.3 58Z" fill="white"/>
<path d="M303.7 106.7L289.6 105.1L286.3 70.8L300.3 72.4L303.7 106.7Z" fill="url(#paint22_linear)"/>
<path d="M282.3 105.3C282.3 105.3 275.6 106.6 271.9 108.8C267.2 111.7 265.1 117.3 264.4 122.1L253.7 174.1C297.7 174.1 323.2 174.3 323.2 174.3C323.2 174.3 323.2 140.4 323.5 126.6C323.8 113.7 317.8 107.6 312.5 104.4C306.1 100.6 282.3 105.3 282.3 105.3Z" fill="url(#paint23_linear)"/>
<path d="M307 98.2C307 98.2 300.5 100.6 295.3 100.6C290.9 100.6 284.7 100.5 284.7 100.5L284.6 105C284.6 105 289.7 105.4 295.8 105.4C301.5 105.4 307.3 102.8 307.3 102.8L307 98.2Z" fill="white"/>
<path d="M322.7 165.9H297.7C291.2 165.9 285.9 160.7 285.9 154.2V153C285.9 146.5 291.2 141.3 297.7 141.3H322.7C329.2 141.3 334.5 146.5 334.5 153V154.2C334.4 160.7 329.1 165.9 322.7 165.9Z" fill="url(#paint24_linear)"/>
<path d="M315 174.1H306.8L310.8 155.7C311.2 153.9 312.8 152.6 314.7 152.6C317.3 152.6 319.2 155 318.6 157.5L315 174.1Z" fill="url(#paint25_linear)"/>
<path d="M269.4 58C267 61.2 266.1 67.7 265.8 73.7L261.8 77.8C261.2 78.4 261.6 79.3 262.4 79.4L265.7 79.8C265.7 83.3 265.9 85.8 265.9 85.8C266.9 95.5 275.3 99.9 285.1 99L287.3 98.8C297 97.8 302 86.5 301.3 79.1L300.8 53.4C300.7 53.4 274.8 51 269.4 58Z" fill="url(#paint26_linear)"/>
<path d="M267.3 72.8C267.1 71.7 267.9 70.6 269 70.5C270.1 70.3 271.2 71.1 271.4 72.2C271.6 73.3 270.8 74.4 269.7 74.5C268.6 74.6 267.5 73.9 267.3 72.8Z" fill="url(#paint27_linear)"/>
<path d="M289.3 69.7C289.3 69.7 288.8 89 277.1 85.1C266.3 80.3 265.7 84.1 265.7 84.1C265.7 84.1 265.5 104 287.3 99.5C287.3 99.5 299.7 97.5 300.9 87C301.5 82 302.5 80.2 301.2 68.7L289.3 69.7Z" fill="url(#paint28_linear)"/>
<path d="M297.5 82.5C296 79 291 77.3 286.6 69C287.2 71.9 259 73 260.9 58.4C251.6 44.5 267.4 32.7 281.4 40.8C288.7 37.7 293.2 42.5 294.9 48.9C298.9 46.8 300 46.4 297.7 48.9C307.1 46.1 311.4 52.7 307.1 56.4C316.1 61.2 313 74 304.5 73.4C308 76.5 303.6 86.8 297.5 82.5Z" fill="url(#paint29_linear)"/>
<path d="M295 82.8C292.4 83.1 290 81.2 289.8 78.6C289.5 76 291.4 73.6 294 73.5C296.6 73.3 299 75.1 299.2 77.7C299.5 80.2 297.6 82.5 295 82.8Z" fill="#B0D8FF"/>
<path d="M217 132L226.2 125.4L248.5 149.4C248.5 149.4 253.8 134.3 260.2 122C265.2 112.4 273.3 105.5 279.1 108.1C284 110.9 286.1 122.7 273.6 145.5C268.1 155.5 260.1 164.8 260.1 164.8C260.1 164.8 251 174.5 244 167.5L217 132Z" fill="#31DAA6"/>
<path d="M223.1 123.7L215.7 128.2L217.9 131.2L225.1 126.3L223.1 123.7Z" fill="white"/>
<path d="M217 127.5C217 127.5 211.7 125.1 207.3 124.1C203.4 123.2 202.5 122.3 202.9 121.7C203.8 120.4 213 120.3 214.9 121.7C214.9 121.7 213.5 121.1 211.5 120.1C209.6 119.1 211.4 118.8 213.4 118.9C215.4 119 220 121.4 222.1 124.6L217 127.5Z" fill="url(#paint30_linear)"/>
</g>
<defs>
<linearGradient id="paint0_linear" x1="146.3" y1="95.6608" x2="123.071" y2="167.048" gradientUnits="userSpaceOnUse">
<stop stop-color="#BFE0FF"/>
<stop offset="0.3591" stop-color="#74BBFF"/>
<stop offset="1" stop-color="#3F97EC"/>
</linearGradient>
<linearGradient id="paint1_linear" x1="135.116" y1="141.196" x2="136.118" y2="148.835" gradientUnits="userSpaceOnUse">
<stop stop-color="#156CBF"/>
<stop offset="1" stop-color="#2F93F4"/>
</linearGradient>
<linearGradient id="paint2_linear" x1="148.93" y1="113.189" x2="122.969" y2="116.75" gradientUnits="userSpaceOnUse">
<stop stop-color="#156CBF"/>
<stop offset="1" stop-color="#2F93F4"/>
</linearGradient>
<linearGradient id="paint3_linear" x1="152.599" y1="113.409" x2="126.479" y2="116.991" gradientUnits="userSpaceOnUse">
<stop stop-color="#7FBFFF"/>
<stop offset="1" stop-color="#D8ECFF"/>
</linearGradient>
<linearGradient id="paint4_linear" x1="148.521" y1="107.051" x2="158.016" y2="104.946" gradientUnits="userSpaceOnUse">
<stop stop-color="#156CBF"/>
<stop offset="1" stop-color="#2F93F4"/>
</linearGradient>
<linearGradient id="paint5_linear" x1="134.855" y1="109.853" x2="144.35" y2="107.748" gradientUnits="userSpaceOnUse">
<stop stop-color="#156CBF"/>
<stop offset="1" stop-color="#2F93F4"/>
</linearGradient>
<linearGradient id="paint6_linear" x1="128.366" y1="119.612" x2="116.923" y2="120.527" gradientUnits="userSpaceOnUse">
<stop stop-color="#156CBF"/>
<stop offset="1" stop-color="#2F93F4"/>
</linearGradient>
<linearGradient id="paint7_linear" x1="125.113" y1="120.048" x2="116.268" y2="120.911" gradientUnits="userSpaceOnUse">
<stop stop-color="#7FBFFF"/>
<stop offset="1" stop-color="#D8ECFF"/>
</linearGradient>
<linearGradient id="paint8_linear" x1="135.87" y1="144.883" x2="156.466" y2="228.338" gradientUnits="userSpaceOnUse">
<stop stop-color="#7FBFFF"/>
<stop offset="1" stop-color="#D8ECFF"/>
</linearGradient>
<linearGradient id="paint9_linear" x1="132.744" y1="160.293" x2="78.6073" y2="152.869" gradientUnits="userSpaceOnUse">
<stop stop-color="#156CBF"/>
<stop offset="1" stop-color="#2F93F4"/>
</linearGradient>
<linearGradient id="paint10_linear" x1="116.555" y1="149.665" x2="130.505" y2="206.191" gradientUnits="userSpaceOnUse">
<stop stop-color="#7FBFFF"/>
<stop offset="1" stop-color="#D8ECFF"/>
</linearGradient>
<linearGradient id="paint11_linear" x1="157.029" y1="144.752" x2="173.388" y2="211.037" gradientUnits="userSpaceOnUse">
<stop stop-color="#156CBF"/>
<stop offset="1" stop-color="#2F93F4"/>
</linearGradient>
<linearGradient id="paint12_linear" x1="122.114" y1="160.879" x2="112.954" y2="159.944" gradientUnits="userSpaceOnUse">
<stop stop-color="#156CBF"/>
<stop offset="1" stop-color="#2F93F4"/>
</linearGradient>
<linearGradient id="paint13_linear" x1="119.39" y1="161.425" x2="112.286" y2="160.824" gradientUnits="userSpaceOnUse">
<stop stop-color="#7FBFFF"/>
<stop offset="1" stop-color="#D8ECFF"/>
</linearGradient>
<linearGradient id="paint14_linear" x1="71.958" y1="99.6649" x2="96.2756" y2="168.572" gradientUnits="userSpaceOnUse">
<stop stop-color="#60B1FF"/>
<stop offset="1" stop-color="#1573CE"/>
</linearGradient>
<linearGradient id="paint15_linear" x1="154.044" y1="171.493" x2="95.2175" y2="171.493" gradientUnits="userSpaceOnUse">
<stop stop-color="#60B1FF"/>
<stop offset="1" stop-color="#1573CE"/>
</linearGradient>
<linearGradient id="paint16_linear" x1="22.8372" y1="98.6046" x2="53.5554" y2="55.7565" gradientUnits="userSpaceOnUse">
<stop stop-color="#156CBF"/>
<stop offset="1" stop-color="#2F93F4"/>
</linearGradient>
<linearGradient id="paint17_linear" x1="43.2226" y1="153.658" x2="73.9409" y2="110.809" gradientUnits="userSpaceOnUse">
<stop stop-color="#156CBF"/>
<stop offset="1" stop-color="#2F93F4"/>
</linearGradient>
<linearGradient id="paint18_linear" x1="157.554" y1="63.2929" x2="234.554" y2="47.3001" gradientUnits="userSpaceOnUse">
<stop stop-color="#469AEB"/>
<stop offset="1" stop-color="#2AF28D"/>
</linearGradient>
<linearGradient id="paint19_linear" x1="201.5" y1="85.5" x2="201.5" y2="112" gradientUnits="userSpaceOnUse">
<stop stop-color="#2DD0B4"/>
<stop offset="0.3542" stop-color="#2DD0B4" stop-opacity="0.4424"/>
<stop offset="0.8594" stop-color="#2DD0B4" stop-opacity="0"/>
</linearGradient>
<linearGradient id="paint20_linear" x1="210.7" y1="79.3476" x2="210.7" y2="102.693" gradientUnits="userSpaceOnUse">
<stop stop-color="#2DD0B4"/>
<stop offset="0.3542" stop-color="#2DD0B4" stop-opacity="0.4424"/>
<stop offset="0.8594" stop-color="#2DD0B4" stop-opacity="0"/>
</linearGradient>
<linearGradient id="paint21_linear" x1="220.4" y1="89.1984" x2="220.4" y2="109.179" gradientUnits="userSpaceOnUse">
<stop stop-color="#2DD0B4"/>
<stop offset="0.3542" stop-color="#2DD0B4" stop-opacity="0.4424"/>
<stop offset="0.8594" stop-color="#2DD0B4" stop-opacity="0"/>
</linearGradient>
<linearGradient id="paint22_linear" x1="293.498" y1="70.3526" x2="296.952" y2="114.081" gradientUnits="userSpaceOnUse">
<stop stop-color="#50A8FE"/>
<stop offset="1" stop-color="#DAEDFF"/>
</linearGradient>
<linearGradient id="paint23_linear" x1="253.692" y1="138.619" x2="323.511" y2="138.619" gradientUnits="userSpaceOnUse">
<stop stop-color="#469AEB"/>
<stop offset="1" stop-color="#2AF28D"/>
</linearGradient>
<linearGradient id="paint24_linear" x1="324.575" y1="143.24" x2="275.744" y2="178.381" gradientUnits="userSpaceOnUse">
<stop stop-color="#156CBF"/>
<stop offset="1" stop-color="#2F93F4"/>
</linearGradient>
<linearGradient id="paint25_linear" x1="312.804" y1="176.29" x2="312.68" y2="154.169" gradientUnits="userSpaceOnUse">
<stop stop-color="#156CBF"/>
<stop offset="1" stop-color="#2F93F4"/>
</linearGradient>
<linearGradient id="paint26_linear" x1="270.001" y1="80.6325" x2="286.986" y2="74.9442" gradientUnits="userSpaceOnUse">
<stop stop-color="#7FBFFF"/>
<stop offset="1" stop-color="#D8ECFF"/>
</linearGradient>
<linearGradient id="paint27_linear" x1="271.413" y1="72.0638" x2="261.468" y2="73.817" gradientUnits="userSpaceOnUse">
<stop stop-color="#156CBF"/>
<stop offset="1" stop-color="#2F93F4"/>
</linearGradient>
<linearGradient id="paint28_linear" x1="280.49" y1="93.9697" x2="287.332" y2="73.6165" gradientUnits="userSpaceOnUse">
<stop stop-color="#156CBF"/>
<stop offset="0.771448" stop-color="#2F93F4"/>
</linearGradient>
<linearGradient id="paint29_linear" x1="273.626" y1="42.5169" x2="292.384" y2="67.156" gradientUnits="userSpaceOnUse">
<stop stop-color="#156CBF"/>
<stop offset="1" stop-color="#2F93F4"/>
</linearGradient>
<linearGradient id="paint30_linear" x1="196.475" y1="124.028" x2="224.694" y2="122.755" gradientUnits="userSpaceOnUse">
<stop stop-color="#7FBFFF"/>
<stop offset="1" stop-color="#D8ECFF"/>
</linearGradient>
<clipPath id="clip0">
<rect width="358" height="203" fill="white"/>
</clipPath>
</defs>
</svg>
