<svg xmlns="http://www.w3.org/2000/svg" xmlns:xlink="http://www.w3.org/1999/xlink" width="1452" height="1399" viewBox="0 0 1452 1399">
  <defs>
    <linearGradient id="linear-gradient" x1="0.042" y1="0.5" x2="1" y2="0.5" gradientUnits="objectBoundingBox">
      <stop offset="0" stop-color="#f46682"/>
      <stop offset="1" stop-color="#cc449c"/>
    </linearGradient>
    <linearGradient id="linear-gradient-2" x1="0.028" y1="0.5" x2="1" y2="0.5" xlink:href="#linear-gradient"/>
    <linearGradient id="linear-gradient-3" x1="0" y1="0.5" x2="1" y2="0.5" xlink:href="#linear-gradient"/>
    <clipPath id="clip-path">
      <rect id="crop" width="1451.5" height="1398.5" fill="none"/>
    </clipPath>
    <linearGradient id="linear-gradient-5" y1="0.5" x2="1" y2="0.5" gradientUnits="objectBoundingBox">
      <stop offset="0" stop-color="#49e3f2"/>
      <stop offset="0.191" stop-color="#3fd5f3"/>
      <stop offset="0.549" stop-color="#25b2f8"/>
      <stop offset="1" stop-color="#007dff"/>
    </linearGradient>
    <clipPath id="clip-path-2">
      <path id="Path_684" data-name="Path 684" d="M985.14.69,653.87.83h-.01L248.5,1S366.31,2.029,480,104.5c111.5,100.5,102,282,104,407,.959,60.11,6.781,123.23,33.03,174a189.943,189.943,0,0,0,10.47,17.9c1.75,2.66,3.58,5.281,5.481,7.84a168.6,168.6,0,0,0,45.259,42.289c26.68,17.061,60.85,28.771,104.57,33.1q5.01.51,10.19.87c184,13,458,3,657,320V.5Z" fill="none"/>
    </clipPath>
    <linearGradient id="linear-gradient-6" x1="-0.02" y1="1.018" x2="-0.019" y2="1.017" gradientUnits="objectBoundingBox">
      <stop offset="0" stop-color="#49e3f2"/>
      <stop offset="0.172" stop-color="#4bd5f3"/>
      <stop offset="0.495" stop-color="#51b2f7"/>
      <stop offset="0.929" stop-color="#5b78fd"/>
      <stop offset="1" stop-color="#5d6fff"/>
    </linearGradient>
    <clipPath id="clip-path-4">
      <rect id="Rectangle_42" data-name="Rectangle 42" width="842" height="320.865" transform="translate(609.5 499.485)" fill="none"/>
    </clipPath>
    <clipPath id="clip-path-5">
      <rect id="Rectangle_43" data-name="Rectangle 43" width="842" height="751" transform="translate(609.5)" fill="none"/>
    </clipPath>
    <clipPath id="clip-path-6">
      <path id="Path_688" data-name="Path 688" d="M1062.008,225.249a.5.5,0,0,0,.318.632,47.914,47.914,0,0,1,19.662,12.907.5.5,0,0,0,.768-.641,48.952,48.952,0,0,0-20.115-13.213.464.464,0,0,0-.158-.027.5.5,0,0,0-.475.342" fill="none"/>
    </clipPath>
    <linearGradient id="linear-gradient-7" x1="-49.661" y1="83.378" x2="-49.614" y2="83.378" gradientUnits="objectBoundingBox">
      <stop offset="0" stop-color="#88e9ff"/>
      <stop offset="1" stop-color="#34bfea"/>
    </linearGradient>
    <clipPath id="clip-path-7">
      <path id="Path_689" data-name="Path 689" d="M1054.8,231.809a.5.5,0,0,0,.354.611c9.276,2.487,20.332,11.134,20.442,11.222a.5.5,0,0,0,.619-.787c-.112-.088-11.326-8.859-20.8-11.4a.571.571,0,0,0-.129-.017.5.5,0,0,0-.484.372" fill="none"/>
    </clipPath>
    <linearGradient id="linear-gradient-8" x1="-47.69" y1="94.696" x2="-47.644" y2="94.696" xlink:href="#linear-gradient-7"/>
    <clipPath id="clip-path-8">
      <path id="Path_690" data-name="Path 690" d="M1049.764,238.226a.5.5,0,0,0,.195.679l18.147,10.036a.508.508,0,0,0,.242.063.5.5,0,0,0,.243-.938l-18.148-10.036a.5.5,0,0,0-.242-.062.5.5,0,0,0-.437.258" fill="none"/>
    </clipPath>
    <linearGradient id="linear-gradient-9" x1="-53.362" y1="105.029" x2="-53.31" y2="105.029" xlink:href="#linear-gradient-7"/>
    <clipPath id="clip-path-9">
      <path id="Path_691" data-name="Path 691" d="M1045.44,247.648a.5.5,0,0,0,.468.53c1.542.1,10.626,4.3,16.356,7.1a.486.486,0,0,0,.219.05.5.5,0,0,0,.22-.948c-1.478-.722-14.5-7.06-16.733-7.2h-.036a.481.481,0,0,0-.494.469" fill="none"/>
    </clipPath>
    <linearGradient id="linear-gradient-10" x1="-58.043" y1="141.109" x2="-57.986" y2="141.109" xlink:href="#linear-gradient-7"/>
    <clipPath id="clip-path-10">
      <path id="Path_692" data-name="Path 692" d="M1042.594,253.664a.5.5,0,0,0,.257.66l16.223,7.148a.493.493,0,0,0,.2.042.5.5,0,0,0,.2-.958l-16.222-7.148a.489.489,0,0,0-.2-.042.5.5,0,0,0-.46.3" fill="none"/>
    </clipPath>
    <linearGradient id="linear-gradient-11" x1="-58.753" y1="140.329" x2="-58.695" y2="140.329" xlink:href="#linear-gradient-7"/>
    <clipPath id="clip-path-11">
      <path id="Path_694" data-name="Path 694" d="M583.306,308.505c-.54.528-13.252,13.02-16.973,21.6a.5.5,0,0,0,.261.658.5.5,0,0,0,.658-.26c3.641-8.4,16.622-21.154,16.753-21.281a.5.5,0,0,0-.453-.848.5.5,0,0,0-.246.132" fill="none"/>
    </clipPath>
    <linearGradient id="linear-gradient-12" x1="-25.651" y1="58.615" x2="-25.606" y2="58.615" xlink:href="#linear-gradient-7"/>
    <clipPath id="clip-path-12">
      <path id="Path_695" data-name="Path 695" d="M590.094,311.375c-.5.545-12.306,13.444-14.295,19.07a.5.5,0,0,0,.942.334c1.922-5.435,13.969-18.6,14.091-18.728a.5.5,0,0,0-.738-.676" fill="none"/>
    </clipPath>
    <linearGradient id="linear-gradient-13" x1="-30.421" y1="65.325" x2="-30.368" y2="65.325" xlink:href="#linear-gradient-7"/>
    <clipPath id="clip-path-13">
      <path id="Path_696" data-name="Path 696" d="M598.655,316.5c-.554.508-13.586,12.518-15.751,17.444a.5.5,0,0,0,.916.4c2.081-4.735,15.377-16.987,15.512-17.11a.5.5,0,0,0-.44-.858.509.509,0,0,0-.237.122" fill="none"/>
    </clipPath>
    <linearGradient id="linear-gradient-14" x1="-29.14" y1="73.303" x2="-29.09" y2="73.303" xlink:href="#linear-gradient-7"/>
    <clipPath id="clip-path-14">
      <path id="Path_697" data-name="Path 697" d="M602.7,326.2c-1.289.843-12.614,8.276-13.749,9.776a.5.5,0,0,0,.5.792.509.509,0,0,0,.3-.187c.778-1.032,8.5-6.273,13.5-9.545a.5.5,0,0,0-.376-.907.471.471,0,0,0-.171.071" fill="none"/>
    </clipPath>
    <linearGradient id="linear-gradient-15" x1="-35.815" y1="139.274" x2="-35.754" y2="139.274" xlink:href="#linear-gradient-7"/>
    <clipPath id="clip-path-15">
      <path id="Path_698" data-name="Path 698" d="M604.346,334.105l-12.086,7.661a.5.5,0,0,0,.37.912.522.522,0,0,0,.165-.067l12.085-7.661a.5.5,0,1,0-.534-.845" fill="none"/>
    </clipPath>
    <linearGradient id="linear-gradient-16" x1="-40.751" y1="175.898" x2="-40.682" y2="175.898" xlink:href="#linear-gradient-7"/>
    <clipPath id="clip-path-16">
      <path id="Path_700" data-name="Path 700" d="M816.089,143.3a.5.5,0,0,0,.317.631c10.229,3.414,24.844,12.354,24.99,12.444a.509.509,0,0,0,.261.074.5.5,0,0,0,.262-.927c-.147-.091-14.858-9.089-25.2-12.539a.5.5,0,0,0-.156-.026.506.506,0,0,0-.477.343" fill="none"/>
    </clipPath>
    <linearGradient id="linear-gradient-17" x1="-31.13" y1="93.11" x2="-31.092" y2="93.11" xlink:href="#linear-gradient-7"/>
    <clipPath id="clip-path-17">
      <path id="Path_701" data-name="Path 701" d="M812.709,151.319a.5.5,0,0,0,.356.61c6.3,1.655,21.408,10.731,21.561,10.822a.5.5,0,0,0,.257.073.5.5,0,0,0,.258-.929c-.625-.376-15.388-9.242-21.822-10.933a.5.5,0,0,0-.126-.016.5.5,0,0,0-.484.373" fill="none"/>
    </clipPath>
    <linearGradient id="linear-gradient-18" x1="-35.638" y1="105.1" x2="-35.595" y2="105.1" xlink:href="#linear-gradient-7"/>
    <clipPath id="clip-path-18">
      <path id="Path_702" data-name="Path 702" d="M808.991,160.658a.5.5,0,0,0,.389.591c7.886,1.626,19.367,9.461,19.482,9.539a.486.486,0,0,0,.283.089.5.5,0,0,0,.283-.912c-.477-.328-11.762-8.029-19.848-9.695a.475.475,0,0,0-.1-.01.5.5,0,0,0-.49.4" fill="none"/>
    </clipPath>
    <linearGradient id="linear-gradient-19" x1="-38.956" y1="116.713" x2="-38.908" y2="116.713" xlink:href="#linear-gradient-7"/>
    <clipPath id="clip-path-19">
      <path id="Path_703" data-name="Path 703" d="M806.757,168.236a.5.5,0,0,0,.356.611c5.3,1.4,15.839,8.128,15.944,8.2a.5.5,0,0,0,.539-.843c-.437-.28-10.772-6.875-16.228-8.319a.475.475,0,0,0-.128-.017.5.5,0,0,0-.483.372" fill="none"/>
    </clipPath>
    <linearGradient id="linear-gradient-20" x1="-46.911" y1="133.045" x2="-46.853" y2="133.045" xlink:href="#linear-gradient-7"/>
    <clipPath id="clip-path-20">
      <path id="Path_704" data-name="Path 704" d="M802.918,173.889a.5.5,0,0,0,.159.689l14.52,9.072a.5.5,0,0,0,.53-.848l-14.521-9.071a.485.485,0,0,0-.263-.077.5.5,0,0,0-.425.235" fill="none"/>
    </clipPath>
    <linearGradient id="linear-gradient-21" x1="-51.305" y1="121.739" x2="-51.241" y2="121.739" xlink:href="#linear-gradient-7"/>
    <clipPath id="clip-path-21">
      <path id="Path_705" data-name="Path 705" d="M798.149,178.218a.5.5,0,0,0,.091.7l14.512,11.144a.5.5,0,0,0,.609-.793L798.85,178.126a.5.5,0,0,0-.7.092" fill="none"/>
    </clipPath>
    <linearGradient id="linear-gradient-22" x1="-51.067" y1="100.599" x2="-51.003" y2="100.599" xlink:href="#linear-gradient-7"/>
    <clipPath id="clip-path-22">
      <path id="Path_710" data-name="Path 710" d="M672.1,265.17l-24.81,4.894,41.6,3.034.686-9.592Z" fill="none"/>
    </clipPath>
    <linearGradient id="linear-gradient-23" x1="-15.121" y1="118.05" x2="-15.097" y2="118.05" gradientUnits="objectBoundingBox">
      <stop offset="0" stop-color="#6e7ee4"/>
      <stop offset="1" stop-color="#4c30c0"/>
    </linearGradient>
    <clipPath id="clip-path-23">
      <path id="Path_711" data-name="Path 711" d="M658.642,261.059l-11.353,9.005,33.178-11.158-.559-7.658h-.091c-5.069,0-21.175,9.812-21.175,9.812" fill="none"/>
    </clipPath>
    <linearGradient id="linear-gradient-24" x1="-19.203" y1="60.789" x2="-19.173" y2="60.789" xlink:href="#linear-gradient-23"/>
    <clipPath id="clip-path-24">
      <path id="Path_712" data-name="Path 712" d="M647.289,270.064l32.619-18.816-10.207-1.64Z" fill="none"/>
    </clipPath>
    <linearGradient id="linear-gradient-25" x1="-19.527" y1="55.996" x2="-19.496" y2="55.996" xlink:href="#linear-gradient-23"/>
    <clipPath id="clip-path-25">
      <path id="Path_713" data-name="Path 713" d="M647.289,270.064l62.442-4.6-21.924-10.277Z" fill="none"/>
    </clipPath>
    <linearGradient id="linear-gradient-26" x1="-10.28" y1="76.73" x2="-10.264" y2="76.73" xlink:href="#linear-gradient-23"/>
    <clipPath id="clip-path-26">
      <path id="Path_715" data-name="Path 715" d="M1216.621,232.285l-14.253,9.2,39.926-9.224.22-8.985c-5.769-.706-25.893,9.01-25.893,9.01" fill="url(#linear-gradient)"/>
    </clipPath>
    <linearGradient id="linear-gradient-28" x1="-33.81" y1="29.258" x2="-33.782" y2="29.258" xlink:href="#linear-gradient"/>
    <clipPath id="clip-path-27">
      <path id="Path_717" data-name="Path 717" d="M1231.832,238.606l-29.463,2.877,48.116,8.269,1.891-11.1Z" fill="url(#linear-gradient-2)"/>
    </clipPath>
    <linearGradient id="linear-gradient-30" x1="-45.595" y1="23.261" x2="-45.558" y2="23.261" xlink:href="#linear-gradient"/>
    <clipPath id="clip-path-28">
      <path id="Path_719" data-name="Path 719" d="M1230.809,220.2l-28.441,21.28,40.145-18.208Z" fill="url(#linear-gradient-3)"/>
    </clipPath>
    <linearGradient id="linear-gradient-32" x1="-34.246" y1="31.055" x2="-34.218" y2="31.055" xlink:href="#linear-gradient"/>
    <clipPath id="clip-path-29">
      <path id="Path_721" data-name="Path 721" d="M1202.368,241.484l73.273,1.748-24.373-14.469Z" fill="url(#linear-gradient-3)"/>
    </clipPath>
    <linearGradient id="linear-gradient-34" x1="-30.505" y1="16.081" x2="-30.48" y2="16.081" xlink:href="#linear-gradient"/>
  </defs>
  <g id="illustrasi_header" data-name="illustrasi header" clip-path="url(#clip-path)">
    <path id="Path_683" data-name="Path 683" d="M0,.5S213.5,30,384.5,137,582.806,508.732,589.4,591.116C693.6,716.884,863.355,791.825,863.355,791.825S1063,810.5,1230,987.5s221,411,221,411L1450,.5Z" opacity="0.15" fill="url(#linear-gradient-5)"/>
    <rect id="Rectangle_40" data-name="Rectangle 40" width="1451.5" height="1398.5" fill="none"/>
    <g id="Group_63" data-name="Group 63">
      <g id="Group_62" data-name="Group 62" clip-path="url(#clip-path-2)">
        <rect id="Rectangle_41" data-name="Rectangle 41" width="1633.188" height="1631.14" transform="translate(-304.74 537.038) rotate(-44.122)" fill="url(#linear-gradient-6)"/>
      </g>
    </g>
    <g id="Group_71" data-name="Group 71">
      <g id="Group_70" data-name="Group 70" clip-path="url(#clip-path)">
        <g id="Group_66" data-name="Group 66" opacity="0.3">
          <g id="Group_65" data-name="Group 65">
            <g id="Group_64" data-name="Group 64" clip-path="url(#clip-path-4)">
              <path id="Path_685" data-name="Path 685" d="M1451.5,532,1450,820.35c-55.82-50.4-139.1-98.3-253.5-97.35-153.85,1.28-295.79,52.7-413.689,63.63C716.79,792.75,658.32,786.18,609.5,751c0,0,25.08,5.98,68.74,2.53C728.41,749.58,798.5,741,898.5,665c159.491-121.213,392.5-218.72,553-133" fill="#d9fbff" opacity="0.6"/>
            </g>
          </g>
        </g>
        <g id="Group_69" data-name="Group 69" opacity="0.3">
          <g id="Group_68" data-name="Group 68">
            <g id="Group_67" data-name="Group 67" clip-path="url(#clip-path-5)">
              <path id="Path_686" data-name="Path 686" d="M1451.5,288s-327.422-116.361-452,121c-169,322-390,342-390,342s158.993-117.957,200-387c41-269,337-363,337-363l303-1Z" fill="#d9fbff" opacity="0.45"/>
            </g>
          </g>
        </g>
      </g>
    </g>
    <g id="Group_82" data-name="Group 82">
      <path id="Path_687" data-name="Path 687" d="M1089.888,241.584s-.917-16.258-27.5-23.8c0,0-9.716,5.7-17.414,18.853s-9.9,21.149-9.9,21.149l27.405,10.929s9.073-24.746,27.4-27.129" fill="#fff"/>
      <g id="Group_73" data-name="Group 73">
        <g id="Group_72" data-name="Group 72" clip-path="url(#clip-path-6)">
          <rect id="Rectangle_45" data-name="Rectangle 45" width="21.01" height="14.06" transform="translate(1061.922 224.908)" fill="url(#linear-gradient-7)"/>
        </g>
      </g>
      <g id="Group_75" data-name="Group 75">
        <g id="Group_74" data-name="Group 74" clip-path="url(#clip-path-7)">
          <rect id="Rectangle_46" data-name="Rectangle 46" width="21.741" height="12.311" transform="translate(1054.733 231.438)" fill="url(#linear-gradient-8)"/>
        </g>
      </g>
      <g id="Group_77" data-name="Group 77">
        <g id="Group_76" data-name="Group 76" clip-path="url(#clip-path-8)">
          <rect id="Rectangle_47" data-name="Rectangle 47" width="19.291" height="11.036" transform="translate(1049.629 237.968)" fill="url(#linear-gradient-9)"/>
        </g>
      </g>
      <g id="Group_79" data-name="Group 79">
        <g id="Group_78" data-name="Group 78" clip-path="url(#clip-path-9)">
          <rect id="Rectangle_48" data-name="Rectangle 48" width="17.631" height="8.148" transform="translate(1045.423 247.179)" fill="url(#linear-gradient-10)"/>
        </g>
      </g>
      <g id="Group_81" data-name="Group 81">
        <g id="Group_80" data-name="Group 80" clip-path="url(#clip-path-10)">
          <rect id="Rectangle_49" data-name="Rectangle 49" width="17.361" height="8.149" transform="translate(1042.483 253.366)" fill="url(#linear-gradient-11)"/>
        </g>
      </g>
    </g>
    <g id="Group_93" data-name="Group 93">
      <path id="Path_693" data-name="Path 693" d="M580.233,302.647s-19.737,16.721-24.485,33.775a60.14,60.14,0,0,1,10.634-.539c6.764.257,11.794.449,16.2,3.418,6.568,4.424,8.066,12.527,8.454,15.386,0,0,9.559-12.694,20.846-16.222,0,0-1.076-33.4-31.652-35.818" fill="#fff"/>
      <g id="Group_84" data-name="Group 84">
        <g id="Group_83" data-name="Group 83" clip-path="url(#clip-path-11)">
          <rect id="Rectangle_50" data-name="Rectangle 50" width="22.007" height="18.565" transform="translate(562.565 312.731) rotate(-11.73)" fill="url(#linear-gradient-12)"/>
        </g>
      </g>
      <g id="Group_86" data-name="Group 86">
        <g id="Group_85" data-name="Group 85" clip-path="url(#clip-path-12)">
          <rect id="Rectangle_51" data-name="Rectangle 51" width="18.877" height="16.619" transform="translate(572.434 314.946) rotate(-11.73)" fill="url(#linear-gradient-13)"/>
        </g>
      </g>
      <g id="Group_88" data-name="Group 88">
        <g id="Group_87" data-name="Group 87" clip-path="url(#clip-path-13)">
          <rect id="Rectangle_52" data-name="Rectangle 52" width="19.956" height="14.738" transform="translate(579.912 320.32) rotate(-11.73)" fill="url(#linear-gradient-14)"/>
        </g>
      </g>
      <g id="Group_90" data-name="Group 90">
        <g id="Group_89" data-name="Group 89" clip-path="url(#clip-path-14)">
          <rect id="Rectangle_53" data-name="Rectangle 53" width="16.427" height="7.689" transform="translate(587.339 329.351) rotate(-11.73)" fill="url(#linear-gradient-15)"/>
        </g>
      </g>
      <g id="Group_92" data-name="Group 92">
        <g id="Group_91" data-name="Group 91" clip-path="url(#clip-path-15)">
          <rect id="Rectangle_54" data-name="Rectangle 54" width="14.521" height="6.044" transform="translate(590.847 336.875) rotate(-11.73)" fill="url(#linear-gradient-16)"/>
        </g>
      </g>
    </g>
    <g id="Group_106" data-name="Group 106">
      <path id="Path_699" data-name="Path 699" d="M812.644,202.5s-2.8-16.129-25.974-23.361c0,0,12.794-6.027,14.235-17.847s12.536-27.325,12.536-27.325,24.3,4.1,39.385,20.781c0,0-13.823,10.213-17.919,21.353s-22.263,26.4-22.263,26.4" fill="#fff"/>
      <g id="Group_95" data-name="Group 95">
        <g id="Group_94" data-name="Group 94" clip-path="url(#clip-path-16)">
          <rect id="Rectangle_55" data-name="Rectangle 55" width="26.226" height="13.492" transform="translate(816.002 142.96)" fill="url(#linear-gradient-17)"/>
        </g>
      </g>
      <g id="Group_97" data-name="Group 97">
        <g id="Group_96" data-name="Group 96" clip-path="url(#clip-path-17)">
          <rect id="Rectangle_56" data-name="Rectangle 56" width="22.816" height="11.878" transform="translate(812.638 150.946)" fill="url(#linear-gradient-18)"/>
        </g>
      </g>
      <g id="Group_99" data-name="Group 99">
        <g id="Group_98" data-name="Group 98" clip-path="url(#clip-path-18)">
          <rect id="Rectangle_57" data-name="Rectangle 57" width="20.779" height="10.617" transform="translate(808.934 160.26)" fill="url(#linear-gradient-19)"/>
        </g>
      </g>
      <g id="Group_101" data-name="Group 101">
        <g id="Group_100" data-name="Group 100" clip-path="url(#clip-path-19)">
          <rect id="Rectangle_58" data-name="Rectangle 58" width="17.21" height="9.258" transform="translate(806.687 167.864)" fill="url(#linear-gradient-20)"/>
        </g>
      </g>
      <g id="Group_103" data-name="Group 103">
        <g id="Group_102" data-name="Group 102" clip-path="url(#clip-path-20)">
          <rect id="Rectangle_59" data-name="Rectangle 59" width="15.661" height="10.071" transform="translate(802.771 173.654)" fill="url(#linear-gradient-21)"/>
        </g>
      </g>
      <g id="Group_105" data-name="Group 105">
        <g id="Group_104" data-name="Group 104" clip-path="url(#clip-path-21)">
          <rect id="Rectangle_60" data-name="Rectangle 60" width="15.64" height="12.144" transform="translate(797.981 178.022)" fill="url(#linear-gradient-22)"/>
        </g>
      </g>
    </g>
    <g id="Group_124" data-name="Group 124">
      <g id="Group_117" data-name="Group 117">
        <g id="Group_116" data-name="Group 116" clip-path="url(#clip-path-22)">
          <rect id="Rectangle_65" data-name="Rectangle 65" width="42.281" height="9.592" transform="translate(647.289 263.506)" fill="url(#linear-gradient-23)"/>
        </g>
      </g>
      <g id="Group_119" data-name="Group 119">
        <g id="Group_118" data-name="Group 118" clip-path="url(#clip-path-23)">
          <rect id="Rectangle_66" data-name="Rectangle 66" width="33.178" height="18.817" transform="translate(647.289 251.247)" fill="url(#linear-gradient-24)"/>
        </g>
      </g>
      <g id="Group_121" data-name="Group 121">
        <g id="Group_120" data-name="Group 120" clip-path="url(#clip-path-24)">
          <rect id="Rectangle_67" data-name="Rectangle 67" width="32.619" height="20.456" transform="translate(647.289 249.608)" fill="url(#linear-gradient-25)"/>
        </g>
      </g>
      <g id="Group_123" data-name="Group 123">
        <g id="Group_122" data-name="Group 122" clip-path="url(#clip-path-25)">
          <rect id="Rectangle_68" data-name="Rectangle 68" width="62.442" height="14.877" transform="translate(647.289 255.187)" fill="url(#linear-gradient-26)"/>
        </g>
      </g>
    </g>
    <g id="Group_134" data-name="Group 134">
      <g id="Group_126" data-name="Group 126">
        <path id="Path_714" data-name="Path 714" d="M1216.621,232.285l-14.253,9.2,39.926-9.224.22-8.985c-5.769-.706-25.893,9.01-25.893,9.01" fill="url(#linear-gradient)"/>
        <g id="Group_125" data-name="Group 125" clip-path="url(#clip-path-26)">
          <rect id="Rectangle_69" data-name="Rectangle 69" width="35.633" height="40.558" transform="matrix(0.097, -0.995, 0.995, 0.097, 1201.683, 248.495)" fill="url(#linear-gradient-28)"/>
        </g>
      </g>
      <g id="Group_133" data-name="Group 133">
        <g id="Group_128" data-name="Group 128">
          <path id="Path_716" data-name="Path 716" d="M1231.832,238.606l-29.463,2.877,48.116,8.269,1.891-11.1Z" fill="url(#linear-gradient-2)"/>
          <g id="Group_127" data-name="Group 127" clip-path="url(#clip-path-27)">
            <rect id="Rectangle_70" data-name="Rectangle 70" width="26.625" height="50.91" transform="translate(1201.433 251.055) rotate(-84.42)" fill="url(#linear-gradient-30)"/>
          </g>
        </g>
        <g id="Group_130" data-name="Group 130">
          <path id="Path_718" data-name="Path 718" d="M1230.809,220.2l-28.441,21.28,40.145-18.208Z" fill="url(#linear-gradient-3)"/>
          <g id="Group_129" data-name="Group 129" clip-path="url(#clip-path-28)">
            <rect id="Rectangle_71" data-name="Rectangle 71" width="35.152" height="38.185" transform="matrix(0.097, -0.995, 0.995, 0.097, 1201.73, 248.016)" fill="url(#linear-gradient-32)"/>
          </g>
        </g>
        <g id="Group_132" data-name="Group 132">
          <path id="Path_720" data-name="Path 720" d="M1202.368,241.484l73.273,1.748-24.373-14.469Z" fill="url(#linear-gradient-3)"/>
          <g id="Group_131" data-name="Group 131" clip-path="url(#clip-path-29)">
            <rect id="Rectangle_72" data-name="Rectangle 72" width="39.975" height="74.426" transform="translate(1201.005 255.432) rotate(-84.42)" fill="url(#linear-gradient-34)"/>
          </g>
        </g>
      </g>
    </g>
  </g>
</svg>
