<svg data-v-423bf9ae="" xmlns="http://www.w3.org/2000/svg" viewBox="0 0 372.8474939286554 60" class="font"><!----><!----><defs data-v-423bf9ae=""><linearGradient data-v-423bf9ae="" gradientTransform="rotate(25)" id="60992534-46e4-4749-95f8-8508c1f824fe" x1="0%" y1="0%" x2="100%" y2="0%"><stop data-v-423bf9ae="" offset="0%" style="stop-color: rgb(0, 118, 221); stop-opacity: 1;"></stop><stop data-v-423bf9ae="" offset="100%" style="stop-color: rgb(0, 205, 233); stop-opacity: 1;"></stop></linearGradient></defs><g data-v-423bf9ae="" id="268d022c-c4d2-4a19-a911-6fa7ed14432a" fill="url(#60992534-46e4-4749-95f8-8508c1f824fe)" transform="matrix(4.507888986286435,0,0,4.507888986286435,1.9383936463990494,-15.732533320385976)"><path d="M0.01 16.80L-0.43 16.10L-0.43 16.10Q0.22 15.68 0.60 15.23L0.60 15.23L0.60 15.23Q0.98 14.78 1.17 14.28L1.17 14.28L1.17 14.28Q1.37 13.78 1.42 13.23L1.42 13.23L1.42 13.23Q1.48 12.67 1.48 12.06L1.48 12.06L1.48 3.63L2.82 3.63L2.82 11.63L2.82 11.63Q2.82 12.43 2.71 13.17L2.71 13.17L2.71 13.17Q2.60 13.90 2.29 14.56L2.29 14.56L2.29 14.56Q1.99 15.22 1.44 15.79L1.44 15.79L1.44 15.79Q0.90 16.35 0.01 16.80L0.01 16.80ZM10.38 12.72L10.38 12.72L10.38 12.72Q11.16 12.72 11.82 12.41L11.82 12.41L11.82 12.41Q12.47 12.09 12.94 11.54L12.94 11.54L12.94 11.54Q13.41 10.99 13.67 10.25L13.67 10.25L13.67 10.25Q13.93 9.52 13.93 8.66L13.93 8.66L13.93 8.66Q13.93 7.77 13.65 7.01L13.65 7.01L13.65 7.01Q13.36 6.25 12.87 5.71L12.87 5.71L12.87 5.71Q12.37 5.16 11.71 4.86L11.71 4.86L11.71 4.86Q11.04 4.55 10.27 4.55L10.27 4.55L10.27 4.55Q9.47 4.55 8.82 4.88L8.82 4.88L8.82 4.88Q8.17 5.20 7.70 5.76L7.70 5.76L7.70 5.76Q7.24 6.31 6.98 7.05L6.98 7.05L6.98 7.05Q6.73 7.79 6.73 8.63L6.73 8.63L6.73 8.63Q6.73 9.53 7.01 10.28L7.01 10.28L7.01 10.28Q7.29 11.03 7.78 11.57L7.78 11.57L7.78 11.57Q8.27 12.11 8.94 12.42L8.94 12.42L8.94 12.42Q9.60 12.72 10.38 12.72ZM10.14 13.78L10.14 13.78L10.14 13.78Q9.19 13.78 8.31 13.44L8.31 13.44L8.31 13.44Q7.44 13.10 6.77 12.46L6.77 12.46L6.77 12.46Q6.10 11.83 5.71 10.92L5.71 10.92L5.71 10.92Q5.32 10.01 5.32 8.89L5.32 8.89L5.32 8.89Q5.32 8.11 5.51 7.41L5.51 7.41L5.51 7.41Q5.71 6.71 6.06 6.11L6.06 6.11L6.06 6.11Q6.41 5.51 6.89 5.02L6.89 5.02L6.89 5.02Q7.37 4.54 7.95 4.20L7.95 4.20L7.95 4.20Q8.53 3.86 9.18 3.68L9.18 3.68L9.18 3.68Q9.84 3.49 10.53 3.49L10.53 3.49L10.53 3.49Q11.16 3.49 11.75 3.64L11.75 3.64L11.75 3.64Q12.35 3.79 12.89 4.08L12.89 4.08L12.89 4.08Q13.43 4.37 13.87 4.79L13.87 4.79L13.87 4.79Q14.32 5.22 14.65 5.76L14.65 5.76L14.65 5.76Q14.98 6.30 15.16 6.96L15.16 6.96L15.16 6.96Q15.34 7.62 15.34 8.38L15.34 8.38L15.34 8.38Q15.34 9.15 15.15 9.86L15.15 9.86L15.15 9.86Q14.96 10.56 14.62 11.16L14.62 11.16L14.62 11.16Q14.27 11.76 13.80 12.24L13.80 12.24L13.80 12.24Q13.32 12.73 12.75 13.07L12.75 13.07L12.75 13.07Q12.17 13.41 11.51 13.60L11.51 13.60L11.51 13.60Q10.85 13.78 10.14 13.78ZM22.35 8.12L22.35 8.12L22.35 8.12Q22.76 8.24 23.14 8.45L23.14 8.45L23.14 8.45Q23.51 8.66 23.79 8.95L23.79 8.95L23.79 8.95Q24.07 9.24 24.24 9.61L24.24 9.61L24.24 9.61Q24.40 9.99 24.40 10.42L24.40 10.42L24.40 10.42Q24.40 10.77 24.29 11.15L24.29 11.15L24.29 11.15Q24.18 11.53 23.95 11.88L23.95 11.88L23.95 11.88Q23.73 12.24 23.39 12.56L23.39 12.56L23.39 12.56Q23.06 12.88 22.61 13.12L22.61 13.12L22.61 13.12Q22.17 13.36 21.62 13.50L21.62 13.50L21.62 13.50Q21.07 13.64 20.41 13.64L20.41 13.64L17.84 13.64L17.84 3.63L20.66 3.63L20.66 3.63Q21.49 3.63 22.10 3.82L22.10 3.82L22.10 3.82Q22.72 4.01 23.13 4.32L23.13 4.32L23.13 4.32Q23.54 4.63 23.74 5.02L23.74 5.02L23.74 5.02Q23.95 5.41 23.95 5.81L23.95 5.81L23.95 5.81Q23.95 6.15 23.81 6.48L23.81 6.48L23.81 6.48Q23.67 6.82 23.45 7.11L23.45 7.11L23.45 7.11Q23.23 7.41 22.94 7.67L22.94 7.67L22.94 7.67Q22.65 7.92 22.35 8.12ZM19.18 8.95L19.18 12.58L20.56 12.58L20.56 12.58Q21.25 12.58 21.71 12.41L21.71 12.41L21.71 12.41Q22.18 12.24 22.46 11.96L22.46 11.96L22.46 11.96Q22.75 11.68 22.87 11.34L22.87 11.34L22.87 11.34Q23.00 10.99 23.00 10.64L23.00 10.64L23.00 10.64Q23.00 10.21 22.82 9.89L22.82 9.89L22.82 9.89Q22.65 9.57 22.33 9.36L22.33 9.36L22.33 9.36Q22.00 9.15 21.55 9.05L21.55 9.05L21.55 9.05Q21.10 8.95 20.55 8.95L20.55 8.95L19.18 8.95ZM19.18 7.89L21.53 7.89L21.53 7.89Q22.03 7.55 22.32 7.12L22.32 7.12L22.32 7.12Q22.61 6.70 22.61 6.19L22.61 6.19L22.61 6.19Q22.61 5.50 22.05 5.09L22.05 5.09L22.05 5.09Q21.49 4.69 20.43 4.69L20.43 4.69L19.18 4.69L19.18 7.89ZM31.14 3.63L31.14 13.64L29.80 13.64L29.80 3.63L31.14 3.63ZM35.27 13.64L34.05 13.64L34.05 3.63L36.00 3.63L40.72 10.47L41.41 11.70L41.54 11.70L41.45 10.30L41.45 3.63L42.67 3.63L42.67 13.64L41.54 13.64L35.93 5.58L35.31 4.39L35.18 4.39L35.27 5.78L35.27 13.64ZM45.58 13.64L45.58 3.63L48.97 3.63L48.97 3.63Q50.29 3.63 51.29 4.00L51.29 4.00L51.29 4.00Q52.29 4.36 52.96 4.99L52.96 4.99L52.96 4.99Q53.63 5.62 53.97 6.47L53.97 6.47L53.97 6.47Q54.31 7.33 54.31 8.30L54.31 8.30L54.31 8.30Q54.31 8.93 54.17 9.57L54.17 9.57L54.17 9.57Q54.02 10.21 53.73 10.80L53.73 10.80L53.73 10.80Q53.43 11.40 52.98 11.92L52.98 11.92L52.98 11.92Q52.53 12.43 51.91 12.82L51.91 12.82L51.91 12.82Q51.29 13.20 50.50 13.42L50.50 13.42L50.50 13.42Q49.71 13.64 48.75 13.64L48.75 13.64L45.58 13.64ZM46.92 4.69L46.92 12.58L48.99 12.58L48.99 12.58Q49.98 12.58 50.72 12.27L50.72 12.27L50.72 12.27Q51.46 11.95 51.94 11.41L51.94 11.41L51.94 11.41Q52.42 10.86 52.66 10.13L52.66 10.13L52.66 10.13Q52.90 9.41 52.90 8.58L52.90 8.58L52.90 8.58Q52.90 7.68 52.63 6.96L52.63 6.96L52.63 6.96Q52.35 6.23 51.82 5.73L51.82 5.73L51.82 5.73Q51.29 5.23 50.51 4.96L50.51 4.96L50.51 4.96Q49.74 4.69 48.75 4.69L48.75 4.69L46.92 4.69ZM62.59 13.64L56.81 13.64L56.81 3.63L62.69 3.63L62.48 4.69L58.15 4.69L58.15 7.89L62.01 7.89L61.80 8.95L58.15 8.95L58.15 12.58L62.79 12.58L62.59 13.64ZM70.96 13.64L65.18 13.64L65.18 3.63L71.05 3.63L70.85 4.69L66.52 4.69L66.52 7.89L70.38 7.89L70.17 8.95L66.52 8.95L66.52 12.58L71.16 12.58L70.96 13.64ZM73.55 13.64L73.55 3.63L76.93 3.63L76.93 3.63Q78.26 3.63 79.26 4.00L79.26 4.00L79.26 4.00Q80.26 4.36 80.93 4.99L80.93 4.99L80.93 4.99Q81.60 5.62 81.94 6.47L81.94 6.47L81.94 6.47Q82.28 7.33 82.28 8.30L82.28 8.30L82.28 8.30Q82.28 8.93 82.13 9.57L82.13 9.57L82.13 9.57Q81.99 10.21 81.69 10.80L81.69 10.80L81.69 10.80Q81.40 11.40 80.94 11.92L80.94 11.92L80.94 11.92Q80.49 12.43 79.87 12.82L79.87 12.82L79.87 12.82Q79.26 13.20 78.47 13.42L78.47 13.42L78.47 13.42Q77.68 13.64 76.71 13.64L76.71 13.64L73.55 13.64ZM74.89 4.69L74.89 12.58L76.96 12.58L76.96 12.58Q77.95 12.58 78.69 12.27L78.69 12.27L78.69 12.27Q79.43 11.95 79.91 11.41L79.91 11.41L79.91 11.41Q80.39 10.86 80.63 10.13L80.63 10.13L80.63 10.13Q80.87 9.41 80.87 8.58L80.87 8.58L80.87 8.58Q80.87 7.68 80.59 6.96L80.59 6.96L80.59 6.96Q80.32 6.23 79.79 5.73L79.79 5.73L79.79 5.73Q79.26 5.23 78.48 4.96L78.48 4.96L78.48 4.96Q77.70 4.69 76.71 4.69L76.71 4.69L74.89 4.69Z"></path></g><!----><!----></svg>