<svg xmlns="http://www.w3.org/2000/svg" xmlns:xlink="http://www.w3.org/1999/xlink" width="1452" height="1399" viewBox="0 0 1452 1399">
  <defs>
    <clipPath id="clip-path">
      <path id="Path_752" data-name="Path 752" d="M776.06,720.916l-1.91,11.891,1.91,2.79s6.312,26.131,8.661,29.948,12.039-.587,10.864-18.2l-4.551-10.571,4.649-1.614V723.265s-12.526-3.622-14.875-3.915a4.05,4.05,0,0,0-.515-.032,8.066,8.066,0,0,0-4.233,1.6" fill="none"/>
    </clipPath>
    <linearGradient id="linear-gradient" x1="-25.545" y1="12.888" x2="-25.5" y2="12.861" gradientUnits="objectBoundingBox">
      <stop offset="0" stop-color="#00afff"/>
      <stop offset="1" stop-color="#0057ff"/>
    </linearGradient>
    <clipPath id="clip-path-2">
      <path id="Path_753" data-name="Path 753" d="M626.608,634.646s21.224,50.5,38.153,81.95c6.479,12.037,12.329,21.287,16.121,23.845a12.42,12.42,0,0,0,2.1,1.127c8.426,3.576,23.956.611,42.528-2.353,15.518-2.478,33.159-4.955,50.552-3.617,0,0,8.564-3.82,2.692-14.782,0,0-43.358-13.7-55.689-13.993-10.2-.243-14.408-8.324-17.206-23.4-.583-3.151-1.107-6.608-1.611-10.361a338.745,338.745,0,0,1-2.617-43.407Z" fill="none"/>
    </clipPath>
    <linearGradient id="linear-gradient-2" x1="-3.128" y1="4.495" x2="-3.123" y2="4.495" gradientUnits="objectBoundingBox">
      <stop offset="0" stop-color="#2f5b9b"/>
      <stop offset="1" stop-color="#18386b"/>
    </linearGradient>
    <clipPath id="clip-path-3">
      <rect id="Rectangle_108" data-name="Rectangle 108" width="1451.5" height="1398.5" transform="translate(-40.538 37.123)" fill="none"/>
    </clipPath>
    <clipPath id="clip-path-4">
      <path id="Path_755" data-name="Path 755" d="M809.092,384.33c-3.034,1.468-10.081,14.779-12.92,20.162s-2.349-.881-2.349-4.111-2.055-4.012-3.572-3.621-2.447,12.332-.686,18.645,1.321,9.739,1.321,9.739a73.978,73.978,0,0,1,9.1,3.023c1.44-3.546,4.991-4.688,8.711-5.96s5.71-8.656,12.039-10.766c6.752-2.251,6.361-4.7,4.207-4.893a19.05,19.05,0,0,0-4.94,1.134c-2.636.8-5.267,1.6-5.433.823-.295-1.37,1.467-2.936,5.48-6.068s7.634-6.264,6.362-7.928-4.208.294-8.514,3.914-7.719,7.091-6.154,3.372,10.067-11.2,9.97-14.333-3.327-1.566-7.047,2.447-8.76,11.206-9.542,9.935,1.418-5.433,3.964-9.641c2.11-3.49,2.806-6.24,1.252-6.24a3.047,3.047,0,0,0-1.252.367" fill="none"/>
    </clipPath>
    <linearGradient id="linear-gradient-3" x1="-15.284" y1="18.908" x2="-15.265" y2="18.908" gradientUnits="objectBoundingBox">
      <stop offset="0" stop-color="#f9c0ca"/>
      <stop offset="1" stop-color="#fc99ba"/>
    </linearGradient>
    <clipPath id="clip-path-5">
      <path id="Path_756" data-name="Path 756" d="M579.335,834.546c-18.938-1.272-16.786,5.138-16.786,10.864,0,0,15.611,5.872,25.888,4.551l8.661-5.285.587,5.493s11.158,2.141,12.92-2.556,1.909-23.637,1.909-23.637l-18.646-2.789s-4.851,14.01-14.533,13.359" fill="none"/>
    </clipPath>
    <linearGradient id="linear-gradient-4" x1="-9.901" y1="15.139" x2="-9.878" y2="15.109" xlink:href="#linear-gradient"/>
    <clipPath id="clip-path-6">
      <path id="Path_757" data-name="Path 757" d="M790.006,423.969c-1.859.293-2.153,4.2-2.153,4.2l12.723,4.219s1.469-3.426.881-4.6c-.559-1.119-8.761-3.837-11.142-3.837a2,2,0,0,0-.309.02" fill="none"/>
    </clipPath>
    <linearGradient id="linear-gradient-5" x1="-56.818" y1="59.832" x2="-56.745" y2="59.832" gradientUnits="objectBoundingBox">
      <stop offset="0" stop-color="#fff3f2"/>
      <stop offset="1" stop-color="#d5eaff"/>
    </linearGradient>
    <clipPath id="clip-path-7">
      <path id="Path_758" data-name="Path 758" d="M657.162,634.646s-11.91,15.067-32.61,64.4S591.519,821.48,591.519,821.48s7.537,9.738,22.022,4.453c0,0,14.158-59.067,59.49-107.513s60.307-60.963,58.1-83.774c-23.782-5.634-33.271-10.918-33.271-10.918Z" fill="none"/>
    </clipPath>
    <linearGradient id="linear-gradient-6" x1="-3.624" y1="3.553" x2="-3.618" y2="3.553" xlink:href="#linear-gradient-2"/>
    <clipPath id="clip-path-8">
      <path id="Path_759" data-name="Path 759" d="M636.907,557.906,624.7,617.268s18.314,20.554,73.166,0c11.4-76.928,6.38-102.179,6.38-102.179l-7.816-4.752-9.409-.008L670.8,500.554Z" fill="none"/>
    </clipPath>
    <radialGradient id="radial-gradient" cx="0.625" cy="0.557" r="0.624" gradientTransform="matrix(0, -1, 0.655, 0, -10.318, 5.199)" xlink:href="#linear-gradient-5"/>
    <clipPath id="clip-path-9">
      <path id="Path_760" data-name="Path 760" d="M673.031,621.856h0a65.551,65.551,0,0,1-23.8.218,52.192,52.192,0,0,1-17.087-6.371l1.309,18.943a77.42,77.42,0,0,0,14.134,2.426,93.2,93.2,0,0,0,25.448-1.179l0,0a79.3,79.3,0,0,0,22.92-8.049l-.979-13.311a80.672,80.672,0,0,1-21.941,7.327" fill="none"/>
    </clipPath>
    <linearGradient id="linear-gradient-7" x1="-27.349" y1="12.593" x2="-27.307" y2="12.593" xlink:href="#linear-gradient"/>
    <clipPath id="clip-path-10">
      <path id="Path_761" data-name="Path 761" d="M673.027,621.856a66.4,66.4,0,0,1-22.148.5,1.963,1.963,0,0,0-2.2,1.432,46.78,46.78,0,0,0-1.143,11.485,1.962,1.962,0,0,0,1.829,1.938,92.825,92.825,0,0,0,23.663-1.321l0,0V621.856Z" fill="none"/>
    </clipPath>
    <linearGradient id="linear-gradient-8" x1="-22.647" y1="26.336" x2="-22.612" y2="26.336" gradientUnits="objectBoundingBox">
      <stop offset="0" stop-color="#6e7ee4"/>
      <stop offset="1" stop-color="#4c30c0"/>
    </linearGradient>
    <clipPath id="clip-path-11">
      <path id="Path_762" data-name="Path 762" d="M696.431,510.329l0,.008c-.206.671-18.985,61.667-3.231,124.3a177.5,177.5,0,0,0,7.988,24.322s34.355-6.166,52.412-50.647c0,0-27.306-10.133-23.785-70.029,0,0,44.485-23.345,72.675-105.7,0,0-5.533-5.474-15.711-5.919,0,0-42.98,66.572-90.345,83.665" fill="none"/>
    </clipPath>
    <linearGradient id="linear-gradient-9" x1="-2.492" y1="5.998" x2="-2.488" y2="5.998" xlink:href="#linear-gradient-8"/>
    <clipPath id="clip-path-12">
      <path id="Path_763" data-name="Path 763" d="M696.2,336.375c-2.423,2.008-9.47,14.213-11.232,15.829s-1.322-4.332-.073-9.837-.514-7.34-2.447-4.991-3.132,13.653-4.233,16.369-2.35-.147-2.863-3.523-.955-7.488-2.936-6.753-1.762,4.918-1.028,9.615.367,7.708-1.248,11.012-1.443,8.979-1.443,8.979l11.793,5.26s2.056-3.744,8.588-4.55a53.109,53.109,0,0,1,6.774-.205c4.842.057,9.03.113,7.981-2.585-1.542-3.964-11.6-1.542-12.112-5.285s8.3-11.819,12.553-17.177,1.615-6.9-1.836-4.33-10.35,11.891-11.083,9.688,4.036-8,7.267-12.7c2.405-3.5,1.227-5.574-.532-5.574a3.013,3.013,0,0,0-1.89.756" fill="none"/>
    </clipPath>
    <linearGradient id="linear-gradient-10" x1="-14.305" y1="24.523" x2="-14.283" y2="24.523" xlink:href="#linear-gradient-3"/>
    <clipPath id="clip-path-14">
      <path id="Path_765" data-name="Path 765" d="M666.392,371.509c-1.566.979-3.034,3.915-3.034,3.915l16.541,8.808a59.893,59.893,0,0,0,2.545-6.166c.091-.821-12.565-6.655-15.559-6.655a.959.959,0,0,0-.493.1" fill="none"/>
    </clipPath>
    <linearGradient id="linear-gradient-11" x1="-30.579" y1="44.861" x2="-30.532" y2="44.861" xlink:href="#linear-gradient-5"/>
    <clipPath id="clip-path-15">
      <path id="Path_766" data-name="Path 766" d="M673.733,572.932c7.148,35.821,70.964,39.638,70.964,39.638s19.177-6.46,24.463-16.736c0,0-13.677-9.983-17.787-19.967,0,0-46.809-1.272-60.121-12.356s-9.25-40.4-9.25-40.4l-3.348-1.908s-10.7,22.752-4.921,51.726" fill="none"/>
    </clipPath>
    <linearGradient id="linear-gradient-12" x1="-4.815" y1="6.606" x2="-4.807" y2="6.606" xlink:href="#linear-gradient"/>
    <clipPath id="clip-path-16">
      <path id="Path_767" data-name="Path 767" d="M676.963,517.926c.784,6.362,3.621,5.972,5.039,5.188s2.791-5.188,2.791-5.188l-.4-3.285-2.931-.825a12.457,12.457,0,0,0-4.5,4.11" fill="none"/>
    </clipPath>
    <linearGradient id="linear-gradient-13" x1="-57.947" y1="93.671" x2="-57.86" y2="93.671" xlink:href="#linear-gradient"/>
    <clipPath id="clip-path-17">
      <path id="Path_768" data-name="Path 768" d="M641.729,528.057l24.663-27.5,5.822-21.287c-22.348-37.988,10.23-95.3,10.23-95.3-7.047-7.219-20.75-9.812-20.75-9.812-60.485,112.163-19.965,153.906-19.965,153.906" fill="none"/>
    </clipPath>
    <linearGradient id="linear-gradient-14" x1="-3.318" y1="6.263" x2="-3.312" y2="6.263" xlink:href="#linear-gradient-8"/>
    <clipPath id="clip-path-18">
      <path id="Path_769" data-name="Path 769" d="M629.4,549.3c-9.25,37.437-15.415,87.2-15.415,87.2s8.368,20.258,25.1,26.424c0,0-4.169-15.271-3.81-37.431v-.007A154.23,154.23,0,0,1,644,576.162c16.222-45.365,31.3-70.324,31.3-70.324l4.573-.835,2.123-.388.513-5.384-8.487-14.874s-35.383,27.5-44.631,64.939" fill="none"/>
    </clipPath>
    <linearGradient id="linear-gradient-15" x1="-2.891" y1="7.3" x2="-2.886" y2="7.3" xlink:href="#linear-gradient-8"/>
    <clipPath id="clip-path-20">
      <path id="Path_771" data-name="Path 771" d="M689.076,493.715l-8,2.018-1.463,7.149-.154.754-.733,6.755,4.991,4.7,11.6-7.632,1.865-9.544.631-3.23-3.9-1.487-1.1-.422Z" fill="none"/>
    </clipPath>
    <linearGradient id="linear-gradient-16" x1="-35.448" y1="40.501" x2="-35.396" y2="40.501" xlink:href="#linear-gradient-3"/>
    <clipPath id="clip-path-22">
      <path id="Path_773" data-name="Path 773" d="M673.293,468.991c-1.909,9.982-8.075,19.819-8.075,24.223s18.938,6.211,27.747,2.518c0,0,6.313,3.5,11.158-1.638s4.7-6.606,4.7-6.606l-6.753-16.3L679.459,457.54s-4.258,1.467-6.166,11.451" fill="none"/>
    </clipPath>
    <linearGradient id="linear-gradient-17" x1="-15.184" y1="22.445" x2="-15.161" y2="22.445" xlink:href="#linear-gradient-3"/>
    <clipPath id="clip-path-23">
      <path id="Path_774" data-name="Path 774" d="M675.593,450.688c2.936,20.75,23.489,20.75,23.489,20.75s.783,3.327-2.153,8.417a57.654,57.654,0,0,0-4.5,9.982c1.143.255,2.814-.771,4.581-1.8,2.323-1.347,4.812-2.7,6.48-1.139,2.936,2.74.636,7.192.636,7.192,9.542,4.7,14.093-1.614,13.36-7.584-.555-4.506-7.244-10.179-4.307-13.116s5.676-12.527,0-15.143-10.374-3.844-9.4-9.129,5.286-15.464-2.74-20.749a11.882,11.882,0,0,0-6.512-1.709c-9.173,0-21.242,7.724-18.935,24.024" fill="none"/>
    </clipPath>
    <linearGradient id="linear-gradient-18" x1="-14.755" y1="13.461" x2="-14.733" y2="13.461" xlink:href="#linear-gradient-2"/>
    <clipPath id="clip-path-24">
      <path id="Path_775" data-name="Path 775" d="M675.306,503.931v16.3l6.7-5.138v-3.157l-2.866-10.223Z" fill="none"/>
    </clipPath>
    <linearGradient id="linear-gradient-19" x1="-99.948" y1="48.129" x2="-99.799" y2="48.129" xlink:href="#linear-gradient-2"/>
    <clipPath id="clip-path-25">
      <path id="Path_776" data-name="Path 776" d="M682,511.932v3.157l2.742,6.117s6.807-8.767,13.12-11.409c0,0-.774-3.253-2.1-4.633-2.5.382-13.76,6.768-13.76,6.768" fill="none"/>
    </clipPath>
    <linearGradient id="linear-gradient-20" x1="-42.835" y1="55.542" x2="-42.772" y2="55.542" xlink:href="#linear-gradient-2"/>
  </defs>
  <g id="Group_321" data-name="Group 321" transform="translate(40.552 -37.136)">
    <g id="Group_197" data-name="Group 197">
      <g id="Group_196" data-name="Group 196" clip-path="url(#clip-path)">
        <rect id="Rectangle_106" data-name="Rectangle 106" width="30.25" height="52.994" transform="translate(766.325 720.573) rotate(-9.111)" fill="url(#linear-gradient)"/>
      </g>
    </g>
    <g id="Group_199" data-name="Group 199">
      <g id="Group_198" data-name="Group 198" clip-path="url(#clip-path-2)">
        <rect id="Rectangle_107" data-name="Rectangle 107" width="194.281" height="177.916" transform="translate(577.415 657.152) rotate(-29.208)" fill="url(#linear-gradient-2)"/>
      </g>
    </g>
    <g id="Group_201" data-name="Group 201">
      <g id="Group_200" data-name="Group 200" clip-path="url(#clip-path-3)">
        <path id="Path_754" data-name="Path 754" d="M664.761,716.6c6.478,12.038,12.328,21.287,16.12,23.846a12.617,12.617,0,0,0,2.1,1.127c3.49-24.955,22.876-58.149,22.876-58.149L672.02,699.482Z" fill="#112e59"/>
      </g>
    </g>
    <g id="Group_203" data-name="Group 203">
      <g id="Group_202" data-name="Group 202" clip-path="url(#clip-path-4)">
        <rect id="Rectangle_109" data-name="Rectangle 109" width="51.132" height="53.989" transform="translate(775.364 387.796) rotate(-17.126)" fill="url(#linear-gradient-3)"/>
      </g>
    </g>
    <g id="Group_205" data-name="Group 205">
      <g id="Group_204" data-name="Group 204" clip-path="url(#clip-path-5)">
        <rect id="Rectangle_110" data-name="Rectangle 110" width="56.211" height="38.619" transform="translate(555.762 821.893) rotate(-8.664)" fill="url(#linear-gradient-4)"/>
      </g>
    </g>
    <g id="Group_207" data-name="Group 207">
      <g id="Group_206" data-name="Group 206" clip-path="url(#clip-path-6)">
        <rect id="Rectangle_111" data-name="Rectangle 111" width="13.671" height="16.433" transform="translate(784.605 430.86) rotate(-64.832)" fill="url(#linear-gradient-5)"/>
      </g>
    </g>
    <g id="Group_209" data-name="Group 209">
      <g id="Group_208" data-name="Group 208" clip-path="url(#clip-path-7)">
        <rect id="Rectangle_112" data-name="Rectangle 112" width="160.716" height="219.915" transform="translate(572.079 625.566) rotate(-5.4)" fill="url(#linear-gradient-6)"/>
      </g>
    </g>
    <g id="Group_211" data-name="Group 211">
      <g id="Group_210" data-name="Group 210" clip-path="url(#clip-path-8)">
        <rect id="Rectangle_113" data-name="Rectangle 113" width="142.513" height="93.375" transform="translate(615.724 637.233) rotate(-86.244)" fill="url(#radial-gradient)"/>
      </g>
    </g>
    <g id="Group_213" data-name="Group 213">
      <g id="Group_212" data-name="Group 212" clip-path="url(#clip-path-9)">
        <rect id="Rectangle_114" data-name="Rectangle 114" width="23.781" height="64.025" transform="translate(631.923 637.724) rotate(-89.474)" fill="url(#linear-gradient-7)"/>
      </g>
    </g>
    <g id="Group_215" data-name="Group 215">
      <g id="Group_214" data-name="Group 214" clip-path="url(#clip-path-10)">
        <rect id="Rectangle_115" data-name="Rectangle 115" width="28.413" height="29.769" transform="matrix(0.634, -0.774, 0.774, 0.634, 639.752, 631.323)" fill="url(#linear-gradient-8)"/>
      </g>
    </g>
    <g id="Group_217" data-name="Group 217">
      <g id="Group_216" data-name="Group 216" clip-path="url(#clip-path-11)">
        <rect id="Rectangle_116" data-name="Rectangle 116" width="247.227" height="155.666" transform="matrix(0.137, -0.991, 0.991, 0.137, 645.943, 654.608)" fill="url(#linear-gradient-9)"/>
      </g>
    </g>
    <g id="Group_219" data-name="Group 219">
      <g id="Group_218" data-name="Group 218" clip-path="url(#clip-path-12)">
        <rect id="Rectangle_117" data-name="Rectangle 117" width="46.431" height="43.409" transform="translate(664.995 378.046) rotate(-85.314)" fill="url(#linear-gradient-10)"/>
      </g>
    </g>
    <g id="Group_221" data-name="Group 221">
      <g id="Group_220" data-name="Group 220" clip-path="url(#clip-path-3)">
        <path id="Path_764" data-name="Path 764" d="M693.2,634.64l.007.007c-4.9-63.513,15.617-81.241,15.617-81.241a13.068,13.068,0,0,1-11.01-7.927c4.111-.442,8.807-6.166,8.807-6.166-8.807-6.9-10.188-28.983-10.188-28.983l0,.007c-.206.671-18.984,61.667-3.23,124.3" fill="#7185ea"/>
      </g>
    </g>
    <g id="Group_223" data-name="Group 223">
      <g id="Group_222" data-name="Group 222" clip-path="url(#clip-path-14)">
        <rect id="Rectangle_119" data-name="Rectangle 119" width="21.305" height="23.068" transform="translate(657.44 380.287) rotate(-56.31)" fill="url(#linear-gradient-11)"/>
      </g>
    </g>
    <g id="Group_225" data-name="Group 225">
      <g id="Group_224" data-name="Group 224" clip-path="url(#clip-path-15)">
        <rect id="Rectangle_120" data-name="Rectangle 120" width="134.944" height="136.23" transform="matrix(0.639, -0.769, 0.769, 0.639, 623.048, 575.293)" fill="url(#linear-gradient-12)"/>
      </g>
    </g>
    <g id="Group_227" data-name="Group 227">
      <g id="Group_226" data-name="Group 226" clip-path="url(#clip-path-16)">
        <rect id="Rectangle_121" data-name="Rectangle 121" width="11.571" height="9.377" transform="translate(675.339 524.03) rotate(-80.969)" fill="url(#linear-gradient-13)"/>
      </g>
    </g>
    <g id="Group_229" data-name="Group 229">
      <g id="Group_228" data-name="Group 228" clip-path="url(#clip-path-17)">
        <rect id="Rectangle_122" data-name="Rectangle 122" width="167.929" height="164.417" transform="translate(524.435 456.36) rotate(-46.958)" fill="url(#linear-gradient-14)"/>
      </g>
    </g>
    <g id="Group_231" data-name="Group 231">
      <g id="Group_230" data-name="Group 230" clip-path="url(#clip-path-18)">
        <rect id="Rectangle_123" data-name="Rectangle 123" width="191.066" height="121.322" transform="translate(560.568 645.185) rotate(-71.628)" fill="url(#linear-gradient-15)"/>
      </g>
    </g>
    <g id="Group_233" data-name="Group 233">
      <g id="Group_232" data-name="Group 232" clip-path="url(#clip-path-3)">
        <path id="Path_770" data-name="Path 770" d="M635.277,625.486A154.23,154.23,0,0,1,644,576.162c16.222-45.365,31.3-70.323,31.3-70.323l4.574-.836a12.344,12.344,0,0,0,1-4.45l-29.313,19.454,1.466,13.287s-8.659,2.641-12.918,1.908c0,0-10.9,65.62-4.837,90.284" fill="#7185ea"/>
      </g>
    </g>
    <g id="Group_235" data-name="Group 235">
      <g id="Group_234" data-name="Group 234" clip-path="url(#clip-path-20)">
        <rect id="Rectangle_125" data-name="Rectangle 125" width="19.087" height="22.315" transform="translate(678.724 492.773)" fill="url(#linear-gradient-16)"/>
      </g>
    </g>
    <g id="Group_237" data-name="Group 237">
      <g id="Group_236" data-name="Group 236" clip-path="url(#clip-path-3)">
        <path id="Path_772" data-name="Path 772" d="M679.611,502.882l17.569-4.97.631-3.231-3.895-1.487-4.84.521-8,2.018Z" fill="#f28bb2"/>
      </g>
    </g>
    <g id="Group_239" data-name="Group 239">
      <g id="Group_238" data-name="Group 238" clip-path="url(#clip-path-22)">
        <rect id="Rectangle_127" data-name="Rectangle 127" width="43.749" height="41.885" transform="translate(665.218 457.54)" fill="url(#linear-gradient-17)"/>
      </g>
    </g>
    <g id="Group_241" data-name="Group 241">
      <g id="Group_240" data-name="Group 240" clip-path="url(#clip-path-23)">
        <rect id="Rectangle_128" data-name="Rectangle 128" width="45.566" height="72.129" transform="translate(673.286 426.664)" fill="url(#linear-gradient-18)"/>
      </g>
    </g>
    <g id="Group_243" data-name="Group 243">
      <g id="Group_242" data-name="Group 242" clip-path="url(#clip-path-24)">
        <rect id="Rectangle_129" data-name="Rectangle 129" width="6.696" height="18.518" transform="translate(675.306 501.709)" fill="url(#linear-gradient-19)"/>
      </g>
    </g>
    <g id="Group_245" data-name="Group 245">
      <g id="Group_244" data-name="Group 244" clip-path="url(#clip-path-25)">
        <rect id="Rectangle_130" data-name="Rectangle 130" width="15.862" height="16.042" transform="translate(682.002 505.164)" fill="url(#linear-gradient-20)"/>
      </g>
    </g>
  </g>
</svg>
