<svg xmlns="http://www.w3.org/2000/svg" xmlns:xlink="http://www.w3.org/1999/xlink" width="1452" height="1399" viewBox="0 0 1452 1399">
  <defs>
    <clipPath id="clip-path">
      <path id="Path_777" data-name="Path 777" d="M855.914,607.026c-13.726,3.083-20.186,5.138-19.818,12.918,0,0,20.479,2.276,25.324,0s8.735-4.257,8.735-4.257l2.422,4.624s13.874,1.175,14.02-1.688-.807-15.414.735-19.085c-7.855-1.981-15.342-3.6-15.342-3.6s-2.349,8-16.076,11.085" fill="none"/>
    </clipPath>
    <linearGradient id="linear-gradient" x1="-14.371" y1="16.824" x2="-14.35" y2="16.816" gradientUnits="objectBoundingBox">
      <stop offset="0" stop-color="#0076dd"/>
      <stop offset="1" stop-color="#0076dd"/>
    </linearGradient>
    <clipPath id="clip-path-2">
      <path id="Path_778" data-name="Path 778" d="M1010.636,515.343c-2.284,7.1-4.633,15.611-4.633,15.611l.685,2.446s2.838,11.256,2.838,20.065,3.426,18.694,9,14.779c1.269-3.1,2.48-6.413,3.661-9.887,2.577-7.581,4.463-14.67,4.463-15.854,0-1.664-2.251-8.613-2.251-8.613l4.992-.49s2.446-14.778,0-17.03a26.219,26.219,0,0,0-11.178-2.771,16.39,16.39,0,0,0-7.581,1.744" fill="none"/>
    </clipPath>
    <linearGradient id="linear-gradient-2" x1="-29.748" y1="14.421" x2="-29.719" y2="14.421" xlink:href="#linear-gradient"/>
    <clipPath id="clip-path-3">
      <path id="Path_779" data-name="Path 779" d="M900.471,413.357s-6.533,48.107,7.267,76.882,37.583,27.306,61.953,33.178,37,9.983,37,9.983a21.349,21.349,0,0,0,3.948-18.057s-19.7-12.186-34.387-18.45-28.187-14.876-27.8-20.553-11.94-62.983-11.94-62.983Z" fill="none"/>
    </clipPath>
    <linearGradient id="linear-gradient-3" x1="-5.537" y1="6.341" x2="-5.531" y2="6.341" gradientUnits="objectBoundingBox">
      <stop offset="0" stop-color="#2f5b9b"/>
      <stop offset="1" stop-color="#18386b"/>
    </linearGradient>
    <clipPath id="clip-path-4">
      <path id="Path_780" data-name="Path 780" d="M928.687,418.008s-29.17,59.9-41.355,99.243-17.177,79.278-17.177,79.278,12.136,6.264,18.4,4.11c0,0,25.209-65.917,49.8-90.728s46.609-55.494,46.9-72.818c-24.292-14.481-42.325-20.156-51.4-20.156a9.939,9.939,0,0,0-5.171,1.071" fill="none"/>
    </clipPath>
    <linearGradient id="linear-gradient-4" x1="-3.821" y1="5.618" x2="-3.815" y2="5.612" xlink:href="#linear-gradient-3"/>
    <clipPath id="clip-path-5">
      <path id="Path_781" data-name="Path 781" d="M817.01,279.022c-2.788-1.541-7.012,0-7.012,0a20.048,20.048,0,0,0-1.052,3.508c-.562,2.754-.706,6.495,1.751,8.783a19.661,19.661,0,0,1,5.433,8.66l10.938-3.6a7.27,7.27,0,0,1,1.465-6.752,14.289,14.289,0,0,0,1.217-1.757l0-.01c1.724-2.963,1.932-6.125-1.22-7.776-1.541-.808-2.568-3.6-2.568-3.6Z" fill="none"/>
    </clipPath>
    <linearGradient id="linear-gradient-5" x1="-25.887" y1="36.32" x2="-25.854" y2="36.32" gradientUnits="objectBoundingBox">
      <stop offset="0" stop-color="#f9c0ca"/>
      <stop offset="1" stop-color="#fc99ba"/>
    </linearGradient>
    <clipPath id="clip-path-6">
      <path id="Path_782" data-name="Path 782" d="M815.542,299.337c-.391,1.028.832,4.453.832,4.453L829,300.022s-.342-4.257-1.859-4.8a1.308,1.308,0,0,0-.422-.055c-2.381,0-10.811,3.208-11.176,4.165" fill="none"/>
    </clipPath>
    <linearGradient id="linear-gradient-6" x1="-58.864" y1="127.687" x2="-58.792" y2="127.687" gradientUnits="objectBoundingBox">
      <stop offset="0" stop-color="#fff3f2"/>
      <stop offset="1" stop-color="#d5eaff"/>
    </linearGradient>
    <clipPath id="clip-path-7">
      <rect id="Rectangle_137" data-name="Rectangle 137" width="1451.5" height="1398.5" transform="translate(0 39.419)" fill="none"/>
    </clipPath>
    <clipPath id="clip-path-8">
      <path id="Path_784" data-name="Path 784" d="M810.22,275.713c-1.725,2.019.623,4.295.991,6.24s1.872,1.761,2.789,1.505,1.578-1.837,1.1-4.113A23.917,23.917,0,0,0,814,274.5a3,3,0,0,0-1.008-.16,3.569,3.569,0,0,0-2.772,1.371" fill="none"/>
    </clipPath>
    <linearGradient id="linear-gradient-7" x1="-77.857" y1="97.322" x2="-77.76" y2="97.322" xlink:href="#linear-gradient-5"/>
    <clipPath id="clip-path-9">
      <path id="Path_785" data-name="Path 785" d="M813.634,273.144c-.992,1.615.807,3.964.916,5.579s1.143,2.714,2.973,2.129a2.823,2.823,0,0,0,2.2-3.157,30.2,30.2,0,0,0-1.241-5.028,1.956,1.956,0,0,0-1.873-1.265,3.8,3.8,0,0,0-2.972,1.742" fill="none"/>
    </clipPath>
    <linearGradient id="linear-gradient-8" x1="-80.527" y1="96.393" x2="-80.428" y2="96.393" xlink:href="#linear-gradient-5"/>
    <clipPath id="clip-path-10">
      <path id="Path_786" data-name="Path 786" d="M819.433,270.061c-1.542.743-1.579,3.6-.845,5.395s-.343,4.037,1.132,4.4a2.377,2.377,0,0,0,2.942-2.055c.184-1.431.662-3.376.662-3.376l-.918-3.854a1.987,1.987,0,0,0-1.652-.852,3.034,3.034,0,0,0-1.321.338" fill="none"/>
    </clipPath>
    <linearGradient id="linear-gradient-9" x1="-76.593" y1="197.455" x2="-76.499" y2="197.455" xlink:href="#linear-gradient-5"/>
    <clipPath id="clip-path-11">
      <path id="Path_787" data-name="Path 787" d="M823.689,267.933c-1.9.269-2.128,1.944-1.541,4.624s-.316,5.578.631,6.056,3.443,1.358,3.885-3.01c.414-4.116.4-7.711-2.425-7.711a3.845,3.845,0,0,0-.55.041" fill="none"/>
    </clipPath>
    <linearGradient id="linear-gradient-10" x1="-64.915" y1="168.119" x2="-64.836" y2="168.119" xlink:href="#linear-gradient-5"/>
    <clipPath id="clip-path-12">
      <path id="Path_788" data-name="Path 788" d="M910.479,316.778l-17.714.739-5.433,21.605,7.048,51.58s-1.516,10.247.175,18.94a11.1,11.1,0,0,0,7.88,8.548c9.343,2.653,28.468,6.463,41.662-1.8-3.473-29.117-11.3-102.913-11.3-102.913Z" fill="none"/>
    </clipPath>
    <radialGradient id="radial-gradient" cx="0.458" cy="0.472" r="0.44" gradientTransform="matrix(-1.772, 0, 0, -1, -37.671, 18.869)" xlink:href="#linear-gradient-6"/>
    <clipPath id="clip-path-13">
      <path id="Path_789" data-name="Path 789" d="M814.76,303.351s-.786,10.519,4.5,40.859,20.8,28.727,34.6,24.911c12.746-3.525,24.87-3.545,30.809-3.99.49-.038.938-.076,1.342-.121.638.538,1.782,3.58,3.023,7.4,2.48,7.612,5.347,18.3,5.347,18.3,2.151-17.032,5.138-73.183,5.138-73.183l-1.175-1.066-.562-.51-2.226-2.021a31.867,31.867,0,0,0-8.989,1.517,72.891,72.891,0,0,0-17.586,7.437c-8.222,5.138-21.14,15.709-25.837,12.257s-12.331-35.941-12.331-35.941a16.8,16.8,0,0,0-1.694-.084c-7.135,0-14.358,4.243-14.358,4.243" fill="none"/>
    </clipPath>
    <linearGradient id="linear-gradient-11" x1="-9.505" y1="12.004" x2="-9.513" y2="11.991" xlink:href="#linear-gradient-3"/>
    <clipPath id="clip-path-14">
      <path id="Path_790" data-name="Path 790" d="M886.566,315.439c-1.662,4.33-5.516,14.867-6.426,21.725-.727,5.443,2.192,18.663,4.528,27.967.49-.038.938-.076,1.342-.121.638.538,1.782,3.58,3.023,7.4l6.179-9.937,3.131-46.016-.562-.51-2.226-2.021c-.164-.01-.337-.015-.52-.015a35.342,35.342,0,0,0-8.469,1.532" fill="none"/>
    </clipPath>
    <linearGradient id="linear-gradient-12" x1="-14.157" y1="39.684" x2="-14.14" y2="39.684" gradientUnits="objectBoundingBox">
      <stop offset="0" stop-color="#0076dd"/>
      <stop offset="1" stop-color="#00cde9"/>
    </linearGradient>
    <clipPath id="clip-path-16">
      <path id="Path_792" data-name="Path 792" d="M916.351,303.826l.767,8.87,1.432,1.116,4.752,3.707s2.712,5.853-3.82,23.266-6.9,37.486,6.532,62.739a93.353,93.353,0,0,0,16.279,21.985c14.507,14.552,34.218,24.592,56.467,24.014,0,0,20.629-20.16,20.591-47.763s-6.3-33.471-6.3-33.471-10.475,11.157-35.872,4.5-22.267-48.153-22.267-54.415-1.955-9.4-9.786-10.181-23.489-4.368-23.489-4.368Z" fill="none"/>
    </clipPath>
    <linearGradient id="linear-gradient-13" x1="-6.139" y1="6.46" x2="-6.132" y2="6.46" xlink:href="#linear-gradient-12"/>
    <clipPath id="clip-path-18">
      <path id="Path_794" data-name="Path 794" d="M818.124,279.567c-.038,2.692,3.6,2.789,6.236,2.2s6.225-.127,6.632,1.845c0,0,1.453-4.292,0-6.543-.436-.674-1.762-.962-3.407-.962-3.846,0-9.434,1.573-9.461,3.458" fill="none"/>
    </clipPath>
    <linearGradient id="linear-gradient-14" x1="-103.714" y1="77.424" x2="-103.586" y2="77.424" xlink:href="#linear-gradient-5"/>
    <clipPath id="clip-path-19">
      <path id="Path_795" data-name="Path 795" d="M1001.78,408.8l-26.651,10.047a4.873,4.873,0,0,0-2.848,6.221l4.631,12.625,4.575-1.678-4.631-12.624,26.643-10.031,4.862,12.264,4.529-1.8-4.879-12.271a4.889,4.889,0,0,0-4.536-3.061,4.794,4.794,0,0,0-1.695.309" fill="none"/>
    </clipPath>
    <linearGradient id="linear-gradient-15" x1="-19.547" y1="23.478" x2="-19.527" y2="23.478" gradientUnits="objectBoundingBox">
      <stop offset="0" stop-color="#00afff"/>
      <stop offset="1" stop-color="#0057ff"/>
    </linearGradient>
    <clipPath id="clip-path-20">
      <path id="Path_796" data-name="Path 796" d="M1013.871,421.752l-42.113,16.922a20.785,20.785,0,0,0-11.536,27.037l5.737,14.279A20.787,20.787,0,0,0,993,491.526l42.112-16.923a20.786,20.786,0,0,0,11.537-27.037l-5.737-14.277a20.765,20.765,0,0,0-27.037-11.537" fill="none"/>
    </clipPath>
    <linearGradient id="linear-gradient-16" x1="-8.167" y1="9.466" x2="-8.158" y2="9.466" gradientUnits="objectBoundingBox">
      <stop offset="0" stop-color="#0095ff"/>
      <stop offset="1" stop-color="#0057ff"/>
    </linearGradient>
    <clipPath id="clip-path-21">
      <path id="Path_797" data-name="Path 797" d="M1022.4,418.325,963.231,442.1a11.6,11.6,0,0,0-6.437,15.084l1.881,4.67a11.858,11.858,0,0,0,15.422,6.573l58.688-23.584a11.846,11.846,0,0,0,6.574-15.408l-1.878-4.674a11.587,11.587,0,0,0-15.084-6.437" fill="none"/>
    </clipPath>
    <linearGradient id="linear-gradient-17" x1="-9.403" y1="11.975" x2="-9.391" y2="11.972" gradientUnits="objectBoundingBox">
      <stop offset="0" stop-color="#88e9ff"/>
      <stop offset="1" stop-color="#34b0ea"/>
    </linearGradient>
    <clipPath id="clip-path-23">
      <path id="Path_799" data-name="Path 799" d="M981.509,406.851c-2.494,2.495-6.31,5.975-5.283,8.765s4.956.525,4.956.525.4,11.043,3.044,11.262a3.648,3.648,0,0,0,3.6-1.466s4.4.513,4.771-1.909c0,0,3.744-.074,3.6-2.276,0,0,3.009,1.1,3.6-3.671s.22-6.312-1.175-9.762a15.126,15.126,0,0,1-.66-7.414L984.96,399.29s-.954,5.065-3.451,7.561" fill="none"/>
    </clipPath>
    <linearGradient id="linear-gradient-18" x1="-26.438" y1="28.319" x2="-26.411" y2="28.319" xlink:href="#linear-gradient-5"/>
    <clipPath id="clip-path-24">
      <path id="Path_800" data-name="Path 800" d="M918.136,305.687l-9.369,3.83-5.286,6.9.593,6.193.216,2.247,3.449,4.772,7.046-1.541s7.413-12.624,7.413-12.846c0-.148-1.524-4.532-2.524-7.4-.223-.641-.421-1.206-.572-1.631-.175-.5-.28-.808-.28-.808Z" fill="none"/>
    </clipPath>
    <linearGradient id="linear-gradient-19" x1="-29.652" y1="36.147" x2="-29.619" y2="36.147" xlink:href="#linear-gradient-5"/>
    <clipPath id="clip-path-26">
      <path id="Path_802" data-name="Path 802" d="M983.419,400.391c.807.881,13.947,3.01,15.855,1.688s1.762-6.166,1.762-6.166l-17.03-.513s-1.395,4.111-.587,4.991" fill="none"/>
    </clipPath>
    <linearGradient id="linear-gradient-20" x1="-52.911" y1="125.091" x2="-52.857" y2="125.091" xlink:href="#linear-gradient-6"/>
    <clipPath id="clip-path-27">
      <path id="Path_803" data-name="Path 803" d="M945.126,308.194s-11.745,12.137-4.306,32.495c5.482,15.005,19.313,14.8,28.657,14.6,3.332-.072,6.093-.145,7.7.473,6.117,2.349,6.9,7.791,5.725,20.926-.844,9.439-1.586,15.228-1.937,17.739a1.568,1.568,0,0,0,1.27,1.762,63.88,63.88,0,0,0,18.993.716,1.575,1.575,0,0,0,1.351-1.361c.673-5.261,3.424-26.9,4.792-39.391,1.566-14.289,2.545-22.706-19.574-33.276-20.471-9.782-32.768-14.779-40.81-14.779a17.136,17.136,0,0,0-1.863.1" fill="none"/>
    </clipPath>
    <linearGradient id="linear-gradient-21" x1="-12.195" y1="12.126" x2="-12.182" y2="12.126" xlink:href="#linear-gradient-3"/>
    <clipPath id="clip-path-28">
      <path id="Path_804" data-name="Path 804" d="M906.673,334.326s-6.275,19.233-3.193,37.29,16.444,27.454,30.831,32.3,17.764,14.976,17.47,19.673c0,0,14.681,5.139,18.645,10.423,0,0,6.166-15.12,6.753-24.81,0,0-.587-15.856-27.894-25.032s-42.134-22-39.2-48.324l-.587-1.518Z" fill="none"/>
    </clipPath>
    <linearGradient id="linear-gradient-22" x1="-7.055" y1="8.59" x2="-7.045" y2="8.594" gradientUnits="objectBoundingBox">
      <stop offset="0" stop-color="#6e72e4"/>
      <stop offset="1" stop-color="#4c30c0"/>
    </linearGradient>
    <clipPath id="clip-path-29">
      <path id="Path_805" data-name="Path 805" d="M903.872,329.188a41,41,0,0,0,1.517,5.947c.685,1.492,3.475,1.247,4.7.709s3.131-4.943,3.131-4.943l-1.173-2.642-2.545-.979-2.007-.441Z" fill="none"/>
    </clipPath>
    <linearGradient id="linear-gradient-23" x1="-84.742" y1="103.838" x2="-84.648" y2="103.838" gradientUnits="objectBoundingBox">
      <stop offset="0" stop-color="#6e7ee4"/>
      <stop offset="1" stop-color="#4c30c0"/>
    </linearGradient>
    <clipPath id="clip-path-30">
      <path id="Path_806" data-name="Path 806" d="M918.427,307.006s1.79,4.859.616,8.676-9.543,11.6-9.543,11.6l5.8,8.809s8.955-15.856,9.395-17.691S922,308.1,922,308.1l-2.67-1.747Z" fill="none"/>
    </clipPath>
    <linearGradient id="linear-gradient-24" x1="-58.175" y1="36.637" x2="-58.111" y2="36.637" xlink:href="#linear-gradient-3"/>
    <clipPath id="clip-path-31">
      <path id="Path_807" data-name="Path 807" d="M900.945,318.031c-1.067,3.156,0,17.1,0,17.1,3.631-7.782,8.555-7.855,8.555-7.855-4.844-2.35-4.918-10.5-5.139-10.5-.038,0-.072-.005-.118-.005-.22,0-.721.1-3.3,1.252" fill="none"/>
    </clipPath>
    <linearGradient id="linear-gradient-25" x1="-93.523" y1="58.693" x2="-93.419" y2="58.693" xlink:href="#linear-gradient-3"/>
    <clipPath id="clip-path-32">
      <path id="Path_808" data-name="Path 808" d="M892.323,288.6l-4.991,3.156s2.569,6.166,2.569,11.6,3.083,16.075,7.121,17.1,15.267-7.781,18.13-12.258c0,0,5.335-.05,8.54-8.32l2.323-3.792-1.027-3.6-10.864-12.552Z" fill="none"/>
    </clipPath>
    <linearGradient id="linear-gradient-26" x1="-18.118" y1="22.188" x2="-18.098" y2="22.188" xlink:href="#linear-gradient-5"/>
    <clipPath id="clip-path-33">
      <path id="Path_809" data-name="Path 809" d="M870.742,278.832c-.783,19.771,20.358,18.206,28.579,10.962s11.06-8.613,12.235-5.186,3.131,11.842.782,16.05c0,0,2.741-.978,4.8-4.991s9.005-2.349,6.558,4.208c0,0,6.165-4.7,7.34-9.884s-5.579-8.516-4.5-14.192,1.468-13.409-7.243-16.932-14.877,3.62-18.889,5.97-18.694,2.74-10.864-7.731c0,0-18.008,1.957-18.792,21.726" fill="none"/>
    </clipPath>
    <linearGradient id="linear-gradient-27" x1="-18.001" y1="17.838" x2="-17.981" y2="17.838" gradientUnits="objectBoundingBox">
      <stop offset="0" stop-color="#873c51"/>
      <stop offset="1" stop-color="#402649"/>
    </linearGradient>
  </defs>
  <g id="Group_321" data-name="Group 321" transform="translate(0 -39.433)">
    <g id="Group_248" data-name="Group 248">
      <g id="Group_247" data-name="Group 247" clip-path="url(#clip-path)">
        <rect id="Rectangle_131" data-name="Rectangle 131" width="57.843" height="48.419" transform="translate(824.408 602.41) rotate(-29.745)" fill="url(#linear-gradient)"/>
      </g>
    </g>
    <g id="Group_250" data-name="Group 250">
      <g id="Group_249" data-name="Group 249" clip-path="url(#clip-path-2)">
        <rect id="Rectangle_132" data-name="Rectangle 132" width="33.692" height="61.573" transform="matrix(0.99, -0.138, 0.138, 0.99, 997.978, 514.719)" fill="url(#linear-gradient-2)"/>
      </g>
    </g>
    <g id="Group_252" data-name="Group 252">
      <g id="Group_251" data-name="Group 251" clip-path="url(#clip-path-3)">
        <rect id="Rectangle_133" data-name="Rectangle 133" width="157.904" height="158.267" transform="matrix(0.913, -0.408, 0.408, 0.913, 849.242, 433.318)" fill="url(#linear-gradient-3)"/>
      </g>
    </g>
    <g id="Group_254" data-name="Group 254">
      <g id="Group_253" data-name="Group 253" clip-path="url(#clip-path-4)">
        <rect id="Rectangle_134" data-name="Rectangle 134" width="214.705" height="173.885" transform="translate(808.156 579.088) rotate(-69.075)" fill="url(#linear-gradient-4)"/>
      </g>
    </g>
    <g id="Group_256" data-name="Group 256">
      <g id="Group_255" data-name="Group 255" clip-path="url(#clip-path-5)">
        <rect id="Rectangle_135" data-name="Rectangle 135" width="30.986" height="30.964" transform="matrix(0.406, -0.914, 0.914, 0.406, 799.522, 296.099)" fill="url(#linear-gradient-5)"/>
      </g>
    </g>
    <g id="Group_258" data-name="Group 258">
      <g id="Group_257" data-name="Group 257" clip-path="url(#clip-path-6)">
        <rect id="Rectangle_136" data-name="Rectangle 136" width="13.848" height="8.618" transform="translate(815.151 295.172)" fill="url(#linear-gradient-6)"/>
      </g>
    </g>
    <g id="Group_260" data-name="Group 260">
      <g id="Group_259" data-name="Group 259" clip-path="url(#clip-path-7)">
        <path id="Path_783" data-name="Path 783" d="M810.367,282.356c.66,2.937,3.169,2.349,5.1,1.078s4.432,1.37,9.718.634c5.145-.712,4.6,3.559,4.57,3.788,1.723-2.962,1.932-6.124-1.22-7.775-1.541-.809-2.568-3.6-2.568-3.6l-8.955,2.538c-2.789-1.541-7.012,0-7.012,0a12.163,12.163,0,0,0,.369,3.334" fill="#ed88af"/>
      </g>
    </g>
    <g id="Group_262" data-name="Group 262">
      <g id="Group_261" data-name="Group 261" clip-path="url(#clip-path-8)">
        <rect id="Rectangle_138" data-name="Rectangle 138" width="10.402" height="11.63" transform="translate(804.895 275.978) rotate(-24.444)" fill="url(#linear-gradient-7)"/>
      </g>
    </g>
    <g id="Group_264" data-name="Group 264">
      <g id="Group_263" data-name="Group 263" clip-path="url(#clip-path-9)">
        <rect id="Rectangle_139" data-name="Rectangle 139" width="10.104" height="11.782" transform="matrix(0.957, -0.289, 0.289, 0.957, 809.864, 272.241)" fill="url(#linear-gradient-8)"/>
      </g>
    </g>
    <g id="Group_266" data-name="Group 266">
      <g id="Group_265" data-name="Group 265" clip-path="url(#clip-path-10)">
        <rect id="Rectangle_140" data-name="Rectangle 140" width="10.642" height="5.74" transform="translate(817.582 280.22) rotate(-88.518)" fill="url(#linear-gradient-9)"/>
      </g>
    </g>
    <g id="Group_268" data-name="Group 268">
      <g id="Group_267" data-name="Group 267" clip-path="url(#clip-path-11)">
        <rect id="Rectangle_141" data-name="Rectangle 141" width="12.59" height="6.751" transform="matrix(0.105, -0.995, 0.995, 0.105, 820.303, 279.839)" fill="url(#linear-gradient-10)"/>
      </g>
    </g>
    <g id="Group_270" data-name="Group 270">
      <g id="Group_269" data-name="Group 269" clip-path="url(#clip-path-12)">
        <rect id="Rectangle_142" data-name="Rectangle 142" width="64.982" height="115.135" transform="translate(878.977 314.112) rotate(-4.322)" fill="url(#radial-gradient)"/>
      </g>
    </g>
    <g id="Group_272" data-name="Group 272">
      <g id="Group_271" data-name="Group 271" clip-path="url(#clip-path-13)">
        <rect id="Rectangle_143" data-name="Rectangle 143" width="85.544" height="91.595" transform="translate(813.974 299.107)" fill="url(#linear-gradient-11)"/>
      </g>
    </g>
    <g id="Group_274" data-name="Group 274">
      <g id="Group_273" data-name="Group 273" clip-path="url(#clip-path-14)">
        <rect id="Rectangle_144" data-name="Rectangle 144" width="60.572" height="26.929" transform="matrix(0.14, -0.99, 0.99, 0.14, 871.309, 371.261)" fill="url(#linear-gradient-12)"/>
      </g>
    </g>
    <g id="Group_276" data-name="Group 276">
      <g id="Group_275" data-name="Group 275" clip-path="url(#clip-path-7)">
        <path id="Path_791" data-name="Path 791" d="M886.011,365.01c1.908,1.614,8.369,25.692,8.369,25.692,2.152-17.032,5.138-73.184,5.138-73.184l-1.736-1.575-1.789.835s-.586,21.218-9.687,29.44l5.724,8.221Z" fill="#0076dd"/>
      </g>
    </g>
    <g id="Group_278" data-name="Group 278">
      <g id="Group_277" data-name="Group 277" clip-path="url(#clip-path-16)">
        <rect id="Rectangle_146" data-name="Rectangle 146" width="145.447" height="171.405" transform="translate(871.081 316.742) rotate(-17.286)" fill="url(#linear-gradient-13)"/>
      </g>
    </g>
    <g id="Group_280" data-name="Group 280">
      <g id="Group_279" data-name="Group 279" clip-path="url(#clip-path-7)">
        <path id="Path_793" data-name="Path 793" d="M926.015,403.524a93.32,93.32,0,0,0,16.278,21.985,58.58,58.58,0,0,1-6.368-58.786L924.741,363.2l11.184-4.891c-3.326-4.111-7.632-42.087-8.807-46.2s-7.489-4.4-7.489-4.4l-1.079,6.1,4.752,3.707s2.713,5.854-3.819,23.266-6.9,37.486,6.532,62.739" fill="#0076dd"/>
      </g>
    </g>
    <g id="Group_282" data-name="Group 282">
      <g id="Group_281" data-name="Group 281" clip-path="url(#clip-path-18)">
        <rect id="Rectangle_148" data-name="Rectangle 148" width="7.856" height="14.539" transform="translate(817.901 283.609) rotate(-88.591)" fill="url(#linear-gradient-14)"/>
      </g>
    </g>
    <g id="Group_284" data-name="Group 284">
      <g id="Group_283" data-name="Group 283" clip-path="url(#clip-path-19)">
        <rect id="Rectangle_149" data-name="Rectangle 149" width="49.38" height="42.488" transform="translate(961.332 412.482) rotate(-21.704)" fill="url(#linear-gradient-15)"/>
      </g>
    </g>
    <g id="Group_286" data-name="Group 286">
      <g id="Group_285" data-name="Group 285" clip-path="url(#clip-path-20)">
        <rect id="Rectangle_150" data-name="Rectangle 150" width="115.91" height="104.845" transform="translate(930.42 430.17) rotate(-21.247)" fill="url(#linear-gradient-16)"/>
      </g>
    </g>
    <g id="Group_288" data-name="Group 288">
      <g id="Group_287" data-name="Group 287" clip-path="url(#clip-path-21)">
        <rect id="Rectangle_151" data-name="Rectangle 151" width="100.627" height="83.265" transform="translate(934.92 426.096) rotate(-23.837)" fill="url(#linear-gradient-17)"/>
      </g>
    </g>
    <g id="Group_290" data-name="Group 290">
      <g id="Group_289" data-name="Group 289" clip-path="url(#clip-path-7)">
        <path id="Path_798" data-name="Path 798" d="M997.25,464.1l15.811-6.353a4.456,4.456,0,0,0,2.472-5.794l-.122-.3a4.456,4.456,0,0,0-5.794-2.472l-15.81,6.354a4.454,4.454,0,0,0-2.473,5.794l.122.3a4.454,4.454,0,0,0,5.794,2.472" fill="#d4f0f9"/>
      </g>
    </g>
    <g id="Group_292" data-name="Group 292">
      <g id="Group_291" data-name="Group 291" clip-path="url(#clip-path-23)">
        <rect id="Rectangle_153" data-name="Rectangle 153" width="36.705" height="35.339" transform="matrix(0.457, -0.89, 0.89, 0.457, 963.685, 421.712)" fill="url(#linear-gradient-18)"/>
      </g>
    </g>
    <g id="Group_294" data-name="Group 294">
      <g id="Group_293" data-name="Group 293" clip-path="url(#clip-path-24)">
        <rect id="Rectangle_154" data-name="Rectangle 154" width="30.342" height="30.382" transform="matrix(0.711, -0.704, 0.704, 0.711, 891.371, 317.394)" fill="url(#linear-gradient-19)"/>
      </g>
    </g>
    <g id="Group_296" data-name="Group 296">
      <g id="Group_295" data-name="Group 295" clip-path="url(#clip-path-7)">
        <path id="Path_801" data-name="Path 801" d="M903.481,316.416l.593,6.193,15.6-14.764c-.222-.64-.421-1.206-.572-1.63l-.966-.528-9.369,3.83Z" fill="#ef89b0"/>
      </g>
    </g>
    <g id="Group_298" data-name="Group 298">
      <g id="Group_297" data-name="Group 297" clip-path="url(#clip-path-26)">
        <rect id="Rectangle_156" data-name="Rectangle 156" width="18.571" height="8.001" transform="translate(982.611 395.4)" fill="url(#linear-gradient-20)"/>
      </g>
    </g>
    <g id="Group_300" data-name="Group 300">
      <g id="Group_299" data-name="Group 299" clip-path="url(#clip-path-27)">
        <rect id="Rectangle_157" data-name="Rectangle 157" width="76.537" height="89.877" transform="translate(933.381 308.097)" fill="url(#linear-gradient-21)"/>
      </g>
    </g>
    <g id="Group_302" data-name="Group 302">
      <g id="Group_301" data-name="Group 301" clip-path="url(#clip-path-28)">
        <rect id="Rectangle_158" data-name="Rectangle 158" width="124.159" height="125.257" transform="matrix(0.731, -0.683, 0.683, 0.731, 850.67, 380.793)" fill="url(#linear-gradient-22)"/>
      </g>
    </g>
    <g id="Group_304" data-name="Group 304">
      <g id="Group_303" data-name="Group 303" clip-path="url(#clip-path-29)">
        <rect id="Rectangle_159" data-name="Rectangle 159" width="10.665" height="10.269" transform="translate(902.908 336.531) rotate(-84.319)" fill="url(#linear-gradient-23)"/>
      </g>
    </g>
    <g id="Group_306" data-name="Group 306">
      <g id="Group_305" data-name="Group 305" clip-path="url(#clip-path-30)">
        <rect id="Rectangle_160" data-name="Rectangle 160" width="15.634" height="29.739" transform="translate(909.5 306.35)" fill="url(#linear-gradient-24)"/>
      </g>
    </g>
    <g id="Group_308" data-name="Group 308">
      <g id="Group_307" data-name="Group 307" clip-path="url(#clip-path-31)">
        <rect id="Rectangle_161" data-name="Rectangle 161" width="9.622" height="18.356" transform="translate(899.878 316.779)" fill="url(#linear-gradient-25)"/>
      </g>
    </g>
    <g id="Group_310" data-name="Group 310">
      <g id="Group_309" data-name="Group 309" clip-path="url(#clip-path-32)">
        <rect id="Rectangle_162" data-name="Rectangle 162" width="48.717" height="50.671" transform="translate(876.227 283.151) rotate(-16.157)" fill="url(#linear-gradient-26)"/>
      </g>
    </g>
    <g id="Group_312" data-name="Group 312">
      <g id="Group_311" data-name="Group 311" clip-path="url(#clip-path-33)">
        <rect id="Rectangle_163" data-name="Rectangle 163" width="48.638" height="64.623" transform="matrix(0.054, -0.999, 0.999, 0.054, 867.495, 300.524)" fill="url(#linear-gradient-27)"/>
      </g>
    </g>
    <g id="Group_314" data-name="Group 314">
      <g id="Group_313" data-name="Group 313" clip-path="url(#clip-path-7)">
        <path id="Path_810" data-name="Path 810" d="M719.674,504.005l.81-.452-.406,1.894Z" fill="#0f2649"/>
      </g>
    </g>
    <rect id="Rectangle_165" data-name="Rectangle 165" width="1451.5" height="1398.5" transform="translate(0 39.419)" fill="none"/>
  </g>
</svg>
