<svg xmlns="http://www.w3.org/2000/svg" xmlns:xlink="http://www.w3.org/1999/xlink" width="1452" height="1399" viewBox="0 0 1452 1399">
  <defs>
    <clipPath id="clip-path">
      <rect id="Rectangle_76" data-name="Rectangle 76" width="1451.5" height="1398.5" transform="translate(10.032 53.366)" fill="none"/>
    </clipPath>
    <clipPath id="clip-path-2">
      <path id="Path_723" data-name="Path 723" d="M1119.617,767.313c-8.515,5.286-12.43,10.376-12.43,10.376l.588,4.991h9.787l20.161-10.179,7.047-7.927-1.859-13.018-13.409-.783s-1.369,11.256-9.885,16.54" fill="none"/>
    </clipPath>
    <linearGradient id="linear-gradient" x1="-22.833" y1="13.377" x2="-22.812" y2="13.377" gradientUnits="objectBoundingBox">
      <stop offset="0" stop-color="#f9c0ca"/>
      <stop offset="1" stop-color="#fc99ba"/>
    </linearGradient>
    <clipPath id="clip-path-3">
      <path id="Path_724" data-name="Path 724" d="M1138.409,768.488c-5.872,5.09-18.987,13.018-25.448,11.745s-.619-7.655-.619-7.655-10.635,5.111-13.572,8.732-2.056,8.71,8.417,8.417,14.975-4.013,20.946-8.026,9.787-6.263,9.787-6.263-2.643,8.808-2.448,9.786,4.307-.685,4.307-.685a35.156,35.156,0,0,1,5.383-11.548c3.817-4.992,5.4-10.363-1.8-18.3,0,0,.922,8.7-4.95,13.794" fill="none"/>
    </clipPath>
    <linearGradient id="linear-gradient-2" x1="-16.747" y1="10.78" x2="-16.732" y2="10.78" gradientUnits="objectBoundingBox">
      <stop offset="0" stop-color="#6281f7"/>
      <stop offset="1" stop-color="#2c3bd1"/>
    </linearGradient>
    <clipPath id="clip-path-4">
      <path id="Path_725" data-name="Path 725" d="M1282.673,636.067l.428,4.238.846,8.386s6.067,2.154,8.026,10.865c.469,2.09,1.045,4.529,1.741,7.027,2.2,7.919,5.6,16.439,10.592,16.364,6.555-.1,4.794-8.317,4.794-18.4s-.684-19.773-3.329-23.489-4.991-6.56-4.991-6.56l10.863.685-.881-4.5s-14.679-1.566-18.5-1.762c-.05,0-.1,0-.151,0-3.816,0-9.441,7.149-9.441,7.149" fill="none"/>
    </clipPath>
    <linearGradient id="linear-gradient-3" x1="-34.315" y1="13.335" x2="-34.288" y2="13.335" xlink:href="#linear-gradient-2"/>
    <clipPath id="clip-path-5">
      <path id="Path_726" data-name="Path 726" d="M1283.947,637.438l-.846,2.867.846,8.386s6.067,2.154,8.026,10.865c.469,2.09,1.045,4.529,1.741,7.027a7.023,7.023,0,0,0,5.6,1.88c4.851-.672,3.819-10.766.686-17.032s-1.662-11.938-4.4-14.583a5.145,5.145,0,0,0-3.575-1.038,28.785,28.785,0,0,0-8.072,1.628" fill="none"/>
    </clipPath>
    <linearGradient id="linear-gradient-4" x1="-38.528" y1="19.824" x2="-38.498" y2="19.824" xlink:href="#linear-gradient"/>
    <clipPath id="clip-path-6">
      <path id="Path_727" data-name="Path 727" d="M1079,503.352c.685,1.859.979,7.34,3.035,8.906s7.146.292,9.4-.88,13.212,3.425,13.212,3.425l2.349-14.1s-12.331,0-14.585-1.369a26.7,26.7,0,0,1-2.9-2.429c-.364-.319-.752-.64-1.156-.953a11,11,0,0,0-5.25-2.4,9.289,9.289,0,0,0-1.087-.086h-.093c-5.078,0-3.6,8.038-2.917,9.888" fill="none"/>
    </clipPath>
    <linearGradient id="linear-gradient-5" x1="-29.109" y1="25.544" x2="-29.082" y2="25.544" xlink:href="#linear-gradient"/>
    <clipPath id="clip-path-8">
      <path id="Path_729" data-name="Path 729" d="M1151.524,484.46c-25.839,22.316-48.936,14.423-48.936,14.423-6.381,6.863-1.741,17.022-1.741,17.022,39.933,13.506,65.945-2.082,65.945-2.082l10.178-37.388,13.192-13.506s2.461-5.469,0-8.613c-5.227,1.174-12.8,7.83-38.638,30.144" fill="none"/>
    </clipPath>
    <linearGradient id="linear-gradient-6" x1="-10.187" y1="8.177" x2="-10.178" y2="8.177" gradientUnits="objectBoundingBox">
      <stop offset="0" stop-color="#009eff"/>
      <stop offset="1" stop-color="#0057ff"/>
    </linearGradient>
    <clipPath id="clip-path-9">
      <path id="Path_730" data-name="Path 730" d="M1080.019,506.84c-4.464.128-8.355.574-8.355.574s-3.827,3.381-1.531,5.039,11.156,1.033,13.359-.568c2.165-1.573,1.033-5.048-3.243-5.048l-.23,0" fill="none"/>
    </clipPath>
    <linearGradient id="linear-gradient-7" x1="-59.175" y1="119.794" x2="-59.119" y2="119.794" xlink:href="#linear-gradient"/>
    <clipPath id="clip-path-10">
      <path id="Path_731" data-name="Path 731" d="M1070.025,502.676s-3.338,3.932-.815,5.341,10.71.188,12.906-.371,1.26-4.97-1.632-4.97Z" fill="none"/>
    </clipPath>
    <linearGradient id="linear-gradient-8" x1="-59.253" y1="123.027" x2="-59.197" y2="123.027" xlink:href="#linear-gradient"/>
    <clipPath id="clip-path-11">
      <path id="Path_732" data-name="Path 732" d="M1071.345,498.883s-2.683,1.416-2.756,3.5,7.078,2.011,11.92,1.118,4.024-4.247,0-4.62c-5.066.075-9.164,0-9.164,0" fill="none"/>
    </clipPath>
    <linearGradient id="linear-gradient-9" x1="-170.878" y1="52.993" x2="-170.718" y2="52.993" xlink:href="#linear-gradient"/>
    <clipPath id="clip-path-12">
      <path id="Path_733" data-name="Path 733" d="M1068.761,498.663c.494,1.647,5.028,1.153,9.4,1.153s6.1-1.483,5.523-3.3c-.473-1.484-2.654-1.477-5.689-1.472-.674,0-1.391,0-2.141-.013-.149,0-.295,0-.438,0-5.348,0-7.134,2.026-6.651,3.632" fill="none"/>
    </clipPath>
    <linearGradient id="linear-gradient-10" x1="-169.782" y1="55.68" x2="-169.622" y2="55.68" xlink:href="#linear-gradient"/>
    <clipPath id="clip-path-13">
      <path id="Path_734" data-name="Path 734" d="M1183.039,464.642s-18.6,24.125-18.2,47.19,10.179,32.723,10.179,32.723-7.83-20.944-3.132-42.085,19.134-37.828,19.134-37.828Z" fill="none"/>
    </clipPath>
    <linearGradient id="linear-gradient-11" x1="-13.476" y1="17.854" x2="-13.465" y2="17.854" gradientUnits="objectBoundingBox">
      <stop offset="0" stop-color="#f46682"/>
      <stop offset="1" stop-color="#cc449c"/>
    </linearGradient>
    <clipPath id="clip-path-14">
      <path id="Path_735" data-name="Path 735" d="M1178.733,628.186c4.9,14.137,7.543,23.859,10.873,30.083,4.049,7.578,9.118,9.982,20.518,8.876,3.5-.339,7.6-1.011,12.456-1.963,33.619-6.6,62.688-14.531,62.688-14.531s3.816-7.931-.881-15.125c0,0-28.326-3.978-49.532-1.044a56.217,56.217,0,0,0-12.079,2.857,13.789,13.789,0,0,1-1.8-2.723c-8.5-16.227-10.784-70.878-10.784-70.878l-39.876-9.1s-4.282,36.925,8.416,73.551" fill="none"/>
    </clipPath>
    <linearGradient id="linear-gradient-12" x1="-6.828" y1="5.208" x2="-6.822" y2="5.208" xlink:href="#linear-gradient-2"/>
    <clipPath id="clip-path-16">
      <path id="Path_737" data-name="Path 737" d="M1196.595,563.444s-12.07,33.076-35.381,61.367c-30.244,36.7-33.473,128.311-33.473,128.311s12.184,3.23,17.47-1.615c0,0,19.819-68.853,27.16-75.313s55.887-26.888,71.936-57.255,13.507-42.556,13.507-42.556l-36.7-17.637Z" fill="none"/>
    </clipPath>
    <linearGradient id="linear-gradient-13" x1="-4.882" y1="4.797" x2="-4.876" y2="4.793" xlink:href="#linear-gradient-2"/>
    <clipPath id="clip-path-17">
      <path id="Path_738" data-name="Path 738" d="M1185.531,465.865s-14.133,27.316-14.335,34.451a149.176,149.176,0,0,0,4.111,20.407c4.551,16.3-11.451,34.647-11.451,34.647s10.13,11.891,20.26,13.654c5.285-.294,7.78-2.535,7.78-2.535s5.285,6.351,8.957,6.351,18.2-7.928,28.48-7.193c-10.717-11.892-12.034-68.462-12.034-68.462V471.346l-15.582-8.417Z" fill="none"/>
    </clipPath>
    <radialGradient id="radial-gradient" cx="0.489" cy="0.296" r="0.549" gradientTransform="translate(-43.622 16.664) rotate(180) scale(1.614 1)" gradientUnits="objectBoundingBox">
      <stop offset="0" stop-color="#fff3f2"/>
      <stop offset="1" stop-color="#d5eaff"/>
    </radialGradient>
    <clipPath id="clip-path-18">
      <path id="Path_739" data-name="Path 739" d="M1199.091,453.483l-3.38,6.467-1.611,3.076,2.152,13.408,10.914-8.122,8.515-2.2,6.9-16.591-1.069-5.662-.4-2.118Z" fill="none"/>
    </clipPath>
    <linearGradient id="linear-gradient-14" x1="-26.673" y1="21.521" x2="-26.651" y2="21.521" xlink:href="#linear-gradient"/>
    <clipPath id="clip-path-20">
      <path id="Path_741" data-name="Path 741" d="M1212.243,468.311s-.243.549-.657,1.562c-3.135,7.675-16,42.074-6.331,68.025q1.059,2.843,2.268,5.47v0c17.22,37.64,55.281,43.268,55.281,43.268s39.052-6.461,41.107-43.162a340.19,340.19,0,0,0-35.918-10.862c-21.922-5.481-18.987-22.9-16.835-36.02s6.265-35.283-.391-37.51-25.643-7.512-25.643-7.512Z" fill="none"/>
    </clipPath>
    <linearGradient id="linear-gradient-15" x1="-8.498" y1="6.067" x2="-8.491" y2="6.067" xlink:href="#linear-gradient-11"/>
    <clipPath id="clip-path-21">
      <path id="Path_742" data-name="Path 742" d="M1250.571,572.448c-3.425.979-8.22,2.35-10.374,8.026s-7.733,8.71-5.383,9.494,7.173-4.058,8.808-6.558,1.272,1.763-.783,3.23-4.625,4.331-3.744,6.24,4.185,0,4.185,0,.808,3.67,4.4,1.835c0,0,2.422,2.349,4.772.074,0,0,2.422,2.788,5.578-2.423s7.708-12.073,7.708-15.983,6.826-11.984,6.826-11.984l-13.678-7.415s-4.893,14.486-8.319,15.464" fill="none"/>
    </clipPath>
    <linearGradient id="linear-gradient-16" x1="-23.969" y1="16.699" x2="-23.95" y2="16.699" xlink:href="#linear-gradient"/>
    <clipPath id="clip-path-22">
      <path id="Path_743" data-name="Path 743" d="M1245.546,460.342c-3.183,5.851-9.474,19.854-6.594,34.885,3.79,19.771,30.215,15.073,33.935,23.881s-17.445,33.081-17.335,36.017,17.139,12.919,20.271,11.157,30.536-50.5,28.089-58.331c-2.218-7.1-35.151-46.413-52.01-50.444a5.717,5.717,0,0,0-6.356,2.835" fill="none"/>
    </clipPath>
    <linearGradient id="linear-gradient-17" x1="-9.675" y1="7.311" x2="-9.671" y2="7.301" gradientUnits="objectBoundingBox">
      <stop offset="0" stop-color="#0098ff"/>
      <stop offset="1" stop-color="#0063ff"/>
    </linearGradient>
    <clipPath id="clip-path-23">
      <path id="Path_744" data-name="Path 744" d="M1079.493,494.423c-2.548,2-.787,12.278,3.251,11.251s.5-9.207,2.34-11.613a6.217,6.217,0,0,0-2.674-.633,4.615,4.615,0,0,0-2.917.995" fill="none"/>
    </clipPath>
    <linearGradient id="linear-gradient-18" x1="-104.801" y1="65.84" x2="-104.704" y2="65.84" xlink:href="#linear-gradient"/>
    <clipPath id="clip-path-24">
      <path id="Path_745" data-name="Path 745" d="M1191.75,453.924l-14.094,14.388,16.883-1.615,8.13-15.122Z" fill="none"/>
    </clipPath>
    <linearGradient id="linear-gradient-19" x1="-45.621" y1="32.085" x2="-45.582" y2="32.085" gradientUnits="objectBoundingBox">
      <stop offset="0" stop-color="#00afff"/>
      <stop offset="1" stop-color="#0057ff"/>
    </linearGradient>
    <clipPath id="clip-path-25">
      <path id="Path_746" data-name="Path 746" d="M1216.12,459.944c-4.991,6.459-8.955,8.368-8.955,8.368l14.093,20.553s5.873-30.243,6.166-34.059-5.537-8.956-5.537-8.956a30.782,30.782,0,0,1-5.767,14.094" fill="none"/>
    </clipPath>
    <linearGradient id="linear-gradient-20" x1="-25.13" y1="24.356" x2="-25.109" y2="24.356" xlink:href="#linear-gradient-19"/>
    <clipPath id="clip-path-26">
      <path id="Path_747" data-name="Path 747" d="M1270.929,378.172c-6.18.464-11.506-1.3-16.411-3.06-7.527-2.7-14.063-5.4-21.174-.072-11.742,8.809-11.45,18.594-11.45,18.594l14.78,7.637a25.654,25.654,0,0,1,15.416,2c9.6,4.739,8.954,13.069,22.817,14.634,3.274.371,7.958-.7,12.906-1.776,6.451-1.4,13.353-2.8,18.17-1a.259.259,0,0,1,.052.021,3.987,3.987,0,0,1,.414.162c.145.056.281.117.418.182.3.141.586.288.863.453,8.024,4.7,22.315,9.4,32.3,5.875s13.116-4.505,22.9-2.1c9.082,2.225,25.911-2.592,28.6-20.024.066-.418.124-.843.172-1.278.113-.973.174-1.98.2-3.027.391-20.945-18.009-28.775-26.425-27.01s-27.6,8.024-41.5.585a18.726,18.726,0,0,0-8.966-2.015c-13.683,0-31.434,10.266-44.079,11.216" fill="none"/>
    </clipPath>
    <linearGradient id="linear-gradient-21" x1="-19.176" y1="6.288" x2="-19.161" y2="6.288" gradientUnits="objectBoundingBox">
      <stop offset="0" stop-color="#873c51"/>
      <stop offset="1" stop-color="#402649"/>
    </linearGradient>
    <clipPath id="clip-path-27">
      <path id="Path_748" data-name="Path 748" d="M1364.253,410.615c-12.479-4.111-21.729,2.2-32.743,3.23-4.82.45-10.456-2.167-16.292-4.782-7.495-3.36-15.32-6.721-22.169-3.586-12.185,5.581-20.554,4.11-31.858-3.375s-24.517-.831-24.517-.831a25.654,25.654,0,0,1,15.416,2c9.6,4.739,8.954,13.069,22.817,14.634,3.274.371,7.958-.7,12.906-1.776,6.451-1.4,13.353-2.8,18.17-1a.259.259,0,0,1,.052.021,3.987,3.987,0,0,1,.414.162c.145.056.281.117.418.182.3.141.586.288.863.453,8.024,4.7,22.315,9.4,32.3,5.875s13.116-4.505,22.9-2.1c9.082,2.225,25.911-2.592,28.6-20.024.066-.418.124-.843.172-1.278-3.5,9.223-16.769,15.713-27.452,12.192" fill="none"/>
    </clipPath>
    <linearGradient id="linear-gradient-22" x1="-29.007" y1="6.792" x2="-28.985" y2="6.792" xlink:href="#linear-gradient-21"/>
    <clipPath id="clip-path-28">
      <path id="Path_749" data-name="Path 749" d="M1225.32,391.678c-5.774.881-6.166,5.089-6.166,5.089l5.285,5.872,8.319,4.4a6.64,6.64,0,0,0,6.194-5.871c.745-5.213-6.5-9.6-12.165-9.6a9.738,9.738,0,0,0-1.467.107" fill="none"/>
    </clipPath>
    <linearGradient id="linear-gradient-23" x1="-69.6" y1="45.632" x2="-69.543" y2="45.632" xlink:href="#linear-gradient-19"/>
    <clipPath id="clip-path-29">
      <path id="Path_750" data-name="Path 750" d="M1193.658,414.139c-1.912,1.754-3.468,6.956-4.568,11.887-.722,3.233-1.506,5.419-1.158,9.694,1.176,14.388-2.2,24.664,8.222,20.994a55.409,55.409,0,0,0,17.911-10.864h8.808l5.139-9.542-29.8-22.9s-.371-.026-.909-.026c-1.111,0-2.93.106-3.642.758" fill="none"/>
    </clipPath>
    <linearGradient id="linear-gradient-24" x1="-24.479" y1="22.53" x2="-24.458" y2="22.53" xlink:href="#linear-gradient"/>
    <clipPath id="clip-path-30">
      <path id="Path_751" data-name="Path 751" d="M1201.439,394.173c-12.626,5.432-9.983,15.807-9.983,15.807s-3.915-.88-5.579,5.383,3.213,10.663,3.213,10.663c1.077-4.811,5.264-9.023,5.264-9.023.4,18.426,18.683,20.478,23.381,18.431s4.844.139,4.844,4.837-8.514,5.579-8.514,5.579c9.542,3.817,18.591-.32,18.591-5.752s-1.267-8.635,1.668-12.6,6.46-9.984,3.523-17.325-10.423-4.991-13.213-9.982a16,16,0,0,0-14.058-8.082,23.117,23.117,0,0,0-9.137,2.062" fill="none"/>
    </clipPath>
    <linearGradient id="linear-gradient-25" x1="-18.414" y1="15.572" x2="-18.398" y2="15.572" xlink:href="#linear-gradient-21"/>
  </defs>
  <g id="Group_321" data-name="Group 321" transform="translate(-10.035 -53.386)">
    <rect id="Rectangle_73" data-name="Rectangle 73" width="1451.5" height="1398.5" transform="translate(10.032 53.366)" fill="none"/>
    <rect id="Rectangle_74" data-name="Rectangle 74" width="1451.5" height="1398.5" transform="translate(10.032 53.366)" fill="none"/>
    <rect id="Rectangle_75" data-name="Rectangle 75" width="1451.5" height="1398.5" transform="translate(10.032 53.366)" fill="none"/>
    <g id="Group_136" data-name="Group 136">
      <g id="Group_135" data-name="Group 135" clip-path="url(#clip-path)">
        <path id="Path_722" data-name="Path 722" d="M1173.447,502.862l-3.914,1.737-1.958,18.229,5.364,17.847,4.717-1.013,1.076-27.829Z" fill="#bc3994"/>
      </g>
    </g>
    <g id="Group_138" data-name="Group 138">
      <g id="Group_137" data-name="Group 137" clip-path="url(#clip-path-2)">
        <rect id="Rectangle_77" data-name="Rectangle 77" width="48.152" height="49.231" transform="matrix(0.606, -0.796, 0.796, 0.606, 1091.809, 770.975)" fill="url(#linear-gradient)"/>
      </g>
    </g>
    <g id="Group_140" data-name="Group 140">
      <g id="Group_139" data-name="Group 139" clip-path="url(#clip-path-3)">
        <rect id="Rectangle_78" data-name="Rectangle 78" width="64.996" height="61.007" transform="matrix(0.802, -0.597, 0.597, 0.802, 1078.916, 767.277)" fill="url(#linear-gradient-2)"/>
      </g>
    </g>
    <g id="Group_142" data-name="Group 142">
      <g id="Group_141" data-name="Group 141" clip-path="url(#clip-path-4)">
        <rect id="Rectangle_79" data-name="Rectangle 79" width="37.257" height="58.045" transform="translate(1274.124 630.304) rotate(-9.211)" fill="url(#linear-gradient-3)"/>
      </g>
    </g>
    <g id="Group_144" data-name="Group 144">
      <g id="Group_143" data-name="Group 143" clip-path="url(#clip-path-5)">
        <rect id="Rectangle_80" data-name="Rectangle 80" width="33.173" height="38.825" transform="matrix(0.903, -0.429, 0.429, 0.903, 1270.32, 641.882)" fill="url(#linear-gradient-4)"/>
      </g>
    </g>
    <g id="Group_146" data-name="Group 146">
      <g id="Group_145" data-name="Group 145" clip-path="url(#clip-path-6)">
        <rect id="Rectangle_81" data-name="Rectangle 81" width="36.804" height="35.761" transform="matrix(0.764, -0.645, 0.645, 0.764, 1066.319, 502.355)" fill="url(#linear-gradient-5)"/>
      </g>
    </g>
    <g id="Group_148" data-name="Group 148">
      <g id="Group_147" data-name="Group 147" clip-path="url(#clip-path)">
        <path id="Path_728" data-name="Path 728" d="M1084.775,502.026a6.892,6.892,0,0,1,3.572-6.07,10.992,10.992,0,0,0-5.251-2.4c-.017,1.761.093,6.505,1.679,8.475" fill="#f28cb3"/>
      </g>
    </g>
    <g id="Group_150" data-name="Group 150">
      <g id="Group_149" data-name="Group 149" clip-path="url(#clip-path-8)">
        <rect id="Rectangle_83" data-name="Rectangle 83" width="107.031" height="118.216" transform="translate(1068.993 517.733) rotate(-66.774)" fill="url(#linear-gradient-6)"/>
      </g>
    </g>
    <g id="Group_152" data-name="Group 152">
      <g id="Group_151" data-name="Group 151" clip-path="url(#clip-path-9)">
        <rect id="Rectangle_84" data-name="Rectangle 84" width="17.883" height="7.43" transform="translate(1067.773 506.838) rotate(-0.503)" fill="url(#linear-gradient-7)"/>
      </g>
    </g>
    <g id="Group_154" data-name="Group 154">
      <g id="Group_153" data-name="Group 153" clip-path="url(#clip-path-10)">
        <rect id="Rectangle_85" data-name="Rectangle 85" width="17.818" height="7.27" transform="matrix(1, -0.03, 0.03, 1, 1066.487, 502.682)" fill="url(#linear-gradient-8)"/>
      </g>
    </g>
    <g id="Group_156" data-name="Group 156">
      <g id="Group_155" data-name="Group 155" clip-path="url(#clip-path-11)">
        <rect id="Rectangle_86" data-name="Rectangle 86" width="6.224" height="17.037" transform="translate(1068.302 504.462) rotate(-87.818)" fill="url(#linear-gradient-9)"/>
      </g>
    </g>
    <g id="Group_158" data-name="Group 158">
      <g id="Group_157" data-name="Group 157" clip-path="url(#clip-path-12)">
        <rect id="Rectangle_87" data-name="Rectangle 87" width="6.255" height="16.274" transform="translate(1067.953 500.29) rotate(-86.461)" fill="url(#linear-gradient-10)"/>
      </g>
    </g>
    <g id="Group_160" data-name="Group 160">
      <g id="Group_159" data-name="Group 159" clip-path="url(#clip-path-13)">
        <rect id="Rectangle_88" data-name="Rectangle 88" width="84.205" height="51.48" transform="matrix(0.33, -0.944, 0.944, 0.33, 1139.526, 535.835)" fill="url(#linear-gradient-11)"/>
      </g>
    </g>
    <g id="Group_162" data-name="Group 162">
      <g id="Group_161" data-name="Group 161" clip-path="url(#clip-path-14)">
        <rect id="Rectangle_89" data-name="Rectangle 89" width="167.475" height="167.054" transform="translate(1109.34 607.859) rotate(-43.191)" fill="url(#linear-gradient-12)"/>
      </g>
    </g>
    <g id="Group_164" data-name="Group 164">
      <g id="Group_163" data-name="Group 163" clip-path="url(#clip-path)">
        <path id="Path_736" data-name="Path 736" d="M1189.606,658.269c4.049,7.578,9.118,9.982,20.519,8.876,7.417-13.093,20.8-28.3,24.729-32.663a56.221,56.221,0,0,0-12.078,2.857,13.746,13.746,0,0,1-1.8-2.723c-11.143,2.624-24.352,6.861-24.352,6.861Z" fill="#2033ba"/>
      </g>
    </g>
    <g id="Group_166" data-name="Group 166">
      <g id="Group_165" data-name="Group 165" clip-path="url(#clip-path-16)">
        <rect id="Rectangle_91" data-name="Rectangle 91" width="221.864" height="172.695" transform="translate(1085.49 746.863) rotate(-77.341)" fill="url(#linear-gradient-13)"/>
      </g>
    </g>
    <g id="Group_168" data-name="Group 168">
      <g id="Group_167" data-name="Group 167" clip-path="url(#clip-path-17)">
        <rect id="Rectangle_92" data-name="Rectangle 92" width="69.614" height="112.324" transform="matrix(0.999, -0.038, 0.038, 0.999, 1159.675, 463.089)" fill="url(#radial-gradient)"/>
      </g>
    </g>
    <g id="Group_170" data-name="Group 170">
      <g id="Group_169" data-name="Group 169" clip-path="url(#clip-path-18)">
        <rect id="Rectangle_93" data-name="Rectangle 93" width="44.516" height="44.785" transform="matrix(0.728, -0.685, 0.685, 0.728, 1176.785, 458.024)" fill="url(#linear-gradient-14)"/>
      </g>
    </g>
    <g id="Group_172" data-name="Group 172">
      <g id="Group_171" data-name="Group 171" clip-path="url(#clip-path)">
        <path id="Path_740" data-name="Path 740" d="M1195.711,459.95l.185,4.224,25.616-20.317-.4-2.117-22.019,11.743Z" fill="#ef89b0"/>
      </g>
    </g>
    <g id="Group_174" data-name="Group 174">
      <g id="Group_173" data-name="Group 173" clip-path="url(#clip-path-20)">
        <rect id="Rectangle_95" data-name="Rectangle 95" width="138.83" height="157.983" transform="matrix(0.968, -0.252, 0.252, 0.968, 1162.688, 460.132)" fill="url(#linear-gradient-15)"/>
      </g>
    </g>
    <g id="Group_176" data-name="Group 176">
      <g id="Group_175" data-name="Group 175" clip-path="url(#clip-path-21)">
        <rect id="Rectangle_96" data-name="Rectangle 96" width="51.139" height="50.829" transform="translate(1220.353 593.568) rotate(-71.684)" fill="url(#linear-gradient-16)"/>
      </g>
    </g>
    <g id="Group_178" data-name="Group 178">
      <g id="Group_177" data-name="Group 177" clip-path="url(#clip-path-22)">
        <rect id="Rectangle_97" data-name="Rectangle 97" width="124.86" height="130.034" transform="matrix(0.768, -0.64, 0.64, 0.768, 1181.632, 502.717)" fill="url(#linear-gradient-17)"/>
      </g>
    </g>
    <g id="Group_180" data-name="Group 180">
      <g id="Group_179" data-name="Group 179" clip-path="url(#clip-path-23)">
        <rect id="Rectangle_98" data-name="Rectangle 98" width="10.288" height="13.604" transform="translate(1076.488 493.444) rotate(-1.975)" fill="url(#linear-gradient-18)"/>
      </g>
    </g>
    <g id="Group_182" data-name="Group 182">
      <g id="Group_181" data-name="Group 181" clip-path="url(#clip-path-24)">
        <rect id="Rectangle_99" data-name="Rectangle 99" width="25.865" height="29.779" transform="translate(1171.159 465.219) rotate(-64.537)" fill="url(#linear-gradient-19)"/>
      </g>
    </g>
    <g id="Group_184" data-name="Group 184">
      <g id="Group_183" data-name="Group 183" clip-path="url(#clip-path-25)">
        <rect id="Rectangle_100" data-name="Rectangle 100" width="47.558" height="39.08" transform="translate(1188.721 478.421) rotate(-60.479)" fill="url(#linear-gradient-20)"/>
      </g>
    </g>
    <g id="Group_186" data-name="Group 186">
      <g id="Group_185" data-name="Group 185" clip-path="url(#clip-path-26)">
        <rect id="Rectangle_101" data-name="Rectangle 101" width="66.371" height="173.166" transform="translate(1218.953 425.226) rotate(-87.412)" fill="url(#linear-gradient-21)"/>
      </g>
    </g>
    <g id="Group_188" data-name="Group 188">
      <g id="Group_187" data-name="Group 187" clip-path="url(#clip-path-27)">
        <rect id="Rectangle_102" data-name="Rectangle 102" width="44.579" height="157.17" transform="translate(1233.915 425.096) rotate(-84.829)" fill="url(#linear-gradient-22)"/>
      </g>
    </g>
    <g id="Group_190" data-name="Group 190">
      <g id="Group_189" data-name="Group 189" clip-path="url(#clip-path-28)">
        <rect id="Rectangle_103" data-name="Rectangle 103" width="17.553" height="22.061" transform="translate(1217.531 406.872) rotate(-83.946)" fill="url(#linear-gradient-23)"/>
      </g>
    </g>
    <g id="Group_192" data-name="Group 192">
      <g id="Group_191" data-name="Group 191" clip-path="url(#clip-path-29)">
        <rect id="Rectangle_104" data-name="Rectangle 104" width="48.301" height="43.729" transform="matrix(0.031, -1, 1, 0.031, 1184.263, 460.339)" fill="url(#linear-gradient-24)"/>
      </g>
    </g>
    <g id="Group_194" data-name="Group 194">
      <g id="Group_193" data-name="Group 193" clip-path="url(#clip-path-30)">
        <rect id="Rectangle_105" data-name="Rectangle 105" width="64.022" height="64.86" transform="translate(1176.291 393.223) rotate(-7.989)" fill="url(#linear-gradient-25)"/>
      </g>
    </g>
  </g>
</svg>
