<svg xmlns="http://www.w3.org/2000/svg" xmlns:xlink="http://www.w3.org/1999/xlink" width="853" height="564" viewBox="0 0 853 564">
  <defs>
    <linearGradient id="linear-gradient" x1="0.492" y1="0.958" x2="0.508" y2="0.061" gradientUnits="objectBoundingBox">
      <stop offset="0" stop-color="#78ffff"/>
      <stop offset="0.201" stop-color="#7af1ff"/>
      <stop offset="0.577" stop-color="#80ceff"/>
      <stop offset="1" stop-color="#889fff"/>
    </linearGradient>
    <linearGradient id="linear-gradient-2" x1="0.496" y1="0.945" x2="0.503" y2="0.144" xlink:href="#linear-gradient"/>
    <linearGradient id="linear-gradient-3" x1="-0.371" y1="0.406" x2="1.172" y2="0.684" gradientUnits="objectBoundingBox">
      <stop offset="0" stop-color="#5ac6e2"/>
      <stop offset="1" stop-color="#a795e8"/>
    </linearGradient>
    <linearGradient id="linear-gradient-4" x1="0.844" y1="0.296" x2="0.184" y2="0.951" gradientUnits="objectBoundingBox">
      <stop offset="0" stop-color="#4ab8d1"/>
      <stop offset="1" stop-color="#8c7dd3"/>
    </linearGradient>
    <linearGradient id="linear-gradient-5" x1="0.714" y1="0.252" x2="0.332" y2="0.739" gradientUnits="objectBoundingBox">
      <stop offset="0" stop-color="#33b4ff"/>
      <stop offset="1" stop-color="#0076dd"/>
    </linearGradient>
    <linearGradient id="linear-gradient-6" x1="0.367" y1="0.066" x2="0.614" y2="0.85" xlink:href="#linear-gradient-5"/>
    <linearGradient id="linear-gradient-7" x1="0.492" y1="0.804" x2="0.628" y2="0.221" gradientUnits="objectBoundingBox">
      <stop offset="0" stop-color="#2f5b9b"/>
      <stop offset="1" stop-color="#18386b"/>
    </linearGradient>
    <linearGradient id="linear-gradient-8" x1="0.804" y1="0.253" x2="0.275" y2="0.668" gradientUnits="objectBoundingBox">
      <stop offset="0" stop-color="#f9c0ca"/>
      <stop offset="1" stop-color="#fc99ba"/>
    </linearGradient>
    <linearGradient id="linear-gradient-9" x1="0.408" y1="0.118" x2="0.448" y2="0.463" gradientUnits="objectBoundingBox">
      <stop offset="0" stop-color="#f3feff"/>
      <stop offset="1" stop-color="#c5faff"/>
    </linearGradient>
    <linearGradient id="linear-gradient-10" x1="0.66" y1="0.483" x2="0.171" y2="0.52" xlink:href="#linear-gradient-7"/>
    <linearGradient id="linear-gradient-11" x1="0.594" y1="0.058" x2="0.462" y2="0.827" xlink:href="#linear-gradient-5"/>
    <linearGradient id="linear-gradient-12" x1="0.34" y1="0.091" x2="0.677" y2="0.879" xlink:href="#linear-gradient-5"/>
    <linearGradient id="linear-gradient-13" x1="1.089" y1="0.491" x2="0.091" y2="0.505" gradientUnits="objectBoundingBox">
      <stop offset="0" stop-color="#6e7ee4"/>
      <stop offset="1" stop-color="#4c30c0"/>
    </linearGradient>
    <linearGradient id="linear-gradient-14" x1="1.002" y1="0.377" x2="0.284" y2="0.548" xlink:href="#linear-gradient-13"/>
    <linearGradient id="linear-gradient-15" x1="0" y1="0.5" x2="1" y2="0.5" xlink:href="#linear-gradient-7"/>
    <linearGradient id="linear-gradient-17" x1="0.239" y1="0.699" x2="0.937" y2="0.38" xlink:href="#linear-gradient-8"/>
    <linearGradient id="linear-gradient-18" x1="1.325" y1="0.266" x2="-0.224" y2="0.705" xlink:href="#linear-gradient-3"/>
    <linearGradient id="linear-gradient-19" x1="2.475" y1="4.422" x2="2.554" y2="5.101" gradientUnits="objectBoundingBox">
      <stop offset="0" stop-color="#989df4"/>
      <stop offset="1" stop-color="#7d7ddb"/>
    </linearGradient>
    <linearGradient id="linear-gradient-20" x1="0.597" y1="0.045" x2="0.432" y2="0.773" xlink:href="#linear-gradient-8"/>
    <linearGradient id="linear-gradient-21" x1="0.016" y1="0.479" x2="0.873" y2="0.505" xlink:href="#linear-gradient-7"/>
    <linearGradient id="linear-gradient-22" x1="0.045" y1="0.493" x2="0.644" y2="0.504" xlink:href="#linear-gradient-8"/>
    <linearGradient id="linear-gradient-23" x1="0.69" y1="0.238" x2="0.45" y2="0.712" xlink:href="#linear-gradient-7"/>
    <linearGradient id="linear-gradient-24" x1="0.88" y1="0.394" x2="0.233" y2="0.705" gradientUnits="objectBoundingBox">
      <stop offset="0" stop-color="#00afff"/>
      <stop offset="1" stop-color="#0057ff"/>
    </linearGradient>
    <linearGradient id="linear-gradient-25" x1="0.706" y1="0.233" x2="0.291" y2="0.855" xlink:href="#linear-gradient-24"/>
    <linearGradient id="linear-gradient-26" x1="0.749" y1="0.674" x2="0.23" y2="-0.03" xlink:href="#linear-gradient-8"/>
    <linearGradient id="linear-gradient-27" x1="0.475" y1="0.661" x2="0.554" y2="-0.129" xlink:href="#linear-gradient-8"/>
    <linearGradient id="linear-gradient-28" x1="1.138" y1="0.596" x2="-0.144" y2="0.349" xlink:href="#linear-gradient-8"/>
    <linearGradient id="linear-gradient-29" x1="0.923" y1="0.04" x2="0.23" y2="0.98" xlink:href="#linear-gradient-24"/>
    <linearGradient id="linear-gradient-30" x1="1.039" y1="0.111" x2="-0.025" y2="0.879" gradientUnits="objectBoundingBox">
      <stop offset="0" stop-color="#88e9ff"/>
      <stop offset="1" stop-color="#34bfea"/>
    </linearGradient>
    <linearGradient id="linear-gradient-31" x1="0.241" y1="0.233" x2="0.728" y2="0.994" xlink:href="#linear-gradient-8"/>
    <linearGradient id="linear-gradient-32" x1="0.102" y1="0.804" x2="0.838" y2="0.402" xlink:href="#linear-gradient-8"/>
    <linearGradient id="linear-gradient-33" x1="1.12" y1="0.485" x2="-0.018" y2="0.529" xlink:href="#linear-gradient-8"/>
    <linearGradient id="linear-gradient-34" x1="0.333" y1="0.001" x2="0.562" y2="0.818" xlink:href="#linear-gradient-7"/>
    <linearGradient id="linear-gradient-35" x1="0.381" y1="0.472" x2="0.823" y2="0.632" xlink:href="#linear-gradient-7"/>
    <linearGradient id="linear-gradient-36" x1="0.532" y1="-0.102" x2="0.462" y2="0.829" xlink:href="#linear-gradient-24"/>
    <linearGradient id="linear-gradient-37" x1="0.846" y1="0.576" x2="0.103" y2="0.407" xlink:href="#linear-gradient-7"/>
    <linearGradient id="linear-gradient-38" x1="0.452" y1="-0.017" x2="0.517" y2="0.71" xlink:href="#linear-gradient-8"/>
    <linearGradient id="linear-gradient-39" y1="0.5" x2="1" y2="0.5" gradientUnits="objectBoundingBox">
      <stop offset="0" stop-color="#fff3f2"/>
      <stop offset="1" stop-color="#d5eaff"/>
    </linearGradient>
    <linearGradient id="linear-gradient-40" x1="0.678" y1="0.461" x2="0.15" y2="0.556" xlink:href="#linear-gradient-13"/>
    <radialGradient id="radial-gradient" cx="0.644" cy="0.428" r="0.467" gradientTransform="translate(-0.555) scale(2.109 1)" xlink:href="#linear-gradient-39"/>
    <linearGradient id="linear-gradient-41" x1="0.522" y1="0.07" x2="0.502" y2="0.686" xlink:href="#linear-gradient-13"/>
    <linearGradient id="linear-gradient-42" x1="0.623" y1="0.013" x2="0.295" y2="0.875" xlink:href="#linear-gradient-13"/>
    <linearGradient id="linear-gradient-43" x1="0.545" y1="0.492" x2="-0.157" y2="0.561" xlink:href="#linear-gradient-24"/>
    <linearGradient id="linear-gradient-44" x1="1.212" y1="0.424" x2="0.038" y2="0.545" xlink:href="#linear-gradient-24"/>
    <linearGradient id="linear-gradient-45" x1="0.277" y1="0.136" x2="0.867" y2="0.577" xlink:href="#linear-gradient-7"/>
    <linearGradient id="linear-gradient-46" x1="0.89" y1="0.242" x2="0.322" y2="0.586" xlink:href="#linear-gradient-7"/>
    <linearGradient id="linear-gradient-47" x1="1.08" y1="0.59" x2="0.114" y2="0.445" xlink:href="#linear-gradient-8"/>
    <linearGradient id="linear-gradient-48" x1="0.155" y1="0.496" x2="1.129" y2="0.513" xlink:href="#linear-gradient-8"/>
    <linearGradient id="linear-gradient-49" x1="0.126" y1="0.34" x2="0.926" y2="0.713" xlink:href="#linear-gradient-39"/>
    <linearGradient id="linear-gradient-50" x1="0.069" y1="0.419" x2="0.774" y2="0.561" xlink:href="#linear-gradient-13"/>
    <linearGradient id="linear-gradient-51" x1="1.019" y1="0.666" x2="0.168" y2="0.385" xlink:href="#linear-gradient-8"/>
    <linearGradient id="linear-gradient-52" x1="0.461" y1="-0.023" x2="0.516" y2="0.729" gradientUnits="objectBoundingBox">
      <stop offset="0" stop-color="#873c51"/>
      <stop offset="1" stop-color="#402649"/>
    </linearGradient>
    <linearGradient id="linear-gradient-53" x1="0.408" y1="0.398" x2="0.713" y2="0.765" gradientUnits="objectBoundingBox">
      <stop offset="0" stop-color="#6281f7"/>
      <stop offset="1" stop-color="#2c3bd1"/>
    </linearGradient>
    <linearGradient id="linear-gradient-54" x1="0.38" y1="0.32" x2="0.723" y2="0.851" xlink:href="#linear-gradient-53"/>
    <linearGradient id="linear-gradient-55" x1="0.357" y1="0.39" x2="0.716" y2="0.637" xlink:href="#linear-gradient-8"/>
    <linearGradient id="linear-gradient-56" x1="0.304" y1="0.335" x2="0.62" y2="0.571" xlink:href="#linear-gradient-8"/>
    <linearGradient id="linear-gradient-57" x1="-0.013" y1="0.787" x2="0.953" y2="0.196" xlink:href="#linear-gradient-53"/>
    <linearGradient id="linear-gradient-58" x1="0.37" y1="-0.095" x2="0.782" y2="1.041" xlink:href="#linear-gradient-8"/>
    <linearGradient id="linear-gradient-59" x1="0.289" y1="0.538" x2="0.97" y2="0.426" gradientUnits="objectBoundingBox">
      <stop offset="0" stop-color="#f46682"/>
      <stop offset="1" stop-color="#cc449c"/>
    </linearGradient>
    <linearGradient id="linear-gradient-60" x1="0.54" y1="0.184" x2="0.444" y2="1.004" xlink:href="#linear-gradient-24"/>
    <linearGradient id="linear-gradient-61" x1="-0.195" y1="0.153" x2="0.941" y2="0.8" xlink:href="#linear-gradient-59"/>
    <linearGradient id="linear-gradient-62" x1="0.592" y1="-0.001" x2="0.411" y2="0.936" xlink:href="#linear-gradient-59"/>
    <linearGradient id="linear-gradient-63" x1="0.169" y1="0.533" x2="0.934" y2="0.421" xlink:href="#linear-gradient-39"/>
    <linearGradient id="linear-gradient-64" x1="0.729" y1="0.663" x2="0.382" y2="0.196" xlink:href="#linear-gradient-39"/>
    <linearGradient id="linear-gradient-65" x1="-0.039" y1="0.632" x2="0.779" y2="0.462" xlink:href="#linear-gradient-8"/>
    <linearGradient id="linear-gradient-66" x1="-0.498" y1="0.328" x2="1.686" y2="0.663" xlink:href="#linear-gradient-59"/>
    <linearGradient id="linear-gradient-67" x1="0.5" y1="-0.054" x2="0.529" y2="0.857" xlink:href="#linear-gradient-24"/>
    <linearGradient id="linear-gradient-68" x1="0.489" y1="0.831" x2="0.51" y2="0.197" xlink:href="#linear-gradient-24"/>
    <linearGradient id="linear-gradient-69" x1="0.501" y1="0.051" x2="0.499" y2="0.972" xlink:href="#linear-gradient-30"/>
    <linearGradient id="linear-gradient-70" x1="0" y1="0.5" x2="1" y2="0.5" xlink:href="#linear-gradient-8"/>
    <linearGradient id="linear-gradient-71" x1="0.114" y1="0.5" x2="0.783" y2="0.5" xlink:href="#linear-gradient-8"/>
    <linearGradient id="linear-gradient-72" x1="0.347" y1="0.205" x2="0.941" y2="0.845" xlink:href="#linear-gradient-52"/>
    <linearGradient id="linear-gradient-73" x1="0.428" y1="0.131" x2="0.557" y2="0.856" xlink:href="#linear-gradient-52"/>
    <linearGradient id="linear-gradient-74" x1="0.552" y1="0.991" x2="0.49" y2="0.337" xlink:href="#linear-gradient-52"/>
    <linearGradient id="linear-gradient-75" x1="0.28" y1="0.12" x2="0.764" y2="0.839" xlink:href="#linear-gradient-24"/>
    <linearGradient id="linear-gradient-76" x1="0.019" y1="0.506" x2="0.782" y2="0.497" xlink:href="#linear-gradient-8"/>
    <linearGradient id="linear-gradient-77" x1="-0.006" y1="0.474" x2="0.846" y2="0.525" xlink:href="#linear-gradient-8"/>
    <linearGradient id="linear-gradient-78" x1="-0.03" y1="0.455" x2="0.822" y2="0.54" xlink:href="#linear-gradient-8"/>
    <linearGradient id="linear-gradient-79" x1="-0.007" y1="0.338" x2="1.019" y2="0.71" xlink:href="#linear-gradient-8"/>
    <linearGradient id="linear-gradient-80" x1="0.37" y1="0.164" x2="0.576" y2="0.737" xlink:href="#linear-gradient-24"/>
    <linearGradient id="linear-gradient-81" x1="0.578" y1="0.756" x2="0.426" y2="0.257" xlink:href="#linear-gradient-24"/>
    <linearGradient id="linear-gradient-82" x1="0.428" y1="-0.006" x2="0.547" y2="0.832" xlink:href="#linear-gradient-30"/>
    <linearGradient id="linear-gradient-83" x1="-0.185" y1="0.542" x2="0.136" y2="0.116" xlink:href="#linear-gradient-8"/>
    <linearGradient id="linear-gradient-84" x1="0.034" y1="0.477" x2="0.262" y2="0.103" xlink:href="#linear-gradient-8"/>
    <linearGradient id="linear-gradient-85" x1="0.044" y1="0.551" x2="0.209" y2="0.211" xlink:href="#linear-gradient-8"/>
    <linearGradient id="linear-gradient-86" x1="0.055" y1="0.59" x2="0.268" y2="0.225" xlink:href="#linear-gradient-8"/>
    <linearGradient id="linear-gradient-87" x1="0.502" y1="0.171" x2="0.491" y2="1.804" gradientUnits="objectBoundingBox">
      <stop offset="0" stop-color="#49e3f2" stop-opacity="0"/>
      <stop offset="0.093" stop-color="#49dcf2" stop-opacity="0.055"/>
      <stop offset="0.266" stop-color="#49caf3" stop-opacity="0.196"/>
      <stop offset="0.501" stop-color="#4badf5" stop-opacity="0.427"/>
      <stop offset="0.786" stop-color="#4c86f7" stop-opacity="0.745"/>
      <stop offset="1" stop-color="#4e67f9"/>
    </linearGradient>
    <linearGradient id="linear-gradient-88" x1="0.502" y1="0.235" x2="0.49" y2="1.868" xlink:href="#linear-gradient-87"/>
    <linearGradient id="linear-gradient-89" x1="0.502" y1="0.276" x2="0.49" y2="1.91" xlink:href="#linear-gradient-87"/>
    <linearGradient id="linear-gradient-90" x1="0.502" y1="0.148" x2="0.491" y2="1.782" xlink:href="#linear-gradient-87"/>
    <linearGradient id="linear-gradient-91" x1="0.502" y1="0.208" x2="0.49" y2="1.842" xlink:href="#linear-gradient-87"/>
    <linearGradient id="linear-gradient-92" x1="0.502" y1="0.153" x2="0.491" y2="1.786" xlink:href="#linear-gradient-87"/>
    <linearGradient id="linear-gradient-93" x1="0.502" y1="0.208" x2="0.49" y2="1.842" xlink:href="#linear-gradient-87"/>
    <linearGradient id="linear-gradient-94" x1="0.502" y1="0.197" x2="0.491" y2="1.83" xlink:href="#linear-gradient-87"/>
  </defs>
  <g id="Vector_Smart_Object3" data-name="Vector Smart Object3" transform="translate(-131.928 -109.666)">
    <g id="Layer_3" data-name="Layer 3">
      <ellipse id="Ellipse_1" data-name="Ellipse 1" cx="282.308" cy="282" rx="282.308" ry="282" transform="translate(131.928 109.666)" opacity="0.3" fill="url(#linear-gradient)"/>
      <ellipse id="Ellipse_2" data-name="Ellipse 2" cx="103.474" cy="103.362" rx="103.474" ry="103.362" transform="translate(729.985 436.079)" opacity="0.3" fill="url(#linear-gradient-2)"/>
      <g id="Group_1" data-name="Group 1">
        <path id="Path_1" data-name="Path 1" d="M311.313,162.274l.345,473.3c-.345,7.032,13.727,13.336,24.146,9.936L525.748,247.818,336.812,146.111l-1.321-2.208S311.3,146.44,311.313,162.274Z" fill="#6e69c9"/>
        <path id="Path_2" data-name="Path 2" d="M547.337,582.386l-210.418,62.9c-3.092.924-5.617-.809-5.619-3.877l-.355-485.551c0-8.86,2.522-12.75,5.616-11.829l210.575,62.664c1.727.514,3.121,2.772,3.122,5.047l.2,365.6C550.454,579.611,549.063,581.87,547.337,582.386Z" fill="url(#linear-gradient-3)"/>
        <path id="Path_3" data-name="Path 3" d="M537.191,528.53c0,3.17-1.981,6.171-4.444,6.713l-9.254,2.027-36.383,7.967-21.185,4.637-16.457,3.6L377.4,569.26l-15.931,3.487a5.709,5.709,0,0,1-7.244-5.791L354.139,448.1l-.179-256.749c0-4.076,3.254-6.549,7.239-5.531l171.379,43.761c2.465.629,4.451,3.7,4.452,6.874l.025,44.065Z" fill="#fff"/>
        <path id="Path_4" data-name="Path 4" d="M503.206,576.678,404.4,603.442c-3.34.9-6.071-1.279-6.073-4.884l0-4.247a8.6,8.6,0,0,1,6.065-8.037L503.2,561.7c2.52-.627,4.551,1.381,4.552,4.48l0,3.65C507.754,572.934,505.726,576,503.206,576.678Z" fill="#dcf2f9"/>
        <path id="Path_5" data-name="Path 5" d="M504.624,210.983,401.97,183.021a2.594,2.594,0,0,1-1.78-2.392v-2a1.348,1.348,0,0,1,1.777-1.41l102.654,28.73a2.133,2.133,0,0,1,1.334,2.021V209.7C505.956,210.608,505.36,211.184,504.624,210.983Z" fill="#dcf2f9"/>
        <path id="Path_6" data-name="Path 6" d="M384.233,175.223a2.473,2.473,0,0,1-3.281,2.537,4.761,4.761,0,0,1-3.313-4.357,2.474,2.474,0,0,1,3.308-2.529A4.767,4.767,0,0,1,384.233,175.223Z" fill="#dcf2f9"/>
        <path id="Path_7" data-name="Path 7" d="M373.039,172.132c0,3.492-2.742,5.586-6.156,4.67a8.885,8.885,0,0,1-6.26-8.1c0-3.546,2.808-5.621,6.251-4.644A8.9,8.9,0,0,1,373.039,172.132Z" fill="#dcf2f9"/>
        <path id="Path_8" data-name="Path 8" d="M499.351,406.808c-29.633,49.315-18.256,113.869-12.242,138.429l-21.185,4.637-16.457,3.6L377.4,569.26l-15.931,3.487a5.709,5.709,0,0,1-7.244-5.791L354.139,448.1c17.453-50.14,62.3-88.583,114.609-111.542,62.632-27.489,63.831-106.977,63.831-106.977,2.465.629,4.451,3.7,4.452,6.874l.025,44.065C534.455,311.257,526.1,362.292,499.351,406.808Z" fill="url(#linear-gradient-4)"/>
      </g>
    </g>
    <g id="Layer_2" data-name="Layer 2">
      <g id="Group_11" data-name="Group 11">
        <path id="Path_9" data-name="Path 9" d="M878.776,639.22s3.578,8.5,8.884,12.326,12.956,9.737,12.833,11.956-16.411,4.684-21.717-2.712-6.417-9.737-6.417-9.737l-1.111,3.451s-6.293-.986-6.416-4.068,2.961-12.079,3.332-14.3C872.483,638.481,878.776,639.22,878.776,639.22Z" fill="url(#linear-gradient-5)"/>
        <path id="Path_10" data-name="Path 10" d="M806.838,631.948s1.049,9.8-1.049,13.25l-5.306,1.6-1.3-4.5s-2.1,5.855-2.468,6.1-17.543,4.581-22.581,3.759c-3.779-.616-7.645-5.963,2.06-9.9,16.943-6.867,19.411-11.427,20.151-12.66C800.175,630.346,806.838,631.948,806.838,631.948Z" fill="url(#linear-gradient-6)"/>
        <path id="Path_11" data-name="Path 11" d="M887.659,443.611s-2.034,32.168-3.608,101.687c-1.3,57.386-2.913,85.794-3.436,93.962a2.641,2.641,0,0,1-2.807,2.465c-3.533-.233-9.48-1.085-10.508-4.17-1.481-4.437-2.963-50.474-12.123-87.36-2.01-8.091-3.686-14.752-5.079-20.222-1.576-6.2-2.788-10.871-3.708-14.357C831.863,536.792,812.884,619.436,809,632.2c-5.368,3.512-14.9-1.844-14.9-1.844s1.665-36.89,8.884-94.853,17.77-94.571,17.77-94.571l15.085,4.53c5.856-3.257,18.99-1,23.989.028l11.717-5.667Z" fill="url(#linear-gradient-7)"/>
        <path id="Path_12" data-name="Path 12" d="M954.293,451s3.424,2.034,13.234.462,12.031-1.438,12.956.067-6.386,4.37-9.347,4.37,1.388,2.866,8.792,7.026,5.46,6.286,1.388,5.731c0,0,.463,3.051-3.147,1.664,0,0,0,1.988-3.146.878,0,0,.231,1.883-3.7.761s-9.316-2.163-13.45-6.292a65.013,65.013,0,0,0-9.563-7.58Z" fill="url(#linear-gradient-8)"/>
        <path id="Path_13" data-name="Path 13" d="M846.57,347.751l9.372-8.679,13.324,5.314s20.274,65.154,18.394,99.224c0,0-23.331,10.686-51.824,1.848l3.886-85.788Z" fill="url(#linear-gradient-9)"/>
        <path id="Path_14" data-name="Path 14" d="M956.885,450.634a11.53,11.53,0,0,1-9.81,8.6c-25.111-12.465-40.452-27.239-49.236-38.162-7.437-9.245-10.179-15.733-10.179-15.733l-2.077-10.9L879.054,337.4a38.5,38.5,0,0,1,11.013,4.707c6.292,4.252,12.03,21.169,27.023,56.946S956.885,450.634,956.885,450.634Z" fill="url(#linear-gradient-10)"/>
        <path id="Path_15" data-name="Path 15" d="M897.839,421.07c-7.437-9.245-10.179-15.733-10.179-15.733l-2.077-10.9L879.054,337.4s9.9,6.555,11.753,18.2C892.453,365.955,894.535,404.35,897.839,421.07Z" fill="#102c54"/>
        <path id="Path_16" data-name="Path 16" d="M849.9,342.475s12.463,41.23,3.455,76.729-19,50.563-10.118,64.478c0,0-25.913-8.178-32.946-25.6,0,0,11.846-23.343,10.735-56.253s-3.7-53.494.37-57.439,20.113-7.042,20.113-7.042Z" fill="url(#linear-gradient-11)"/>
        <path id="Path_17" data-name="Path 17" d="M867.547,332.183s10.118,3.116,13.45,6.889,8.607,25.867,9.162,68.3,4.72,52.138,5.275,58.517-22.581,21.077-22.581,21.077,3.972-2.647,5.022-24.7c1.134-23.808-1.32-60.359-6.873-82.629S860.877,347,860.877,347l.868-7.925Z" fill="url(#linear-gradient-12)"/>
        <path id="Path_18" data-name="Path 18" d="M857.655,346.481s5.759,10.97,5.111,54.789-14.039,61.013-14.039,61.013l21.165,21.4s13.049-17.516,14.159-25.559c0,0,.278-52.6-9.717-77.746s-13.2-35.129-13.2-35.129Z" fill="url(#linear-gradient-13)"/>
        <path id="Path_19" data-name="Path 19" d="M853.357,343.646s2.468,3.821,4.566,4.068,4.807-.616,3.822-5.423c-1.725-2.958-5.8-3.218-5.8-3.218Z" fill="url(#linear-gradient-14)"/>
        <path id="Path_20" data-name="Path 20" d="M855.942,339.072l8.026,5.314,3.578-12.2a3.408,3.408,0,0,0-4.781-1.356l-6.2,3.328Z" fill="url(#linear-gradient-15)"/>
        <path id="Path_21" data-name="Path 21" d="M855.942,339.072l-1.922,8.642-12.509-10.37s.8-4.175,4.226-5.038A49.516,49.516,0,0,1,855.942,339.072Z" fill="url(#linear-gradient-15)"/>
        <path id="Path_22" data-name="Path 22" d="M862.766,330.826s-6.685,9.152-8.018,8.969-8.918-5.824-9.011-7.489c-.032-.589-.1-1.678-.173-2.841-.136-2.114-.289-4.463-.289-4.463l16.936-8.412.328,8.447Z" fill="url(#linear-gradient-17)"/>
        <path id="Path_23" data-name="Path 23" d="M862.539,325.036l-16.975,4.428c-.136-2.114-.289-4.463-.289-4.463l16.936-8.412Z" fill="#f28cb3"/>
        <g id="Group_10" data-name="Group 10">
          <rect id="Rectangle_1" data-name="Rectangle 1" width="46.326" height="70.784" rx="3.911" transform="matrix(0.844, 0.536, -0.537, 0.844, 843.225, 380.187)" fill="url(#linear-gradient-18)"/>
          <rect id="Rectangle_2" data-name="Rectangle 2" width="41.399" height="65.859" rx="2.735" transform="matrix(0.844, 0.536, -0.537, 0.844, 843.984, 383.585)" fill="#fff"/>
          <rect id="Rectangle_3" data-name="Rectangle 3" width="33.639" height="8.85" rx="4.095" transform="matrix(0.844, 0.536, -0.537, 0.844, 818.519, 430.865)" fill="#dcf2f9"/>
          <g id="Group_2" data-name="Group 2">
            <path id="Path_24" data-name="Path 24" d="M870.276,395.485l-4.624-2.934,1.467-2.307a2.393,2.393,0,0,0-.738-3.3h0a2.4,2.4,0,0,0-3.308.737l-1.467,2.306-4.624-2.934a2.731,2.731,0,0,0-3.766.84L851.8,390.11l8.951,5.679,8.951,5.679,1.412-2.221A2.724,2.724,0,0,0,870.276,395.485Z" fill="url(#linear-gradient-19)"/>
            <ellipse id="Ellipse_3" data-name="Ellipse 3" cx="1.38" cy="1.379" rx="1.38" ry="1.379" transform="translate(863.624 387.725)" fill="#fff"/>
          </g>
          <g id="Group_9" data-name="Group 9">
            <g id="Group_3" data-name="Group 3">
              <rect id="Rectangle_4" data-name="Rectangle 4" width="1.173" height="29.434" transform="matrix(0.537, -0.844, 0.844, 0.536, 843.782, 395.051)" fill="#dcf2f9"/>
            </g>
            <g id="Group_4" data-name="Group 4">
              <rect id="Rectangle_5" data-name="Rectangle 5" width="1.173" height="29.434" transform="matrix(0.537, -0.844, 0.844, 0.536, 839.809, 401.3)" fill="#dcf2f9"/>
            </g>
            <g id="Group_5" data-name="Group 5">
              <rect id="Rectangle_6" data-name="Rectangle 6" width="1.173" height="29.434" transform="matrix(0.537, -0.844, 0.844, 0.536, 835.836, 407.548)" fill="#dcf2f9"/>
            </g>
            <g id="Group_6" data-name="Group 6">
              <rect id="Rectangle_7" data-name="Rectangle 7" width="1.173" height="29.434" transform="matrix(0.537, -0.844, 0.844, 0.536, 831.863, 413.797)" fill="#dcf2f9"/>
            </g>
            <g id="Group_7" data-name="Group 7">
              <rect id="Rectangle_8" data-name="Rectangle 8" width="1.173" height="29.434" transform="matrix(0.537, -0.844, 0.844, 0.536, 827.891, 420.045)" fill="#dcf2f9"/>
            </g>
            <g id="Group_8" data-name="Group 8">
              <rect id="Rectangle_9" data-name="Rectangle 9" width="1.173" height="29.434" transform="matrix(0.537, -0.844, 0.844, 0.536, 823.918, 426.293)" fill="#dcf2f9"/>
            </g>
          </g>
        </g>
        <path id="Path_25" data-name="Path 25" d="M842.591,436.49s6.663-1.849,9.254-1.479,1.111,2.311,1.111,2.311,9.162.924,10.087,2.4-.538,2.866-2.166,2.4c0,0,1.919,2.4-.857,3.02,0,0,.552,2.505-1.789,2.219,0,0,.493,2.1-1.913,1.787s-11.969-2.28-16.6-6.656C842.067,437.322,842.591,436.49,842.591,436.49Z" fill="url(#linear-gradient-20)"/>
        <path id="Path_26" data-name="Path 26" d="M820.287,345.248c5.926.437,20.175,18.489,11.476,34.759s-14.181,23.481-11.44,26.809S838.8,424.2,843.794,436.583c0,0-2.221,7.4-5.09,7.4s-25.635-11.093-37.481-20.522-9.81-14.408-5.923-28.374S807.922,344.337,820.287,345.248Z" fill="url(#linear-gradient-21)"/>
        <path id="Path_27" data-name="Path 27" d="M839.29,298.163s-3.085,3.451-2.591,15.9-.864,17.5,9.625,13.682a54.449,54.449,0,0,0,16.411-9.121l6.787-2.712,3.332-6.779-10.242-12.326Z" fill="url(#linear-gradient-22)"/>
        <path id="Path_28" data-name="Path 28" d="M858.046,315.666s3.948-11.217,8.144-9,1.357,9.737-3.455,11.956c0,0,5.676,2.465,11.846-3.7s2.344-10.97-.74-13.558-2.221-6.533-.123-10.354.617-10.847-8.021-9S847.8,278.2,848.668,269.444s9.131-14.052,9.131-14.052-19.148-3.156-29.368,13.99c-9.563,16.044-2.591,31.616,10.488,33.095,9.256,1.047,15.176-.5,17.845-1.492a1.368,1.368,0,0,1,1.84,1.182A59.153,59.153,0,0,1,858.046,315.666Z" fill="url(#linear-gradient-23)"/>
        <path id="Path_29" data-name="Path 29" d="M860.877,492.986,850.1,529.974c-1.576-6.2-2.788-10.871-3.708-14.357Z" fill="#102c54"/>
      </g>
      <g id="Group_12" data-name="Group 12">
        <path id="Path_30" data-name="Path 30" d="M211.489,617.839l2.036,2.034s7.589,5.115,7.712,8.32-13.573,1.849-18.756.863-6.046-6.04-6.663-11.217-4.072-10.107-4.072-10.107l-6.786,6.163-3.455-4.807s6.046-3.328,7.28-8.752,7.65-9.367,11.414-7.827c4.257,4.869,5,13.374,5,13.374Z" fill="url(#linear-gradient-24)"/>
        <path id="Path_31" data-name="Path 31" d="M245.545,607.978s-5.306.863-5.553,10.107,0,16.393,0,16.393h5.553v-8.5s5.553,3.944,7.157,7.642,6.046,4.684,13.326,4.684,16.288.123,12.093-5.793-11.722-9.368-11.722-9.368l-8.638-4.314Z" fill="url(#linear-gradient-25)"/>
        <path id="Path_32" data-name="Path 32" d="M267.51,504.779s1.634,17.195-3.086,40.768-9.162,60.736-5,67.946,6.972,9.645,6.972,9.645-7.033,4.56-12.956-2.958-10.118-7.149-8.761-13.189.845-35.56-.256-57.562a376.967,376.967,0,0,0-4.433-41.045Z" fill="url(#linear-gradient-26)"/>
        <path id="Path_33" data-name="Path 33" d="M240.918,505.981S244.25,511.713,235,537.6s-22.4,56.206-23.136,66.745,1.666,15.531,1.666,15.531-5.923,1.479-8.884-7.4-7.774-16.455-4.442-19.968c3.887-7.4,7.959-18.489,7.959-36.423s.74-40.49,7.034-47.146C228.517,507.091,240.918,505.981,240.918,505.981Z" fill="url(#linear-gradient-27)"/>
        <path id="Path_34" data-name="Path 34" d="M263.129,371.383s-1.666,33.65,5.923,54.357,14.622,42.524,11.846,46.222-3.455-11.463-6.17-11.093-2.159,7.211-3.825,5.547-1.666-7.95-.925-11.093-10.18-16.085-10.18-16.085L253.5,407.621l3.7-19.968Z" fill="url(#linear-gradient-28)"/>
        <path id="Path_35" data-name="Path 35" d="M210.563,326.27s4.134-4.983,14.375-6.7l15.3-5.074s11.105,2.712,20.977,18.242,10.859,23.789,5.059,37.471-10.859,33.157-8.884,46.962,13.326,57.932,16.1,70.874a53.556,53.556,0,0,1,0,23.111s-12.4-8.875-31.836,0-37.2,0-37.2,0,5.738-7.4-1.481-38.642-4.072-51.029,0-63.417-.641-28.076-.641-28.076C199.395,360.744,210.563,326.27,210.563,326.27Z" fill="url(#linear-gradient-29)"/>
        <rect id="Rectangle_10" data-name="Rectangle 10" width="38.862" height="58.741" rx="2.412" transform="matrix(0.921, 0.391, -0.391, 0.92, 225.609, 359.266)" fill="url(#linear-gradient-30)"/>
        <rect id="Rectangle_11" data-name="Rectangle 11" width="13.35" height="20.178" rx="2.239" transform="matrix(0.921, 0.391, -0.391, 0.92, 229.804, 381.993)" fill="#fff"/>
        <path id="Path_36" data-name="Path 36" d="M240.24,303.79l.308,1.587-.308,9.121s9.995,13.189,10.982,16.887-9.995,6.286-14.437.863-9.131-11.3-11.846-12.676l4.919-18.551Z" fill="url(#linear-gradient-31)"/>
        <path id="Path_37" data-name="Path 37" d="M233.792,405.679c-1.573-1.479-25.265-3.513-32.853-4.437s-21.586-1.017-19.087-15.438c1.6-9.233,13.84-39.182,21.778-53.683,4.461-8.149,6.934-5.851,6.934-5.851s20.545,16.547,5.83,37.347l-12.525,17.705a2.9,2.9,0,0,0,1.375,4.395c7.168,2.607,23.114,8.372,28.642,10.071,7.219,2.219,11.291-3.143,13.326-2.034s.74,4.622.74,4.622l2.7.556a1.433,1.433,0,0,1,1.094,1.768c-.221.847-.568,1.4-2.063,1.4a2.2,2.2,0,0,1,.8,2.342,1.41,1.41,0,0,1-1.82.894s1.172,1.233.648,2.373a1.515,1.515,0,0,1-1.666.894s.679,1.2-.833,1.972S235.366,407.158,233.792,405.679Z" fill="url(#linear-gradient-32)"/>
        <path id="Path_38" data-name="Path 38" d="M228.27,301.31l12.278,4.068,8.206,2.835,5.306-8.751V271.728l-8.391-2.958-14.684,21.447Z" fill="url(#linear-gradient-33)"/>
        <path id="Path_39" data-name="Path 39" d="M240.24,314.5l.308-9.121s6.108,3.328,8.144-6.471,3.332-24.405-1.758-27.086c0,0-8.628,10.979-13.111,19.876-4.658,9.244-4.936,12.018-5.491,20.06s5.84,40.218-11.291,48.163c-10.365,4.807-27.331-.473-32.761-8.32-4.094-5.915-4.812-19.6-2.161-28.288,5.192-17.013,14.006-20.707,19.281-41.23s11.692-35.745,25.141-36.238,17.892,8.751,23.321,9.368,11.105,1.726,12.093,7.889-6.91,14.052-3.825,31.308c2.179,12.192,11.66,18.157,9.043,29.3-1.91,8.135-7.568,6.627-7.568,6.627S252.057,318.529,240.24,314.5Z" fill="url(#linear-gradient-34)"/>
      </g>
      <g id="Group_13" data-name="Group 13">
        <path id="Path_40" data-name="Path 40" d="M358.833,572.814c.574-3.149,53.907-42.319,72.326-99.23a118.772,118.772,0,0,0,5.036-53.837l48.031,3.525s5.159,7.793,1.561,36.251c-1.268,10.017-9.182,25.731-21.231,42.908-3.461,4.937-7.268,10-11.358,15.078a300.014,300.014,0,0,1-44.466,44.89l-47.265,10.349A6.221,6.221,0,0,1,358.833,572.814Z" fill="url(#linear-gradient-35)"/>
        <path id="Path_41" data-name="Path 41" d="M464.556,502.431c-3.461,4.937-7.268,10-11.358,15.078-4.893-17.3-22.039-43.924-22.039-43.924l29.832,15.321Z" fill="#18386b"/>
        <path id="Path_42" data-name="Path 42" d="M558.57,612.227a26.066,26.066,0,0,0,16.9,5.917c10.612,0,13.326-.37,14.684,1.479s-3.208,6.286-14.19,9.244-15.708,2.712-15.708,2.712l-4.528-3.082v4.068s-7.4,2.835-8.514,2.219-6.17-14.791-3.393-18.674C546.6,614.322,558.57,612.227,558.57,612.227Z" fill="url(#linear-gradient-36)"/>
        <path id="Path_43" data-name="Path 43" d="M460.992,424.387s27.121,34.752,61.548,94.656,37.721,93.923,37.721,93.923-10.328,6.1-16.436,3.143c0,0-24.062-50.1-50.437-79.5S436.2,482.25,423.424,463.946s1.943-47.7,1.943-47.7l10.828,3.5Z" fill="url(#linear-gradient-37)"/>
        <path id="Path_44" data-name="Path 44" d="M580.75,419.746s1.666,1.1,8.237,0,11.667-3.06,14.659-1.467-.881,3.1-.881,3.1-16,8.631-18.684,9.423-6.835-1.148-6.835-1.148Z" fill="url(#linear-gradient-38)"/>
        <path id="Path_45" data-name="Path 45" d="M577.079,416.245s5.182,2.219,5.553,3.944-4.023,10.415-4.911,10.6-5.886-2.588-5.886-2.588Z" fill="url(#linear-gradient-39)"/>
        <path id="Path_46" data-name="Path 46" d="M480.216,325.436s13.45-.187,30.355,24.742c19.211,28.33,40.091,54.1,66.776,64.386a1.642,1.642,0,0,1,.969,2.057c-1.256,3.723-4.691,13.03-7.652,13.029-3.7,0-48.9-8.413-81.366-47.98l-3.961-16.085Z" fill="url(#linear-gradient-40)"/>
        <path id="Path_47" data-name="Path 47" d="M473.491,426.044s-23.969,2.75-37.3-6.3c3.887-19.309,19.712-97.794,19.712-97.794l8.884,6.964,4.112-1.14,5.019,1.448,7.114,4.677,4.752,39.635Z" fill="url(#radial-gradient)"/>
        <path id="Path_48" data-name="Path 48" d="M478.365,322.815s9.063,2.465,10.932,36.022c1.579,28.331,1.824,51.982-.476,62.223a5.731,5.731,0,0,1-5.3,4.445l-10.035.539s-4.871-23.111.85-48.071,5.134-37.424,2.42-44.072l-.123-6.772Z" fill="url(#linear-gradient-41)"/>
        <path id="Path_49" data-name="Path 49" d="M455.907,321.952s7.582,16.363,2.4,37.717-20.449,56.853-19.061,75.712,3.054,19.413,3.054,19.413-26.56-11-27.3-19.69c2.776-11.463,9.254-30.661,7.311-60.674s-3.609-36.762,1.758-39.535S451.749,322.14,455.907,321.952Z" fill="url(#linear-gradient-42)"/>
        <path id="Path_50" data-name="Path 50" d="M472.2,338.325s5,6.923,8.7,31.144,14.437,52.94,30.54,60.859c0,0-7.033,15.685-6.108,26.223,0,0-14.992-9.984-27.393-12.942,0,0-12.586-28.658-10.55-56.206a367.49,367.49,0,0,0,.607-47.786A3.883,3.883,0,0,1,472.2,338.325Z" fill="url(#linear-gradient-43)"/>
        <path id="Path_51" data-name="Path 51" d="M474.482,333.354s-.93,5.917-2.287,6.225-3.825,1.109-4.874-.678a49.26,49.26,0,0,1-2.53-5.978l4.112-5.146Z" fill="url(#linear-gradient-44)"/>
        <path id="Path_52" data-name="Path 52" d="M468.9,327.776l7.734,9.244,3.028-12.344a3.794,3.794,0,0,0-1.809-4.245,4.079,4.079,0,0,0-3.4-.163C471.085,321.952,468.9,327.776,468.9,327.776Z" fill="url(#linear-gradient-45)"/>
        <path id="Path_53" data-name="Path 53" d="M468.9,327.776l-4.092,10.549s-8.627-10.086-9.83-14.154,3.331-5.917,3.331-5.917l8.792,6.841Z" fill="url(#linear-gradient-46)"/>
        <path id="Path_54" data-name="Path 54" d="M473.953,314.649l.917,6a3.726,3.726,0,0,1-.875,3.014c-1.458,1.67-3.943,4.281-5.093,4.109-3.094-.462-10.775-6.379-10.59-9.522s2.221-7.858,2.221-7.858l3.054-3.883Z" fill="url(#linear-gradient-47)"/>
        <path id="Path_55" data-name="Path 55" d="M393.717,459.386a13.754,13.754,0,0,0-.679,7.519c.925,3.575.247,5.239-.679,5.115s-1.574-1.356-1.574-1.356a10.641,10.641,0,0,0-1.326,5.608c.309,2.773,1.419,6.594-.679,7.4s-4.27-5.423-5.282-10.477-1.443-10.169,2.32-16.64C388.6,457.352,393.717,459.386,393.717,459.386Z" fill="url(#linear-gradient-48)"/>
        <path id="Path_56" data-name="Path 56" d="M397.727,454.517s-1.172,7.026-2.221,6.779-11.6-3.883-11.661-5.3,1.789-6.1,1.789-6.1Z" fill="url(#linear-gradient-49)"/>
        <path id="Path_57" data-name="Path 57" d="M422.742,335.8s15.167,5.57,14.819,29.236S411.3,417.17,405.933,433.07c-3.869,11.46-5.718,18.118-6.45,20.943a1.686,1.686,0,0,1-2.054,1.209c-4.154-1.065-14.636-4.094-13.893-7.361,2.406-5.547,6.293-39.381,16.1-68.594S416.97,335.771,422.742,335.8Z" fill="url(#linear-gradient-50)"/>
        <path id="Path_58" data-name="Path 58" d="M492.678,294.219s-2.437,24.128-8.175,25.514-21.81-11.217-21.81-11.217l-3.177-1.487-1.943-10.037,11.568-11.371Z" fill="url(#linear-gradient-51)"/>
        <path id="Path_59" data-name="Path 59" d="M468.37,301.614s2.344-8.874,2.159-13.219c0,0,15.979,12.85,36.71,5.084s17.892-31.8,6.54-36.608-19.5,4.068-20.854,13.065-13.08,9-18.509,3.451-14.314-.739-14.19,6.656-2.838,7.026-6.663,7.026-8.346,10.115-.74,17.872c7.035,7.175,7.218,6.625,7.218,6.625l2.509-3.229s-4.49-5.231-.961-9.325C465.413,294.576,468.37,301.614,468.37,301.614Z" fill="url(#linear-gradient-52)"/>
      </g>
      <g id="Group_16" data-name="Group 16">
        <path id="Path_60" data-name="Path 60" d="M665.244,611.395s3.7,1.572,2.961,8.043-.833,16.363-.833,16.363H662.19s.833-3.975-1.388-6.841c0,0-6.108,7.488-13.789,10.539s-19.064.924-14.437-3.051a89.365,89.365,0,0,1,8.792-6.656l5.738-2.126S664.416,611.84,665.244,611.395Z" fill="url(#linear-gradient-53)"/>
        <path id="Path_61" data-name="Path 61" d="M673.573,640.237l-4.072.647s-8.329,5.731-9.069,8.69,11.476,3.79,16.473,2.034,11.2-9.8,11.2-9.8v10.712h4.442s-.278-9.787,1.388-13.023,4.535-11.555,0-14.791c-5.09,1.109-10.18,9.614-10.18,9.614Z" fill="url(#linear-gradient-54)"/>
        <path id="Path_62" data-name="Path 62" d="M683.753,619.437a26,26,0,0,1-6.848,14.421c-6.108,6.194-7.4,7.026-7.4,7.026s5.83,4.622,11.476-.462,12.956-15.715,12.956-15.715l-.925-4.53Z" fill="url(#linear-gradient-55)"/>
        <path id="Path_63" data-name="Path 63" d="M664.041,615.185a99.559,99.559,0,0,0-8.514,9.614c-3.609,4.807-10.087,6.564-14.159,4.992,0,0,10.643-9.337,13.049-14.606A62.394,62.394,0,0,0,664.041,615.185Z" fill="url(#linear-gradient-56)"/>
        <path id="Path_64" data-name="Path 64" d="M712.119,511.1a268.729,268.729,0,0,1-3.921,27.625c-.762,3.848-1.576,7.427-2.419,10.638-1.255,4.78-2.472,10.634-3.617,16.922-3.829,21.022-6.837,46.879-7.586,53.553a1.833,1.833,0,0,1-1.317,1.56h0a1.8,1.8,0,0,1-.507.071h-8.918a1.741,1.741,0,0,1-.412-.047A1.832,1.832,0,0,1,682,619.732c-.389-7.407-1.943-37.127-3.148-62.88-.97-20.731-3.429-34.154-3.688-47.55v-.015c-.112-5.772-.263-21.676-.263-21.676-.1.173-1.963,5.006-4.284,11.713-3.993,11.529-9.357,28.589-9.532,37.006-.233,11.173,3.76,61.027,5.09,75.707.084.919.156,1.7.212,2.325a1.836,1.836,0,0,1-1.581,1.984l-2.2.3-3.956.539-3.04.416a1.834,1.834,0,0,1-1.924-1.063,1.663,1.663,0,0,1-.121-.358c-2.127-9.633-12.9-58.578-15.15-71.812-2.5-14.7-7.033-51.387,1.3-74.6a111.421,111.421,0,0,0,4.584-17.931,221.443,221.443,0,0,0,3-38.652s1.52.382,4.12.917c1.49.308,3.336.664,5.452,1.029a164.411,164.411,0,0,0,16.876,2.051c2.678.179,5.435.285,8.2.283a70.828,70.828,0,0,0,19.4-2.358,229.281,229.281,0,0,0,7.342,41.488q.476,1.712.989,3.443C713.585,473.207,713.786,492.555,712.119,511.1Z" fill="url(#linear-gradient-57)"/>
        <path id="Path_65" data-name="Path 65" d="M573.254,399.328a25.8,25.8,0,0,1-13.882.555c-8.051-1.757-13.789-.924-13.141,2.034s6.941,2.774,9.9,2.774c2,0,7.654,3.636,11.1,5.989a8.744,8.744,0,0,0,6.278,1.414l2.425-.378S576.678,403.95,573.254,399.328Z" fill="url(#linear-gradient-58)"/>
        <path id="Path_66" data-name="Path 66" d="M668.39,331.32s-11.661-1.985-26.653,18.451-34.8,42.993-71.63,48.724c0,0,4.812,5.533,3.331,14.692,0,0,58.039-4.261,72.555-23.382,10.18-29.4,17.769-50.308,17.769-50.308Z" fill="url(#linear-gradient-59)"/>
        <path id="Path_67" data-name="Path 67" d="M681.08,426.506s-22.813,3.266-30.273-3.651c.555-20.754,11.105-73.084,11.105-73.084l3.517-9.058H676.48l11.9,9.058Z" fill="url(#linear-gradient-60)"/>
        <path id="Path_68" data-name="Path 68" d="M691.064,332.029s20.036,8.685,27.44,18.4c2.406,12.2-.694,20.523-5.321,42.524s-8.7,47.7,3.147,60.458c0,0-25.727,13.312-40.9,2.219,0,0-2.036-13.127-1.666-40.121s3.263-55.268,10.893-69.518C689.676,334.34,691.064,332.029,691.064,332.029Z" fill="url(#linear-gradient-61)"/>
        <path id="Path_69" data-name="Path 69" d="M672.092,332.029s-10.735,19.321-13.511,54.819-2.591,65.451-2.591,65.451-9.439,3.883-16.288-4.067c0,0,2.036-19.783,4.072-35.684s-3.887-31.986,2.036-45.852,17.718-33.608,22.581-35.375C673.779,330.087,672.092,332.029,672.092,332.029Z" fill="url(#linear-gradient-62)"/>
        <path id="Path_70" data-name="Path 70" d="M676.48,340.713,664.5,345.988s4.48-12.2,5.988-14.329a5.022,5.022,0,0,1,4.1-1.979Z" fill="url(#linear-gradient-63)"/>
        <path id="Path_71" data-name="Path 71" d="M676.48,340.713l8.754,8.6,7.287-14.643a2.826,2.826,0,0,0-.241-2.935,4.255,4.255,0,0,0-3.974-2.021C683.938,333.415,676.48,340.713,676.48,340.713Z" fill="url(#linear-gradient-64)"/>
        <path id="Path_72" data-name="Path 72" d="M687.732,315.666s.555,14.236.648,15.531S678.157,342.475,676,340.441s-2.8-6.563-1.691-9.707.093-8.874.093-8.874Z" fill="url(#linear-gradient-65)"/>
        <path id="Path_73" data-name="Path 73" d="M720.318,351.017a5.6,5.6,0,0,0-6.185-.573c-4.368,2.357-12.661,9.087-12.8,26.235-.185,23.3,10.92,33.1,17.769,68.409s6.848,36.978,6.848,36.978,6.478,3.944,10.92-.493c0,0,.7-55.3-2.591-86.959C731.152,364.486,724.466,354.4,720.318,351.017Z" fill="url(#linear-gradient-66)"/>
        <g id="Group_15" data-name="Group 15">
          <g id="Group_14" data-name="Group 14">
            <path id="Path_74" data-name="Path 74" d="M749.958,513.808l-4.748-.147.406-13.089-27.731-1.094-.731,12.826-4.743-.274.744-12.838a4.758,4.758,0,0,1,4.919-4.455l27.744,1.107a4.749,4.749,0,0,1,4.547,4.876Z" fill="url(#linear-gradient-67)"/>
          </g>
          <rect id="Rectangle_12" data-name="Rectangle 12" width="84.771" height="55.467" rx="4.486" transform="matrix(1, 0.031, -0.031, 1, 689.558, 510.398)" fill="url(#linear-gradient-68)"/>
          <path id="Rectangle_13" data-name="Rectangle 13" d="M4.486,0h75.8a4.486,4.486,0,0,1,4.486,4.486V21.1a6.63,6.63,0,0,1-6.63,6.63H6.63A6.63,6.63,0,0,1,0,21.1V4.486A4.486,4.486,0,0,1,4.486,0Z" transform="matrix(1, 0.031, -0.031, 1, 689.558, 510.398)" fill="url(#linear-gradient-69)"/>
          <rect id="Rectangle_14" data-name="Rectangle 14" width="25.296" height="8.994" rx="2.997" transform="matrix(1, 0.031, -0.031, 1, 718.555, 534.551)" fill="#d4f0f9"/>
        </g>
        <path id="Path_75" data-name="Path 75" d="M726.385,503.143c-2.583-3.418-.524-7.765-.524-7.765s-2.016,4.771-3.921,3.42c-3.39-2.4.4-5.177,1.792-7.58S727,480.956,727,480.956l8.761-1.109a19.744,19.744,0,0,0,1.851,8.135c2.869,5.269,1.758,12.341.833,14.19a1.9,1.9,0,0,1-2.915.971s-1.632,1.14-2.789.031c0,0-2.062,1.156-3.057.185C729.686,503.358,727.619,504.776,726.385,503.143Z" fill="url(#linear-gradient-70)"/>
        <path id="Path_76" data-name="Path 76" d="M660.246,301.647l1.943,3.573s-.74,18.211,3.424,20.523,21.471-8.043,21.471-8.043l3.054-1.387,2.591-4.622L686.992,300.6l-21.933-6.841S659.9,299.006,660.246,301.647Z" fill="url(#linear-gradient-71)"/>
        <path id="Path_77" data-name="Path 77" d="M662.19,305.22s-1.481-6.748,3.609-9.06c0,0,2.869,16.27,11.383,17.657s9.995-7.026,9.995-7.026a5.3,5.3,0,0,1,3.146,4.992,8.781,8.781,0,0,1-3.239,5.917s6.663.555,7.681-4.622-3.609-7.211-2.5-11.186,1.481-12.387-6.293-15.068-11.2,3.42-16.2,0-11.758.508-12.586,7.95C656.267,303.094,662.19,305.22,662.19,305.22Z" fill="url(#linear-gradient-72)"/>
        <path id="Path_78" data-name="Path 78" d="M800.669,284.482c-15.178,2.957-21.594-8.136-32.823-5.425s-14.932,18.555-31.467,22.588-24.185-17.164-39.115-10.384L693.6,287.8l-6.513-6.152s1.758-15.531,18.694-13.958,25.418,1.756,34.919-15.129,37.636-35.992,63.3-20.216a29.526,29.526,0,0,1,11.851,12.975C823.29,261.773,812.383,282.2,800.669,284.482Z" fill="url(#linear-gradient-73)"/>
        <path id="Path_79" data-name="Path 79" d="M800.669,284.482c-15.178,2.957-21.594-8.136-32.823-5.425s-14.932,18.555-31.467,22.588-24.185-17.164-39.115-10.384L693.6,287.8a4.645,4.645,0,0,1-.034-1.1s9.624-6.409,21.963,0,18.756,8.136,29-6.04,24.431-19.1,39.609-11.217c14.492,7.532,33.373,6.862,31.717-24.126C823.29,261.773,812.383,282.2,800.669,284.482Z" fill="url(#linear-gradient-74)"/>
        <path id="Path_80" data-name="Path 80" d="M684.515,287.909a4.533,4.533,0,0,1-1.125-4.346,5.7,5.7,0,0,1,2.645-3.457c3.7-2.219,10.18,2.342,12.154,7.4,1.657,4.241.4,9.047-3.327,9.134a4.438,4.438,0,0,1-3.269-1.394Z" fill="url(#linear-gradient-75)"/>
        <path id="Path_81" data-name="Path 81" d="M545.8,416.876s-1.357-2.972-3.517-2.664-1.974,4.5-.925,7.7,4.751,4.93,5.182,1.541A25.529,25.529,0,0,0,545.8,416.876Z" fill="url(#linear-gradient-76)"/>
        <path id="Path_82" data-name="Path 82" d="M552.277,426.414s-2.132,2.482-4.23.387-2.39-4.886-2.7-8.892,2.549-3.115,4.153-1.033S551.043,420,551.043,420Z" fill="url(#linear-gradient-77)"/>
        <path id="Path_83" data-name="Path 83" d="M556.435,428.184s-3.047,2.112-4.528-1.277-2.159-9.429-.432-9.984,3.825,3.944,3.825,3.944S556.953,427.3,556.435,428.184Z" fill="url(#linear-gradient-78)"/>
        <path id="Path_84" data-name="Path 84" d="M558.169,429.65c2.879-.131,1.943-3.7,1.018-7.211s-3.887-5.454-4.257-2.126S556.133,429.742,558.169,429.65Z" fill="url(#linear-gradient-79)"/>
        <path id="Path_85" data-name="Path 85" d="M674.9,487.612c-.1.173-1.963,5.006-4.284,11.713-1.357-15.643,1.234-39.284,1.234-39.284C672.033,470.578,674.9,487.612,674.9,487.612Z" fill="#2c3bd1"/>
      </g>
      <g id="Group_19" data-name="Group 19">
        <g id="Group_18" data-name="Group 18">
          <g id="Group_17" data-name="Group 17">
            <path id="Path_86" data-name="Path 86" d="M623.628,433.733l-4.856,2.5-6.916-13.387-28.493,14.386,6.443,13.3-4.922,2.373-6.437-13.322a5.468,5.468,0,0,1,2.452-7.226l28.513-14.38a5.469,5.469,0,0,1,7.3,2.363Z" fill="url(#linear-gradient-80)"/>
          </g>
          <rect id="Rectangle_15" data-name="Rectangle 15" width="97.498" height="63.82" rx="4.486" transform="matrix(0.902, -0.431, 0.432, 0.902, 560.153, 462.843)" fill="url(#linear-gradient-81)"/>
          <path id="Rectangle_16" data-name="Rectangle 16" d="M4.486,0H93.012A4.486,4.486,0,0,1,97.5,4.486V25.741a6.169,6.169,0,0,1-6.169,6.169H6.169A6.169,6.169,0,0,1,0,25.741V4.486A4.486,4.486,0,0,1,4.486,0Z" transform="matrix(0.902, -0.431, 0.432, 0.902, 560.153, 462.843)" fill="url(#linear-gradient-82)"/>
          <rect id="Rectangle_17" data-name="Rectangle 17" width="29.093" height="10.348" rx="3.124" transform="matrix(0.902, -0.431, 0.432, 0.902, 602.558, 472.219)" fill="#d4f0f9"/>
        </g>
        <path id="Path_87" data-name="Path 87" d="M594.259,430.294s-2.73-.8-3.756.8,1.84,3.857,4.548,4.991,5.95-.318,3.963-2.53A22.261,22.261,0,0,0,594.259,430.294Z" fill="url(#linear-gradient-83)"/>
        <path id="Path_88" data-name="Path 88" d="M604.227,431.463s.422,2.814-2.152,3-4.578-1.208-7.392-3.285-.6-3.447,1.682-3.317,2.938.766,2.938.766Z" fill="url(#linear-gradient-84)"/>
        <path id="Path_89" data-name="Path 89" d="M607.758,429.737s-.342,3.2-3.417,2.25-7.439-3.945-6.822-5.4,4.774-.27,4.774-.27S607.473,428.9,607.758,429.737Z" fill="url(#linear-gradient-85)"/>
        <path id="Path_90" data-name="Path 90" d="M609.71,429.431c1.552-1.967-1.33-3.381-4.17-4.771s-5.8-.549-3.822,1.588S608.613,430.822,609.71,429.431Z" fill="url(#linear-gradient-86)"/>
      </g>
      <g id="Group_20" data-name="Group 20">
        <ellipse id="Ellipse_4" data-name="Ellipse 4" cx="28.007" cy="27.977" rx="28.007" ry="27.977" transform="translate(166.612 177.946)" opacity="0.65" fill="url(#linear-gradient-87)"/>
        <ellipse id="Ellipse_5" data-name="Ellipse 5" cx="27.081" cy="27.051" rx="27.081" ry="27.051" transform="translate(900.18 549.545)" opacity="0.65" fill="url(#linear-gradient-88)"/>
        <ellipse id="Ellipse_6" data-name="Ellipse 6" cx="13.427" cy="13.412" rx="13.427" ry="13.412" transform="translate(759.254 442.814)" opacity="0.65" fill="url(#linear-gradient-89)"/>
        <ellipse id="Ellipse_7" data-name="Ellipse 7" cx="24.369" cy="24.343" rx="24.369" ry="24.343" transform="translate(135.84 492.239)" opacity="0.65" fill="url(#linear-gradient-90)"/>
        <ellipse id="Ellipse_8" data-name="Ellipse 8" cx="19.137" cy="19.116" rx="19.137" ry="19.116" transform="translate(591.108 245.317)" opacity="0.65" fill="url(#linear-gradient-91)"/>
        <ellipse id="Ellipse_9" data-name="Ellipse 9" cx="12.51" cy="12.497" rx="12.51" ry="12.497" transform="translate(147.699 355.825)" opacity="0.65" fill="url(#linear-gradient-92)"/>
        <ellipse id="Ellipse_10" data-name="Ellipse 10" cx="12.51" cy="12.497" rx="12.51" ry="12.497" transform="translate(570.144 549.094)" opacity="0.65" fill="url(#linear-gradient-93)"/>
        <ellipse id="Ellipse_11" data-name="Ellipse 11" cx="12.51" cy="12.497" rx="12.51" ry="12.497" transform="translate(445.063 120.101)" opacity="0.65" fill="url(#linear-gradient-94)"/>
      </g>
    </g>
  </g>
</svg>
