<svg xmlns="http://www.w3.org/2000/svg" xmlns:xlink="http://www.w3.org/1999/xlink" width="476.904" height="476.198" viewBox="0 0 476.904 476.198">
  <defs>
    <linearGradient id="linear-gradient" x1="0.5" y1="1.25" x2="0.5" y2="-0.25" gradientUnits="objectBoundingBox">
      <stop offset="0" stop-color="#6365d9"/>
      <stop offset="1" stop-color="#34beea"/>
    </linearGradient>
  </defs>
  <path id="Shape_17" data-name="Shape 17" d="M1855.115,2842.955l21.107-23.891,23.935,21.06-21.108,23.89ZM1798,2792.7l21.108-23.891,23.934,21.059-21.108,23.892Zm107.966-7.3,21.108-23.891,23.934,21.06-21.108,23.891Zm-165.082-42.953,21.109-23.892,23.934,21.059-21.108,23.892Zm107.966-7.3,21.108-23.891,23.935,21.06-21.108,23.892Zm107.966-7.3,21.108-23.891,23.934,21.059-21.108,23.891Zm-273.047-35.653,21.108-23.891,23.934,21.059-21.108,23.891Zm107.966-7.3L1812.842,2661l23.934,21.059-21.108,23.891Zm107.966-7.3,21.107-23.891,23.935,21.06-21.108,23.89Zm107.965-7.3,21.108-23.891,23.935,21.06-21.108,23.891Zm-381.011-28.35,21.107-23.891L1671.7,2639.1l-21.108,23.891Zm107.965-7.3,21.108-23.891,23.935,21.059-21.108,23.891Zm107.966-7.3,21.108-23.891,23.934,21.059-21.108,23.892Zm107.966-7.3,21.108-23.892,23.934,21.06-21.108,23.891Zm107.965-7.3,21.108-23.891,23.935,21.059-21.108,23.892ZM1677.5,2584.378l21.108-23.891,23.934,21.059-21.108,23.891Zm107.965-7.3,21.108-23.891,23.935,21.059-21.108,23.891Zm107.966-7.3,21.108-23.892,23.935,21.059-21.108,23.891Zm107.966-7.3,21.108-23.891,23.934,21.06-21.108,23.892Zm-273.047-35.652,21.108-23.891,23.934,21.059-21.108,23.892Zm107.966-7.3,21.108-23.891,23.934,21.059-21.108,23.892Zm107.965-7.3,21.108-23.891,23.935,21.06-21.108,23.891ZM1779.2,2469.264l21.108-23.891,23.935,21.059-21.108,23.891Zm107.966-7.3,21.108-23.891,23.934,21.059-21.108,23.892Zm-57.116-50.255,21.108-23.891,23.935,21.059-21.108,23.891Z" transform="translate(-1626.654 -2387.816)" opacity="0.2" fill="url(#linear-gradient)"/>
</svg>
