<svg xmlns="http://www.w3.org/2000/svg" xmlns:xlink="http://www.w3.org/1999/xlink" width="682.3" height="705.65" viewBox="0 0 682.3 705.65">
  <defs>
    <filter id="Rounded_Rectangle_3_copy_3" x="0" y="0" width="682.3" height="705.65" filterUnits="userSpaceOnUse">
      <feOffset dy="20" input="SourceAlpha"/>
      <feGaussianBlur stdDeviation="53" result="blur"/>
      <feFlood flood-color="#218ada" flood-opacity="0.122"/>
      <feComposite operator="in" in2="blur"/>
      <feComposite in="SourceGraphic"/>
    </filter>
    <linearGradient id="linear-gradient" x1="0.5" y1="1.25" x2="0.5" y2="-0.25" gradientUnits="objectBoundingBox">
      <stop offset="0" stop-color="#6365d9"/>
      <stop offset="1" stop-color="#34beea"/>
    </linearGradient>
  </defs>
  <g id="Group_322" data-name="Group 322" transform="translate(-621.19 -3181.06)">
    <g transform="matrix(1, 0, 0, 1, 621.19, 3181.06)" filter="url(#Rounded_Rectangle_3_copy_3)">
      <rect id="Rounded_Rectangle_3_copy_3-2" data-name="Rounded Rectangle 3 copy 3" width="364.3" height="387.65" rx="30" transform="translate(159 139)" fill="#fff"/>
    </g>
    <g id="Education_Training" data-name="Education / Training">
      <text id="Education_Training-2" data-name="Education / Training" transform="translate(828.88 3613.602)" fill="#fff" font-size="26" font-family="SegoeUI, Segoe UI"><tspan x="0" y="0">Education / Training</tspan></text>
      <path id="Color_Overlay" data-name="Color Overlay" d="M840.915,3613.6h-9.648V3595.4h9.242v1.93H833.4v6.056h6.576v1.917H833.4v6.373h7.516Zm14.32,0h-2.082v-2.209H853.1a4.806,4.806,0,0,1-4.469,2.514,4.855,4.855,0,0,1-3.917-1.746,7.161,7.161,0,0,1-1.466-4.754,7.791,7.791,0,0,1,1.625-5.167,5.36,5.36,0,0,1,4.329-1.942,4.167,4.167,0,0,1,3.9,2.107h.051v-8.049h2.082Zm-2.082-5.878v-1.917a3.719,3.719,0,0,0-1.041-2.666,3.492,3.492,0,0,0-2.641-1.092,3.6,3.6,0,0,0-3,1.4,6.12,6.12,0,0,0-1.092,3.859,5.5,5.5,0,0,0,1.047,3.548,3.423,3.423,0,0,0,2.812,1.3,3.556,3.556,0,0,0,2.825-1.257A4.682,4.682,0,0,0,853.153,3607.724Zm16.809,5.878H867.88v-2.057h-.051a4.276,4.276,0,0,1-4.012,2.361q-4.646,0-4.646-5.535v-7.77h2.069v7.439q0,4.113,3.148,4.113a3.185,3.185,0,0,0,2.507-1.124,4.3,4.3,0,0,0,.984-2.939v-7.49h2.082Zm13.063-.6a6.766,6.766,0,0,1-3.555.9,5.885,5.885,0,0,1-4.488-1.809,6.556,6.556,0,0,1-1.708-4.691,7.207,7.207,0,0,1,1.841-5.161,6.44,6.44,0,0,1,4.913-1.949,6.84,6.84,0,0,1,3.021.635v2.133a5.294,5.294,0,0,0-3.1-1.016,4.186,4.186,0,0,0-3.269,1.428,5.42,5.42,0,0,0-1.276,3.751,5.16,5.16,0,0,0,1.2,3.605,4.135,4.135,0,0,0,3.218,1.32,5.219,5.219,0,0,0,3.2-1.13Zm12.454.6H893.4v-2.031h-.051a4.359,4.359,0,0,1-4,2.336,4.274,4.274,0,0,1-3.041-1.028,3.563,3.563,0,0,1-1.1-2.729q0-3.643,4.291-4.24l3.9-.546q0-3.313-2.679-3.313a6.4,6.4,0,0,0-4.24,1.6v-2.133a8.056,8.056,0,0,1,4.418-1.219q4.583,0,4.583,4.85Zm-2.082-6.576-3.136.432a5.092,5.092,0,0,0-2.184.717,2.069,2.069,0,0,0-.736,1.822,1.984,1.984,0,0,0,.679,1.555,2.624,2.624,0,0,0,1.809.6,3.342,3.342,0,0,0,2.558-1.085,3.878,3.878,0,0,0,1.009-2.749Zm12.035,6.449a4.015,4.015,0,0,1-1.942.406q-3.415,0-3.415-3.809v-7.693h-2.234V3600.6h2.234v-3.174l2.082-.673v3.847h3.275v1.777h-3.275v7.325a3.037,3.037,0,0,0,.444,1.866,1.773,1.773,0,0,0,1.473.559,2.188,2.188,0,0,0,1.358-.432Zm3.847-16.174a1.319,1.319,0,0,1-.952-.381,1.285,1.285,0,0,1-.394-.965,1.333,1.333,0,0,1,1.346-1.358,1.345,1.345,0,0,1,.971.387,1.356,1.356,0,0,1,0,1.923A1.333,1.333,0,0,1,909.279,3597.3Zm1.016,16.3h-2.082v-13H910.3Zm9.648.3a6.03,6.03,0,0,1-4.6-1.822,6.748,6.748,0,0,1-1.72-4.831,7.03,7.03,0,0,1,1.79-5.116,6.435,6.435,0,0,1,4.837-1.841,5.831,5.831,0,0,1,4.539,1.79,7.1,7.1,0,0,1,1.631,4.964,6.984,6.984,0,0,1-1.758,4.983A6.161,6.161,0,0,1,919.943,3613.907Zm.152-11.857a3.96,3.96,0,0,0-3.174,1.365,5.605,5.605,0,0,0-1.168,3.764,5.3,5.3,0,0,0,1.181,3.644,4.013,4.013,0,0,0,3.161,1.333,3.806,3.806,0,0,0,3.1-1.308,5.674,5.674,0,0,0,1.085-3.72,5.772,5.772,0,0,0-1.085-3.758A3.79,3.79,0,0,0,920.1,3602.049Zm20.439,11.553h-2.082v-7.414q0-4.139-3.021-4.139a3.277,3.277,0,0,0-2.583,1.174,4.353,4.353,0,0,0-1.022,2.964v7.414h-2.082v-13h2.082v2.158h.051a4.692,4.692,0,0,1,4.266-2.463,3.977,3.977,0,0,1,3.263,1.377,6.135,6.135,0,0,1,1.13,3.98Zm19.259-18.205-8.734,21.227h-1.942l8.709-21.227Zm20.084,1.93h-5.256V3613.6h-2.133v-16.275h-5.243v-1.93h12.632Zm7.1,5.383a2.546,2.546,0,0,0-1.574-.419,2.657,2.657,0,0,0-2.228,1.257,5.811,5.811,0,0,0-.9,3.428v6.627H980.2v-13h2.082v2.679h.051a4.539,4.539,0,0,1,1.358-2.139,3.1,3.1,0,0,1,2.044-.768,3.4,3.4,0,0,1,1.244.178ZM998.54,3613.6h-2.082v-2.031h-.051a4.359,4.359,0,0,1-4,2.336,4.274,4.274,0,0,1-3.041-1.028,3.563,3.563,0,0,1-1.1-2.729q0-3.643,4.291-4.24l3.9-.546q0-3.313-2.679-3.313a6.4,6.4,0,0,0-4.24,1.6v-2.133a8.056,8.056,0,0,1,4.418-1.219q4.583,0,4.583,4.85Zm-2.082-6.576-3.136.432a5.092,5.092,0,0,0-2.184.717A2.069,2.069,0,0,0,990.4,3610a1.984,1.984,0,0,0,.679,1.555,2.624,2.624,0,0,0,1.809.6,3.342,3.342,0,0,0,2.558-1.085,3.878,3.878,0,0,0,1.009-2.749Zm7.071-9.725a1.319,1.319,0,0,1-.952-.381,1.285,1.285,0,0,1-.394-.965,1.333,1.333,0,0,1,1.346-1.358,1.345,1.345,0,0,1,.971.387,1.356,1.356,0,0,1,0,1.923A1.333,1.333,0,0,1,1003.529,3597.3Zm1.016,16.3h-2.082v-13h2.082Zm15.006,0h-2.082v-7.414q0-4.139-3.021-4.139a3.277,3.277,0,0,0-2.583,1.174,4.353,4.353,0,0,0-1.022,2.964v7.414h-2.082v-13h2.082v2.158h.051a4.692,4.692,0,0,1,4.266-2.463,3.977,3.977,0,0,1,3.263,1.377,6.135,6.135,0,0,1,1.13,3.98Zm4.989-16.3a1.319,1.319,0,0,1-.952-.381,1.285,1.285,0,0,1-.394-.965,1.333,1.333,0,0,1,1.346-1.358,1.345,1.345,0,0,1,.971.387,1.356,1.356,0,0,1,0,1.923A1.333,1.333,0,0,1,1024.54,3597.3Zm1.016,16.3h-2.082v-13h2.082Zm15.006,0h-2.082v-7.414q0-4.139-3.021-4.139a3.277,3.277,0,0,0-2.583,1.174,4.353,4.353,0,0,0-1.022,2.964v7.414h-2.082v-13h2.082v2.158h.051a4.692,4.692,0,0,1,4.266-2.463,3.978,3.978,0,0,1,3.263,1.377,6.135,6.135,0,0,1,1.13,3.98Zm15.019-1.041q0,7.16-6.855,7.16a9.2,9.2,0,0,1-4.215-.914v-2.082a8.656,8.656,0,0,0,4.189,1.219q4.8,0,4.8-5.1v-1.422h-.051a5.26,5.26,0,0,1-8.373.755,6.927,6.927,0,0,1-1.479-4.653,8.094,8.094,0,0,1,1.593-5.269,5.322,5.322,0,0,1,4.361-1.955,4.237,4.237,0,0,1,3.9,2.107h.051v-1.8h2.082Zm-2.082-4.837v-1.917a3.719,3.719,0,0,0-1.047-2.653,3.448,3.448,0,0,0-2.609-1.1,3.615,3.615,0,0,0-3.021,1.4,6.261,6.261,0,0,0-1.092,3.929,5.375,5.375,0,0,0,1.047,3.472,3.384,3.384,0,0,0,2.774,1.3,3.624,3.624,0,0,0,2.85-1.244A4.637,4.637,0,0,0,1053.5,3607.724Z" fill="#254c86"/>
    </g>
    <g id="_100_open_position" data-name="100 open position">
      <text id="_100_open_position-2" data-name="100 open position" transform="translate(871.804 3647.408)" fill="#fff" font-size="22" font-family="SegoeUI, Segoe UI"><tspan x="0" y="0">100 open position</tspan></text>
      <path id="Color_Overlay-2" data-name="Color Overlay" d="M879.581,3647.408H877.82V3634.1a4.087,4.087,0,0,1-.6.467,9.7,9.7,0,0,1-.881.521q-.489.258-1.031.483a7.494,7.494,0,0,1-1.058.354v-1.783a10.243,10.243,0,0,0,1.23-.435q.65-.274,1.278-.612t1.187-.709a9.428,9.428,0,0,0,.967-.725h.666Zm15.039-7.767a15.133,15.133,0,0,1-.349,3.427,7.984,7.984,0,0,1-1.01,2.519,4.546,4.546,0,0,1-1.622,1.558,4.441,4.441,0,0,1-2.186.532,4.148,4.148,0,0,1-2.068-.51,4.334,4.334,0,0,1-1.531-1.488,7.54,7.54,0,0,1-.945-2.4,14.846,14.846,0,0,1-.322-3.26,16.8,16.8,0,0,1,.338-3.566,8.158,8.158,0,0,1,.994-2.594,4.422,4.422,0,0,1,1.627-1.579,4.57,4.57,0,0,1,2.229-.532Q894.62,3631.746,894.62,3639.641Zm-1.8.172q0-6.574-3.126-6.574-3.3,0-3.3,6.692,0,6.241,3.233,6.241Q892.816,3646.173,892.816,3639.813Zm13.664-.172a15.133,15.133,0,0,1-.349,3.427,7.984,7.984,0,0,1-1.01,2.519,4.546,4.546,0,0,1-1.622,1.558,4.441,4.441,0,0,1-2.186.532,4.148,4.148,0,0,1-2.068-.51,4.334,4.334,0,0,1-1.531-1.488,7.54,7.54,0,0,1-.945-2.4,14.846,14.846,0,0,1-.322-3.26,16.8,16.8,0,0,1,.338-3.566,8.158,8.158,0,0,1,.994-2.594,4.422,4.422,0,0,1,1.627-1.579,4.57,4.57,0,0,1,2.229-.532Q906.48,3631.746,906.48,3639.641Zm-1.8.172q0-6.574-3.126-6.574-3.3,0-3.3,6.692,0,6.241,3.233,6.241Q904.675,3646.173,904.675,3639.813Zm15.114,7.853a5.1,5.1,0,0,1-3.894-1.542,5.71,5.71,0,0,1-1.456-4.087,5.948,5.948,0,0,1,1.515-4.329,5.446,5.446,0,0,1,4.093-1.558,4.934,4.934,0,0,1,3.84,1.515,6.006,6.006,0,0,1,1.38,4.2,5.909,5.909,0,0,1-1.488,4.216A5.213,5.213,0,0,1,919.789,3647.666Zm.129-10.033a3.351,3.351,0,0,0-2.686,1.155,4.742,4.742,0,0,0-.988,3.185,4.485,4.485,0,0,0,1,3.083,3.4,3.4,0,0,0,2.675,1.128,3.221,3.221,0,0,0,2.626-1.106,4.8,4.8,0,0,0,.918-3.147,4.884,4.884,0,0,0-.918-3.18A3.206,3.206,0,0,0,919.918,3637.633Zm9.969,8.186h-.043v6.649h-1.762v-16.06h1.762v1.934h.043a4.166,4.166,0,0,1,3.8-2.191,4.028,4.028,0,0,1,3.319,1.477,6.118,6.118,0,0,1,1.192,3.958,6.818,6.818,0,0,1-1.343,4.42,4.471,4.471,0,0,1-3.674,1.66A3.68,3.68,0,0,1,929.887,3645.818Zm-.043-4.437v1.536a3.271,3.271,0,0,0,.886,2.315,3.162,3.162,0,0,0,4.759-.274,5.618,5.618,0,0,0,.908-3.405,4.435,4.435,0,0,0-.849-2.879,2.809,2.809,0,0,0-2.3-1.042,3.121,3.121,0,0,0-2.471,1.069A3.925,3.925,0,0,0,929.844,3641.382Zm20.013.967H942.09a4.114,4.114,0,0,0,.988,2.836,3.407,3.407,0,0,0,2.6,1,5.4,5.4,0,0,0,3.416-1.225v1.654a6.384,6.384,0,0,1-3.835,1.053,4.649,4.649,0,0,1-3.663-1.5,6.134,6.134,0,0,1-1.332-4.216,6.015,6.015,0,0,1,1.456-4.184,4.667,4.667,0,0,1,3.615-1.617,4.136,4.136,0,0,1,3.341,1.4,5.822,5.822,0,0,1,1.182,3.878Zm-1.8-1.493a3.584,3.584,0,0,0-.736-2.374,2.507,2.507,0,0,0-2.014-.849,2.845,2.845,0,0,0-2.116.892,4.046,4.046,0,0,0-1.074,2.331Zm13.6,6.553H959.89v-6.273q0-3.5-2.557-3.5a2.773,2.773,0,0,0-2.186.994,3.683,3.683,0,0,0-.865,2.508v6.273h-1.762v-11h1.762v1.826h.043a3.97,3.97,0,0,1,3.609-2.084,3.365,3.365,0,0,1,2.761,1.166,5.192,5.192,0,0,1,.956,3.368Zm11.15-1.59h-.043v6.649H971v-16.06h1.762v1.934h.043a4.166,4.166,0,0,1,3.8-2.191,4.028,4.028,0,0,1,3.319,1.477,6.118,6.118,0,0,1,1.192,3.958,6.818,6.818,0,0,1-1.343,4.42,4.471,4.471,0,0,1-3.674,1.66A3.68,3.68,0,0,1,972.8,3645.818Zm-.043-4.437v1.536a3.271,3.271,0,0,0,.886,2.315,3.162,3.162,0,0,0,4.759-.274,5.618,5.618,0,0,0,.908-3.405,4.435,4.435,0,0,0-.849-2.879,2.809,2.809,0,0,0-2.3-1.042,3.121,3.121,0,0,0-2.471,1.069A3.925,3.925,0,0,0,972.759,3641.382Zm15.77,6.284a5.1,5.1,0,0,1-3.894-1.542,5.71,5.71,0,0,1-1.456-4.087,5.948,5.948,0,0,1,1.515-4.329,5.446,5.446,0,0,1,4.093-1.558,4.934,4.934,0,0,1,3.84,1.515,6.006,6.006,0,0,1,1.38,4.2,5.909,5.909,0,0,1-1.488,4.216A5.213,5.213,0,0,1,988.529,3647.666Zm.129-10.033a3.351,3.351,0,0,0-2.686,1.155,4.742,4.742,0,0,0-.988,3.185,4.485,4.485,0,0,0,1,3.083,3.4,3.4,0,0,0,2.675,1.128,3.221,3.221,0,0,0,2.626-1.106,4.8,4.8,0,0,0,.918-3.147,4.884,4.884,0,0,0-.918-3.18A3.206,3.206,0,0,0,988.658,3637.633Zm7.5,9.378v-1.891a5.214,5.214,0,0,0,3.169,1.063q2.32,0,2.32-1.547a1.342,1.342,0,0,0-.2-.747,1.98,1.98,0,0,0-.537-.542,4.134,4.134,0,0,0-.795-.424q-.457-.188-.983-.392a12.641,12.641,0,0,1-1.284-.585,3.88,3.88,0,0,1-.924-.666,2.477,2.477,0,0,1-.559-.843,2.984,2.984,0,0,1-.188-1.106,2.628,2.628,0,0,1,.354-1.37,3.144,3.144,0,0,1,.945-1,4.406,4.406,0,0,1,1.348-.607,5.983,5.983,0,0,1,1.563-.2,6.312,6.312,0,0,1,2.557.494v1.783a4.982,4.982,0,0,0-2.793-.795,3.265,3.265,0,0,0-.892.113,2.185,2.185,0,0,0-.682.317,1.464,1.464,0,0,0-.44.489,1.287,1.287,0,0,0-.156.628,1.508,1.508,0,0,0,.156.72,1.584,1.584,0,0,0,.457.516,3.493,3.493,0,0,0,.73.408q.43.183.978.4a13.6,13.6,0,0,1,1.311.575,4.5,4.5,0,0,1,.988.666,2.6,2.6,0,0,1,.628.854,2.754,2.754,0,0,1,.22,1.149,2.71,2.71,0,0,1-.36,1.418,3.083,3.083,0,0,1-.961,1,4.406,4.406,0,0,1-1.386.591,6.842,6.842,0,0,1-1.644.193A6.242,6.242,0,0,1,996.156,3647.01Zm10.9-13.4a1.116,1.116,0,0,1-.806-.322,1.088,1.088,0,0,1-.333-.816,1.128,1.128,0,0,1,1.139-1.149,1.137,1.137,0,0,1,.822.328,1.148,1.148,0,0,1,0,1.627A1.128,1.128,0,0,1,1007.059,3633.615Zm.859,13.793h-1.762v-11h1.762Zm8.669-.107a3.4,3.4,0,0,1-1.644.344q-2.89,0-2.89-3.223v-6.51h-1.891v-1.5h1.891v-2.686l1.762-.569v3.255h2.771v1.5h-2.771v6.2a2.57,2.57,0,0,0,.376,1.579,1.5,1.5,0,0,0,1.246.473,1.853,1.853,0,0,0,1.149-.365Zm3.255-13.686a1.116,1.116,0,0,1-.806-.322,1.088,1.088,0,0,1-.333-.816,1.128,1.128,0,0,1,1.139-1.149,1.137,1.137,0,0,1,.822.328,1.148,1.148,0,0,1,0,1.627A1.128,1.128,0,0,1,1019.842,3633.615Zm.859,13.793h-1.762v-11h1.762Zm8.164.258a5.1,5.1,0,0,1-3.894-1.542,5.71,5.71,0,0,1-1.456-4.087,5.948,5.948,0,0,1,1.515-4.329,5.446,5.446,0,0,1,4.093-1.558,4.933,4.933,0,0,1,3.84,1.515,6.006,6.006,0,0,1,1.38,4.2,5.909,5.909,0,0,1-1.488,4.216A5.213,5.213,0,0,1,1028.865,3647.666Zm.129-10.033a3.351,3.351,0,0,0-2.686,1.155,4.743,4.743,0,0,0-.988,3.185,4.485,4.485,0,0,0,1,3.083,3.4,3.4,0,0,0,2.675,1.128,3.221,3.221,0,0,0,2.626-1.106,4.8,4.8,0,0,0,.918-3.147,4.884,4.884,0,0,0-.918-3.18A3.206,3.206,0,0,0,1028.994,3637.633Zm17.295,9.775h-1.762v-6.273q0-3.5-2.557-3.5a2.774,2.774,0,0,0-2.186.994,3.683,3.683,0,0,0-.865,2.508v6.273h-1.762v-11h1.762v1.826h.043a3.97,3.97,0,0,1,3.609-2.084,3.365,3.365,0,0,1,2.761,1.166,5.192,5.192,0,0,1,.956,3.368Z" fill="#1f3a63"/>
    </g>
    <path id="Shape_6" data-name="Shape 6" d="M1010.988,3542.235l-2.666-10.595a2.665,2.665,0,0,1,5.171-1.287l2.667,10.595a2.646,2.646,0,0,1-1.941,3.212,2.582,2.582,0,0,1-.648.08A2.663,2.663,0,0,1,1010.988,3542.235ZM991.6,3544.16a2.644,2.644,0,0,1-1.94-3.212l2.666-10.595a2.665,2.665,0,0,1,5.172,1.287l-2.666,10.595a2.664,2.664,0,0,1-2.584,2.005A2.587,2.587,0,0,1,991.6,3544.16Zm11.3.079a2.66,2.66,0,0,1-2.659-2.66v-7.92a2.66,2.66,0,0,1,2.659-2.66h.01a2.66,2.66,0,0,1,2.66,2.66v7.92a2.66,2.66,0,0,1-2.66,2.66Zm-7.988-23.836a7.941,7.941,0,0,1,5.333-7.458V3447.7l-30.425-11.286a12.945,12.945,0,0,1-6.9,1.888c-5.98,0-10.664-3.49-10.664-7.945s4.685-7.946,10.664-7.946,10.664,3.491,10.664,7.946a6.317,6.317,0,0,1-.247,1.708l29.318,10.875,30.609-12.583-70.344-28.917-70.344,28.917,70.344,28.917,26.938-11.071a2.673,2.673,0,0,1,3.482,1.433,2.639,2.639,0,0,1-1.445,3.459l-27.957,11.492a2.674,2.674,0,0,1-2.038,0L884.585,3432.8a2.641,2.641,0,0,1,0-4.894l77.315-31.784a2.7,2.7,0,0,1,2.037,0l77.319,31.783a2.642,2.642,0,0,1,0,4.9l-35.677,14.668v4.785l31.992-13.081v-.875a2.666,2.666,0,0,1,5.333,0v2.649a2.647,2.647,0,0,1-1.651,2.45l-35.674,14.585v32.854a27.088,27.088,0,0,0,5.332-8v-18.051a2.666,2.666,0,0,1,5.332,0v18.539a2.678,2.678,0,0,1-.146.866,32.187,32.187,0,0,1-10.518,13.722v15.034a7.942,7.942,0,1,1-10.664,7.458Zm5.333,0a2.666,2.666,0,1,0,2.666-2.648A2.66,2.66,0,0,0,1000.244,3520.4Zm-42.657-90.05c0,1.08,2.077,2.649,5.332,2.649s5.333-1.568,5.333-2.649-2.077-2.649-5.333-2.649S957.587,3429.272,957.587,3430.353Zm-47.8,53.956a2.667,2.667,0,0,1-.19-.985v-18.54a2.666,2.666,0,0,1,5.333,0v17.988c1.535,3.316,12.218,23.239,45.323,24.287v-23.736a2.666,2.666,0,0,1,5.332,0v23.76c11.96-.4,20.417-3.287,25.48-5.773a2.67,2.67,0,0,1,3.569,1.2,2.635,2.635,0,0,1-1.207,3.547c-5.945,2.919-16.066,6.4-30.508,6.4C921.6,3512.457,910.251,3485.456,909.788,3484.309Zm52.113-9.132-77.315-31.782a2.644,2.644,0,0,1-1.648-2.447V3438.3a2.666,2.666,0,0,1,5.332,0v.88l74.65,30.686,28.3-11.637a2.679,2.679,0,0,1,3.485,1.435,2.643,2.643,0,0,1-1.443,3.459l-29.327,12.055a2.672,2.672,0,0,1-2.037,0Z" fill="url(#linear-gradient)"/>
  </g>
</svg>
