<svg xmlns="http://www.w3.org/2000/svg" xmlns:xlink="http://www.w3.org/1999/xlink" width="665.95" height="705.65" viewBox="0 0 665.95 705.65">
  <defs>
    <filter id="Rounded_Rectangle_3_copy_4" x="0" y="0" width="665.95" height="705.65" filterUnits="userSpaceOnUse">
      <feOffset dy="20" input="SourceAlpha"/>
      <feGaussianBlur stdDeviation="53" result="blur"/>
      <feFlood flood-color="#218ada" flood-opacity="0.122"/>
      <feComposite operator="in" in2="blur"/>
      <feComposite in="SourceGraphic"/>
    </filter>
    <linearGradient id="linear-gradient" x1="0.5" y1="1.25" x2="0.5" y2="-0.25" gradientUnits="objectBoundingBox">
      <stop offset="0" stop-color="#6365d9"/>
      <stop offset="1" stop-color="#34beea"/>
    </linearGradient>
  </defs>
  <g id="Group_318" data-name="Group 318" transform="translate(-1105 -2653.29)">
    <g transform="matrix(1, 0, 0, 1, 1105, 2653.29)" filter="url(#Rounded_Rectangle_3_copy_4)">
      <rect id="Rounded_Rectangle_3_copy_4-2" data-name="Rounded Rectangle 3 copy 4" width="347.95" height="387.65" rx="30" transform="translate(159 139)" fill="#fff"/>
    </g>
    <text id="Progammer" transform="translate(1370 3084.669)" fill="#254c86" font-size="26" font-family="SegoeUI, Segoe UI"><tspan x="0" y="0">Progammer</tspan></text>
    <g id="_100_open_position" data-name="100 open position" transform="translate(2.269)">
      <text id="_100_open_position-2" data-name="100 open position" transform="translate(1347.731 3120.81)" fill="#abb2bf" font-size="22" font-family="SegoeUI, Segoe UI"><tspan x="0" y="0">100 open position</tspan></text>
      <path id="Color_Overlay" data-name="Color Overlay" d="M1355.508,3120.81h-1.762V3107.5a4.094,4.094,0,0,1-.6.467,9.7,9.7,0,0,1-.881.521q-.489.258-1.031.483a7.5,7.5,0,0,1-1.058.354v-1.783a10.239,10.239,0,0,0,1.23-.435q.65-.274,1.278-.612t1.187-.709a9.415,9.415,0,0,0,.967-.725h.666Zm15.039-7.767a15.13,15.13,0,0,1-.349,3.427,7.985,7.985,0,0,1-1.01,2.519,4.545,4.545,0,0,1-1.622,1.558,4.441,4.441,0,0,1-2.186.532,4.147,4.147,0,0,1-2.068-.51,4.335,4.335,0,0,1-1.531-1.488,7.538,7.538,0,0,1-.945-2.4,14.846,14.846,0,0,1-.322-3.26,16.8,16.8,0,0,1,.338-3.566,8.157,8.157,0,0,1,.994-2.594,4.423,4.423,0,0,1,1.627-1.579,4.569,4.569,0,0,1,2.229-.532Q1370.547,3105.148,1370.547,3113.043Zm-1.8.172q0-6.574-3.126-6.574-3.3,0-3.3,6.692,0,6.241,3.233,6.241Q1368.743,3119.575,1368.743,3113.215Zm13.664-.172a15.13,15.13,0,0,1-.349,3.427,7.985,7.985,0,0,1-1.01,2.519,4.545,4.545,0,0,1-1.622,1.558,4.441,4.441,0,0,1-2.186.532,4.147,4.147,0,0,1-2.068-.51,4.335,4.335,0,0,1-1.531-1.488,7.538,7.538,0,0,1-.945-2.4,14.846,14.846,0,0,1-.322-3.26,16.8,16.8,0,0,1,.338-3.566,8.157,8.157,0,0,1,.994-2.594,4.423,4.423,0,0,1,1.627-1.579,4.569,4.569,0,0,1,2.229-.532Q1382.407,3105.148,1382.407,3113.043Zm-1.8.172q0-6.574-3.126-6.574-3.3,0-3.3,6.692,0,6.241,3.233,6.241Q1380.6,3119.575,1380.6,3113.215Zm15.114,7.853a5.1,5.1,0,0,1-3.894-1.542,5.71,5.71,0,0,1-1.456-4.087,5.948,5.948,0,0,1,1.515-4.329,5.446,5.446,0,0,1,4.093-1.558,4.934,4.934,0,0,1,3.84,1.515,6.006,6.006,0,0,1,1.38,4.2,5.91,5.91,0,0,1-1.488,4.216A5.213,5.213,0,0,1,1395.716,3121.068Zm.129-10.033a3.351,3.351,0,0,0-2.686,1.155,4.743,4.743,0,0,0-.988,3.185,4.485,4.485,0,0,0,1,3.083,3.4,3.4,0,0,0,2.675,1.128,3.221,3.221,0,0,0,2.626-1.106,4.8,4.8,0,0,0,.918-3.147,4.884,4.884,0,0,0-.918-3.18A3.206,3.206,0,0,0,1395.845,3111.035Zm9.969,8.186h-.043v6.649h-1.762v-16.06h1.762v1.934h.043a4.166,4.166,0,0,1,3.8-2.191,4.028,4.028,0,0,1,3.319,1.477,6.118,6.118,0,0,1,1.192,3.958,6.818,6.818,0,0,1-1.343,4.42,4.471,4.471,0,0,1-3.674,1.66A3.68,3.68,0,0,1,1405.814,3119.22Zm-.043-4.437v1.536a3.271,3.271,0,0,0,.886,2.315,3.162,3.162,0,0,0,4.759-.274,5.618,5.618,0,0,0,.908-3.405,4.435,4.435,0,0,0-.849-2.879,2.809,2.809,0,0,0-2.3-1.042,3.121,3.121,0,0,0-2.471,1.069A3.925,3.925,0,0,0,1405.771,3114.784Zm20.013.967h-7.767a4.114,4.114,0,0,0,.988,2.836,3.407,3.407,0,0,0,2.6,1,5.4,5.4,0,0,0,3.416-1.225v1.654a6.384,6.384,0,0,1-3.835,1.053,4.649,4.649,0,0,1-3.663-1.5,6.133,6.133,0,0,1-1.332-4.216,6.015,6.015,0,0,1,1.456-4.184,4.667,4.667,0,0,1,3.615-1.617,4.136,4.136,0,0,1,3.341,1.4,5.822,5.822,0,0,1,1.182,3.878Zm-1.8-1.493a3.585,3.585,0,0,0-.736-2.374,2.507,2.507,0,0,0-2.014-.849,2.846,2.846,0,0,0-2.116.892,4.046,4.046,0,0,0-1.074,2.331Zm13.6,6.553h-1.762v-6.273q0-3.5-2.557-3.5a2.774,2.774,0,0,0-2.186.994,3.683,3.683,0,0,0-.865,2.508v6.273h-1.762v-11h1.762v1.826h.043a3.97,3.97,0,0,1,3.609-2.084,3.365,3.365,0,0,1,2.761,1.166,5.192,5.192,0,0,1,.956,3.368Zm11.15-1.59h-.043v6.649h-1.762v-16.06h1.762v1.934h.043a4.166,4.166,0,0,1,3.8-2.191,4.028,4.028,0,0,1,3.319,1.477,6.118,6.118,0,0,1,1.192,3.958,6.818,6.818,0,0,1-1.343,4.42,4.471,4.471,0,0,1-3.674,1.66A3.68,3.68,0,0,1,1448.729,3119.22Zm-.043-4.437v1.536a3.271,3.271,0,0,0,.886,2.315,3.162,3.162,0,0,0,4.759-.274,5.618,5.618,0,0,0,.908-3.405,4.435,4.435,0,0,0-.849-2.879,2.809,2.809,0,0,0-2.3-1.042,3.121,3.121,0,0,0-2.471,1.069A3.925,3.925,0,0,0,1448.686,3114.784Zm15.77,6.284a5.1,5.1,0,0,1-3.894-1.542,5.71,5.71,0,0,1-1.456-4.087,5.948,5.948,0,0,1,1.515-4.329,5.446,5.446,0,0,1,4.093-1.558,4.934,4.934,0,0,1,3.84,1.515,6.006,6.006,0,0,1,1.38,4.2,5.91,5.91,0,0,1-1.488,4.216A5.213,5.213,0,0,1,1464.456,3121.068Zm.129-10.033a3.351,3.351,0,0,0-2.686,1.155,4.743,4.743,0,0,0-.988,3.185,4.485,4.485,0,0,0,1,3.083,3.4,3.4,0,0,0,2.675,1.128,3.221,3.221,0,0,0,2.626-1.106,4.8,4.8,0,0,0,.918-3.147,4.884,4.884,0,0,0-.918-3.18A3.206,3.206,0,0,0,1464.584,3111.035Zm7.5,9.378v-1.891a5.214,5.214,0,0,0,3.169,1.063q2.32,0,2.32-1.547a1.342,1.342,0,0,0-.2-.747,1.979,1.979,0,0,0-.537-.542,4.136,4.136,0,0,0-.795-.424q-.456-.188-.983-.392a12.641,12.641,0,0,1-1.284-.585,3.881,3.881,0,0,1-.924-.666,2.478,2.478,0,0,1-.559-.843,2.982,2.982,0,0,1-.188-1.106,2.628,2.628,0,0,1,.354-1.37,3.143,3.143,0,0,1,.945-1,4.407,4.407,0,0,1,1.348-.607,5.983,5.983,0,0,1,1.563-.2,6.312,6.312,0,0,1,2.557.494v1.783a4.982,4.982,0,0,0-2.793-.795,3.265,3.265,0,0,0-.892.113,2.185,2.185,0,0,0-.682.317,1.464,1.464,0,0,0-.44.489,1.287,1.287,0,0,0-.156.628,1.507,1.507,0,0,0,.156.72,1.584,1.584,0,0,0,.457.516,3.493,3.493,0,0,0,.73.408q.43.183.978.4a13.609,13.609,0,0,1,1.311.575,4.5,4.5,0,0,1,.988.666,2.6,2.6,0,0,1,.628.854,2.753,2.753,0,0,1,.22,1.149,2.711,2.711,0,0,1-.36,1.418,3.083,3.083,0,0,1-.961,1,4.4,4.4,0,0,1-1.386.591,6.843,6.843,0,0,1-1.644.193A6.242,6.242,0,0,1,1472.083,3120.413Zm10.9-13.4a1.116,1.116,0,0,1-.806-.322,1.088,1.088,0,0,1-.333-.816,1.128,1.128,0,0,1,1.139-1.149,1.137,1.137,0,0,1,.822.328,1.148,1.148,0,0,1,0,1.627A1.128,1.128,0,0,1,1482.986,3107.017Zm.859,13.793h-1.762v-11h1.762Zm8.669-.107a3.4,3.4,0,0,1-1.644.344q-2.89,0-2.89-3.223v-6.51h-1.891v-1.5h1.891v-2.686l1.762-.569v3.255h2.771v1.5h-2.771v6.2a2.57,2.57,0,0,0,.376,1.579,1.5,1.5,0,0,0,1.246.473,1.853,1.853,0,0,0,1.149-.365Zm3.255-13.686a1.116,1.116,0,0,1-.806-.322,1.088,1.088,0,0,1-.333-.816,1.128,1.128,0,0,1,1.139-1.149,1.137,1.137,0,0,1,.822.328,1.148,1.148,0,0,1,0,1.627A1.128,1.128,0,0,1,1495.769,3107.017Zm.859,13.793h-1.762v-11h1.762Zm8.164.258a5.1,5.1,0,0,1-3.894-1.542,5.71,5.71,0,0,1-1.456-4.087,5.948,5.948,0,0,1,1.515-4.329,5.446,5.446,0,0,1,4.093-1.558,4.934,4.934,0,0,1,3.84,1.515,6.006,6.006,0,0,1,1.38,4.2,5.91,5.91,0,0,1-1.488,4.216A5.213,5.213,0,0,1,1504.792,3121.068Zm.129-10.033a3.351,3.351,0,0,0-2.686,1.155,4.743,4.743,0,0,0-.988,3.185,4.485,4.485,0,0,0,1,3.083,3.4,3.4,0,0,0,2.675,1.128,3.221,3.221,0,0,0,2.626-1.106,4.8,4.8,0,0,0,.918-3.147,4.884,4.884,0,0,0-.918-3.18A3.206,3.206,0,0,0,1504.921,3111.035Zm17.295,9.775h-1.762v-6.273q0-3.5-2.557-3.5a2.774,2.774,0,0,0-2.186.994,3.683,3.683,0,0,0-.865,2.508v6.273h-1.762v-11h1.762v1.826h.043a3.97,3.97,0,0,1,3.609-2.084,3.365,3.365,0,0,1,2.761,1.166,5.192,5.192,0,0,1,.956,3.368Z" fill="#1f3a63"/>
    </g>
    <path id="Shape_4" data-name="Shape 4" d="M1378.825,3015.307a17.005,17.005,0,0,1-16.955-17.016V2896.88a17.006,17.006,0,0,1,16.955-17.017h119.047a17.005,17.005,0,0,1,16.955,17.017v101.41a17,17,0,0,1-16.955,17.016Zm-11.905-17.016a11.941,11.941,0,0,0,11.905,11.948h119.047a11.941,11.941,0,0,0,11.905-11.948v-77.844H1366.92Zm142.858-82.914v-18.5a11.941,11.941,0,0,0-11.905-11.948H1378.825a11.941,11.941,0,0,0-11.905,11.948v18.5Zm-77.738,73.436a2.535,2.535,0,0,1-1.95-3l10.184-48.53a2.526,2.526,0,1,1,4.942,1.045l-10.184,48.53a2.52,2.52,0,0,1-2.992,1.958Zm20.515-11.312a2.54,2.54,0,0,1,.284-3.572l14.082-12.036-14.082-12.036a2.53,2.53,0,0,1,3.274-3.858l16.34,13.965a2.54,2.54,0,0,1,0,3.859l-16.34,13.966a2.516,2.516,0,0,1-3.559-.288Zm-31.97.288-16.341-13.966a2.542,2.542,0,0,1,0-3.859L1420.585,2946a2.53,2.53,0,1,1,3.273,3.858l-14.082,12.036,14.082,12.036a2.536,2.536,0,0,1-1.639,4.465A2.512,2.512,0,0,1,1420.585,2977.789Zm.995-77.414a7.991,7.991,0,1,1,7.99,8.021A8.014,8.014,0,0,1,1421.58,2900.374Zm5.051,0a2.94,2.94,0,1,0,2.939-2.951A2.948,2.948,0,0,0,1426.63,2900.374Zm-29.605-.076a7.992,7.992,0,1,1,7.991,8.022A8.015,8.015,0,0,1,1397.025,2900.3Zm5.05,0a2.941,2.941,0,1,0,2.941-2.951A2.95,2.95,0,0,0,1402.075,2900.3Zm-29.6-.077a7.992,7.992,0,1,1,7.991,8.021A8.015,8.015,0,0,1,1372.471,2900.22Zm5.051,0a2.941,2.941,0,1,0,2.94-2.952A2.95,2.95,0,0,0,1377.522,2900.22Z" transform="translate(-0.87)" fill="url(#linear-gradient)"/>
  </g>
</svg>
