<svg xmlns="http://www.w3.org/2000/svg" xmlns:xlink="http://www.w3.org/1999/xlink" width="665.95" height="705.65" viewBox="0 0 665.95 705.65">
  <defs>
    <linearGradient id="linear-gradient" x1="0.5" x2="0.5" y2="1" gradientUnits="objectBoundingBox">
      <stop offset="0" stop-color="#4ec7f5"/>
      <stop offset="1" stop-color="#5c75fe"/>
    </linearGradient>
    <filter id="Rounded_Rectangle_3_copy" x="0" y="0" width="665.95" height="705.65" filterUnits="userSpaceOnUse">
      <feOffset dy="20" input="SourceAlpha"/>
      <feGaussianBlur stdDeviation="53" result="blur"/>
      <feFlood flood-color="#218ada" flood-opacity="0.122"/>
      <feComposite operator="in" in2="blur"/>
      <feComposite in="SourceGraphic"/>
    </filter>
  </defs>
  <g id="Group_320" data-name="Group 320" transform="translate(-149 -3181.06)">
    <g transform="matrix(1, 0, 0, 1, 149, 3181.06)" filter="url(#Rounded_Rectangle_3_copy)">
      <rect id="Rounded_Rectangle_3_copy-2" data-name="Rounded Rectangle 3 copy" width="347.95" height="387.65" rx="30" transform="translate(159 139)" fill="url(#linear-gradient)"/>
    </g>
    <g id="Production_Operation" data-name="Production / Operation" transform="translate(18.4)">
      <text id="Production_Operation-2" data-name="Production / Operation" transform="translate(330.6 3613.602)" fill="#fff" font-size="26" font-family="SegoeUI, Segoe UI"><tspan x="0" y="0">Production / Operation</tspan></text>
      <path id="Color_Overlay" data-name="Color Overlay" d="M335.12,3606.721v6.881h-2.133V3595.4h5a6.6,6.6,0,0,1,4.526,1.422,5.077,5.077,0,0,1,1.606,4.012,5.518,5.518,0,0,1-1.784,4.24,6.815,6.815,0,0,1-4.818,1.65Zm0-9.395v7.465h2.234a5,5,0,0,0,3.371-1.009,3.573,3.573,0,0,0,1.162-2.85q0-3.605-4.266-3.605Zm18.929,5.383a2.546,2.546,0,0,0-1.574-.419,2.657,2.657,0,0,0-2.228,1.257,5.811,5.811,0,0,0-.9,3.428v6.627h-2.082v-13h2.082v2.679h.051a4.539,4.539,0,0,1,1.358-2.139,3.1,3.1,0,0,1,2.044-.768,3.4,3.4,0,0,1,1.244.178Zm7.693,11.2a6.03,6.03,0,0,1-4.6-1.822,6.748,6.748,0,0,1-1.72-4.831,7.03,7.03,0,0,1,1.79-5.116,6.435,6.435,0,0,1,4.837-1.841,5.831,5.831,0,0,1,4.539,1.79,7.1,7.1,0,0,1,1.631,4.964,6.984,6.984,0,0,1-1.758,4.983A6.161,6.161,0,0,1,361.742,3613.907Zm.152-11.857a3.96,3.96,0,0,0-3.174,1.365,5.605,5.605,0,0,0-1.168,3.764,5.3,5.3,0,0,0,1.181,3.644,4.013,4.013,0,0,0,3.161,1.333,3.806,3.806,0,0,0,3.1-1.308,5.674,5.674,0,0,0,1.085-3.72A5.772,5.772,0,0,0,365,3603.37,3.79,3.79,0,0,0,361.894,3602.049Zm20.744,11.553h-2.082v-2.209h-.051a4.806,4.806,0,0,1-4.469,2.514,4.855,4.855,0,0,1-3.917-1.746,7.161,7.161,0,0,1-1.466-4.754,7.791,7.791,0,0,1,1.625-5.167,5.36,5.36,0,0,1,4.329-1.942,4.167,4.167,0,0,1,3.9,2.107h.051v-8.049h2.082Zm-2.082-5.878v-1.917a3.719,3.719,0,0,0-1.041-2.666,3.492,3.492,0,0,0-2.641-1.092,3.6,3.6,0,0,0-3,1.4,6.119,6.119,0,0,0-1.092,3.859,5.5,5.5,0,0,0,1.047,3.548,3.423,3.423,0,0,0,2.812,1.3,3.556,3.556,0,0,0,2.825-1.257A4.682,4.682,0,0,0,380.556,3607.724Zm16.809,5.878h-2.082v-2.057h-.051a4.276,4.276,0,0,1-4.012,2.361q-4.646,0-4.646-5.535v-7.77h2.069v7.439q0,4.113,3.148,4.113a3.185,3.185,0,0,0,2.507-1.124,4.3,4.3,0,0,0,.984-2.939v-7.49h2.082Zm13.063-.6a6.766,6.766,0,0,1-3.555.9,5.885,5.885,0,0,1-4.488-1.809,6.556,6.556,0,0,1-1.708-4.691,7.207,7.207,0,0,1,1.841-5.161,6.44,6.44,0,0,1,4.913-1.949,6.84,6.84,0,0,1,3.021.635v2.133a5.294,5.294,0,0,0-3.1-1.016,4.186,4.186,0,0,0-3.269,1.428,5.42,5.42,0,0,0-1.276,3.751,5.16,5.16,0,0,0,1.2,3.605,4.135,4.135,0,0,0,3.218,1.32,5.219,5.219,0,0,0,3.2-1.13Zm9.179.47a4.015,4.015,0,0,1-1.942.406q-3.415,0-3.415-3.809v-7.693h-2.234V3600.6h2.234v-3.174l2.082-.673v3.847h3.275v1.777h-3.275v7.325a3.036,3.036,0,0,0,.444,1.866,1.773,1.773,0,0,0,1.473.559,2.188,2.188,0,0,0,1.358-.432Zm3.847-16.174a1.319,1.319,0,0,1-.952-.381,1.285,1.285,0,0,1-.394-.965,1.333,1.333,0,0,1,1.346-1.358,1.345,1.345,0,0,1,.971.387,1.356,1.356,0,0,1,0,1.923A1.333,1.333,0,0,1,423.454,3597.3Zm1.016,16.3h-2.082v-13h2.082Zm9.648.3a6.03,6.03,0,0,1-4.6-1.822,6.748,6.748,0,0,1-1.72-4.831,7.03,7.03,0,0,1,1.79-5.116,6.435,6.435,0,0,1,4.837-1.841,5.831,5.831,0,0,1,4.539,1.79,7.1,7.1,0,0,1,1.631,4.964,6.984,6.984,0,0,1-1.758,4.983A6.161,6.161,0,0,1,434.118,3613.907Zm.152-11.857a3.96,3.96,0,0,0-3.174,1.365,5.605,5.605,0,0,0-1.168,3.764,5.3,5.3,0,0,0,1.181,3.644,4.013,4.013,0,0,0,3.161,1.333,3.806,3.806,0,0,0,3.1-1.308,5.674,5.674,0,0,0,1.085-3.72,5.772,5.772,0,0,0-1.085-3.758A3.79,3.79,0,0,0,434.27,3602.049Zm20.439,11.553h-2.082v-7.414q0-4.139-3.021-4.139a3.277,3.277,0,0,0-2.583,1.174,4.353,4.353,0,0,0-1.022,2.964v7.414h-2.082v-13H446v2.158h.051a4.692,4.692,0,0,1,4.266-2.463,3.977,3.977,0,0,1,3.263,1.377,6.135,6.135,0,0,1,1.13,3.98Zm19.259-18.205-8.734,21.227h-1.942L472,3595.4Zm16.656,18.51a7.991,7.991,0,0,1-6.2-2.552,9.464,9.464,0,0,1-2.33-6.64,10.028,10.028,0,0,1,2.374-7.008,8.292,8.292,0,0,1,6.462-2.615,7.811,7.811,0,0,1,6.075,2.539,9.5,9.5,0,0,1,2.3,6.64,10.061,10.061,0,0,1-2.361,7.046A8.138,8.138,0,0,1,490.624,3613.907Zm.152-16.885a5.869,5.869,0,0,0-4.659,2.069,9.205,9.205,0,0,0-.044,10.848,5.693,5.693,0,0,0,4.551,2.05,5.977,5.977,0,0,0,4.723-1.955,7.99,7.99,0,0,0,1.727-5.472,8.349,8.349,0,0,0-1.676-5.573A5.746,5.746,0,0,0,490.777,3597.022Zm13.965,14.7h-.051v7.858h-2.082V3600.6h2.082v2.285h.051a4.923,4.923,0,0,1,4.494-2.59,4.76,4.76,0,0,1,3.923,1.746,7.23,7.23,0,0,1,1.409,4.678,8.058,8.058,0,0,1-1.587,5.224,5.284,5.284,0,0,1-4.342,1.961A4.349,4.349,0,0,1,504.742,3611.723Zm-.051-5.243v1.815a3.865,3.865,0,0,0,1.047,2.736,3.736,3.736,0,0,0,5.624-.324,6.64,6.64,0,0,0,1.073-4.024,5.242,5.242,0,0,0-1-3.4,3.319,3.319,0,0,0-2.717-1.231,3.689,3.689,0,0,0-2.92,1.263A4.638,4.638,0,0,0,504.691,3606.48Zm23.651,1.143h-9.179a4.863,4.863,0,0,0,1.168,3.352,4.026,4.026,0,0,0,3.072,1.181,6.387,6.387,0,0,0,4.037-1.447v1.955a7.546,7.546,0,0,1-4.532,1.244,5.5,5.5,0,0,1-4.329-1.771,7.249,7.249,0,0,1-1.574-4.983,7.109,7.109,0,0,1,1.72-4.945A5.516,5.516,0,0,1,523,3600.3a4.887,4.887,0,0,1,3.948,1.65,6.881,6.881,0,0,1,1.4,4.583Zm-2.133-1.765a4.236,4.236,0,0,0-.87-2.806,2.963,2.963,0,0,0-2.38-1,3.364,3.364,0,0,0-2.5,1.054,4.782,4.782,0,0,0-1.27,2.755Zm12.061-3.148a2.546,2.546,0,0,0-1.574-.419,2.657,2.657,0,0,0-2.228,1.257,5.811,5.811,0,0,0-.9,3.428v6.627h-2.082v-13h2.082v2.679h.051a4.539,4.539,0,0,1,1.358-2.139,3.1,3.1,0,0,1,2.044-.768,3.4,3.4,0,0,1,1.244.178Zm11.565,10.893h-2.082v-2.031H547.7a4.359,4.359,0,0,1-4,2.336,4.274,4.274,0,0,1-3.041-1.028,3.563,3.563,0,0,1-1.1-2.729q0-3.643,4.291-4.24l3.9-.546q0-3.313-2.679-3.313a6.4,6.4,0,0,0-4.24,1.6v-2.133a8.056,8.056,0,0,1,4.418-1.219q4.583,0,4.583,4.85Zm-2.082-6.576-3.136.432a5.092,5.092,0,0,0-2.184.717A2.069,2.069,0,0,0,541.7,3610a1.984,1.984,0,0,0,.679,1.555,2.624,2.624,0,0,0,1.809.6,3.342,3.342,0,0,0,2.558-1.085,3.878,3.878,0,0,0,1.009-2.749Zm12.035,6.449a4.015,4.015,0,0,1-1.942.406q-3.415,0-3.415-3.809v-7.693H552.2V3600.6h2.234v-3.174l2.082-.673v3.847h3.275v1.777h-3.275v7.325a3.037,3.037,0,0,0,.444,1.866,1.773,1.773,0,0,0,1.473.559,2.188,2.188,0,0,0,1.358-.432Zm3.847-16.174a1.319,1.319,0,0,1-.952-.381,1.285,1.285,0,0,1-.394-.965,1.333,1.333,0,0,1,1.346-1.358,1.345,1.345,0,0,1,.971.387,1.356,1.356,0,0,1,0,1.923A1.333,1.333,0,0,1,563.635,3597.3Zm1.016,16.3h-2.082v-13h2.082Zm9.648.3a6.03,6.03,0,0,1-4.6-1.822,6.748,6.748,0,0,1-1.72-4.831,7.03,7.03,0,0,1,1.79-5.116,6.435,6.435,0,0,1,4.837-1.841,5.83,5.83,0,0,1,4.539,1.79,7.1,7.1,0,0,1,1.631,4.964,6.984,6.984,0,0,1-1.758,4.983A6.161,6.161,0,0,1,574.3,3613.907Zm.152-11.857a3.96,3.96,0,0,0-3.174,1.365,5.605,5.605,0,0,0-1.168,3.764,5.3,5.3,0,0,0,1.181,3.644,4.013,4.013,0,0,0,3.161,1.333,3.806,3.806,0,0,0,3.1-1.308,5.674,5.674,0,0,0,1.085-3.72,5.772,5.772,0,0,0-1.085-3.758A3.79,3.79,0,0,0,574.452,3602.049Zm20.439,11.553h-2.082v-7.414q0-4.139-3.021-4.139a3.277,3.277,0,0,0-2.583,1.174,4.353,4.353,0,0,0-1.022,2.964v7.414H584.1v-13h2.082v2.158h.051a4.692,4.692,0,0,1,4.266-2.463,3.977,3.977,0,0,1,3.263,1.377,6.135,6.135,0,0,1,1.13,3.98Z" fill="#fff"/>
    </g>
    <g id="_100_open_position" data-name="100 open position" transform="translate(2.296)">
      <text id="_100_open_position-2" data-name="100 open position" transform="translate(391.704 3647.408)" fill="#fff" font-size="22" font-family="SegoeUI, Segoe UI"><tspan x="0" y="0">100 open position</tspan></text>
      <path id="Color_Overlay-2" data-name="Color Overlay" d="M399.481,3647.408H397.72V3634.1a4.09,4.09,0,0,1-.6.467,9.7,9.7,0,0,1-.881.521q-.489.258-1.031.483a7.5,7.5,0,0,1-1.058.354v-1.783a10.241,10.241,0,0,0,1.23-.435q.65-.274,1.278-.612t1.187-.709a9.422,9.422,0,0,0,.967-.725h.666Zm15.039-7.767a15.131,15.131,0,0,1-.349,3.427,7.985,7.985,0,0,1-1.01,2.519,4.545,4.545,0,0,1-1.622,1.558,4.441,4.441,0,0,1-2.186.532,4.148,4.148,0,0,1-2.068-.51,4.334,4.334,0,0,1-1.531-1.488,7.539,7.539,0,0,1-.945-2.4,14.846,14.846,0,0,1-.322-3.26,16.8,16.8,0,0,1,.338-3.566,8.157,8.157,0,0,1,.994-2.594,4.423,4.423,0,0,1,1.627-1.579,4.569,4.569,0,0,1,2.229-.532Q414.52,3631.746,414.52,3639.641Zm-1.8.172q0-6.574-3.126-6.574-3.3,0-3.3,6.692,0,6.241,3.233,6.241Q412.716,3646.173,412.716,3639.813Zm13.664-.172a15.131,15.131,0,0,1-.349,3.427,7.985,7.985,0,0,1-1.01,2.519,4.545,4.545,0,0,1-1.622,1.558,4.441,4.441,0,0,1-2.186.532,4.148,4.148,0,0,1-2.068-.51,4.334,4.334,0,0,1-1.531-1.488,7.539,7.539,0,0,1-.945-2.4,14.846,14.846,0,0,1-.322-3.26,16.8,16.8,0,0,1,.338-3.566,8.157,8.157,0,0,1,.994-2.594,4.423,4.423,0,0,1,1.627-1.579,4.569,4.569,0,0,1,2.229-.532Q426.38,3631.746,426.38,3639.641Zm-1.8.172q0-6.574-3.126-6.574-3.3,0-3.3,6.692,0,6.241,3.233,6.241Q424.575,3646.173,424.575,3639.813Zm15.114,7.853a5.1,5.1,0,0,1-3.894-1.542,5.71,5.71,0,0,1-1.456-4.087,5.948,5.948,0,0,1,1.515-4.329,5.446,5.446,0,0,1,4.093-1.558,4.934,4.934,0,0,1,3.84,1.515,6.006,6.006,0,0,1,1.38,4.2,5.91,5.91,0,0,1-1.488,4.216A5.213,5.213,0,0,1,439.689,3647.666Zm.129-10.033a3.351,3.351,0,0,0-2.686,1.155,4.743,4.743,0,0,0-.988,3.185,4.485,4.485,0,0,0,1,3.083,3.4,3.4,0,0,0,2.675,1.128,3.221,3.221,0,0,0,2.626-1.106,4.8,4.8,0,0,0,.918-3.147,4.884,4.884,0,0,0-.918-3.18A3.206,3.206,0,0,0,439.818,3637.633Zm9.969,8.186h-.043v6.649h-1.762v-16.06h1.762v1.934h.043a4.166,4.166,0,0,1,3.8-2.191,4.028,4.028,0,0,1,3.319,1.477,6.118,6.118,0,0,1,1.192,3.958,6.818,6.818,0,0,1-1.343,4.42,4.471,4.471,0,0,1-3.674,1.66A3.68,3.68,0,0,1,449.787,3645.818Zm-.043-4.437v1.536a3.271,3.271,0,0,0,.886,2.315,3.162,3.162,0,0,0,4.759-.274,5.618,5.618,0,0,0,.908-3.405,4.435,4.435,0,0,0-.849-2.879,2.809,2.809,0,0,0-2.3-1.042,3.121,3.121,0,0,0-2.471,1.069A3.925,3.925,0,0,0,449.744,3641.382Zm20.013.967H461.99a4.114,4.114,0,0,0,.988,2.836,3.407,3.407,0,0,0,2.6,1,5.4,5.4,0,0,0,3.416-1.225v1.654a6.384,6.384,0,0,1-3.835,1.053,4.649,4.649,0,0,1-3.663-1.5,6.134,6.134,0,0,1-1.332-4.216,6.015,6.015,0,0,1,1.456-4.184,4.667,4.667,0,0,1,3.615-1.617,4.136,4.136,0,0,1,3.341,1.4,5.822,5.822,0,0,1,1.182,3.878Zm-1.8-1.493a3.584,3.584,0,0,0-.736-2.374,2.507,2.507,0,0,0-2.014-.849,2.846,2.846,0,0,0-2.116.892,4.046,4.046,0,0,0-1.074,2.331Zm13.6,6.553H479.79v-6.273q0-3.5-2.557-3.5a2.773,2.773,0,0,0-2.186.994,3.683,3.683,0,0,0-.865,2.508v6.273h-1.762v-11h1.762v1.826h.043a3.97,3.97,0,0,1,3.609-2.084,3.365,3.365,0,0,1,2.761,1.166,5.192,5.192,0,0,1,.956,3.368Zm11.15-1.59h-.043v6.649H490.9v-16.06h1.762v1.934h.043a4.166,4.166,0,0,1,3.8-2.191,4.028,4.028,0,0,1,3.319,1.477,6.118,6.118,0,0,1,1.192,3.958,6.818,6.818,0,0,1-1.343,4.42,4.471,4.471,0,0,1-3.674,1.66A3.68,3.68,0,0,1,492.7,3645.818Zm-.043-4.437v1.536a3.271,3.271,0,0,0,.886,2.315,3.162,3.162,0,0,0,4.759-.274,5.618,5.618,0,0,0,.908-3.405,4.435,4.435,0,0,0-.849-2.879,2.809,2.809,0,0,0-2.3-1.042,3.121,3.121,0,0,0-2.471,1.069A3.925,3.925,0,0,0,492.659,3641.382Zm15.77,6.284a5.1,5.1,0,0,1-3.894-1.542,5.71,5.71,0,0,1-1.456-4.087,5.948,5.948,0,0,1,1.515-4.329,5.446,5.446,0,0,1,4.093-1.558,4.933,4.933,0,0,1,3.84,1.515,6.006,6.006,0,0,1,1.38,4.2,5.909,5.909,0,0,1-1.488,4.216A5.213,5.213,0,0,1,508.429,3647.666Zm.129-10.033a3.351,3.351,0,0,0-2.686,1.155,4.743,4.743,0,0,0-.988,3.185,4.485,4.485,0,0,0,1,3.083,3.4,3.4,0,0,0,2.675,1.128,3.221,3.221,0,0,0,2.626-1.106,4.8,4.8,0,0,0,.918-3.147,4.884,4.884,0,0,0-.918-3.18A3.206,3.206,0,0,0,508.558,3637.633Zm7.5,9.378v-1.891a5.214,5.214,0,0,0,3.169,1.063q2.32,0,2.32-1.547a1.342,1.342,0,0,0-.2-.747,1.979,1.979,0,0,0-.537-.542,4.134,4.134,0,0,0-.795-.424q-.456-.188-.983-.392a12.647,12.647,0,0,1-1.284-.585,3.881,3.881,0,0,1-.924-.666,2.478,2.478,0,0,1-.559-.843,2.984,2.984,0,0,1-.188-1.106,2.628,2.628,0,0,1,.354-1.37,3.144,3.144,0,0,1,.945-1,4.407,4.407,0,0,1,1.348-.607,5.983,5.983,0,0,1,1.563-.2,6.312,6.312,0,0,1,2.557.494v1.783a4.982,4.982,0,0,0-2.793-.795,3.265,3.265,0,0,0-.892.113,2.185,2.185,0,0,0-.682.317,1.465,1.465,0,0,0-.44.489,1.287,1.287,0,0,0-.156.628,1.508,1.508,0,0,0,.156.72,1.585,1.585,0,0,0,.457.516,3.5,3.5,0,0,0,.73.408q.43.183.978.4a13.6,13.6,0,0,1,1.311.575,4.5,4.5,0,0,1,.988.666,2.6,2.6,0,0,1,.628.854,2.753,2.753,0,0,1,.22,1.149,2.71,2.71,0,0,1-.36,1.418,3.082,3.082,0,0,1-.961,1,4.4,4.4,0,0,1-1.386.591,6.842,6.842,0,0,1-1.644.193A6.242,6.242,0,0,1,516.056,3647.01Zm10.9-13.4a1.116,1.116,0,0,1-.806-.322,1.088,1.088,0,0,1-.333-.816,1.128,1.128,0,0,1,1.139-1.149,1.137,1.137,0,0,1,.822.328,1.148,1.148,0,0,1,0,1.627A1.128,1.128,0,0,1,526.959,3633.615Zm.859,13.793h-1.762v-11h1.762Zm8.669-.107a3.4,3.4,0,0,1-1.644.344q-2.89,0-2.89-3.223v-6.51h-1.891v-1.5h1.891v-2.686l1.762-.569v3.255h2.771v1.5h-2.771v6.2a2.57,2.57,0,0,0,.376,1.579,1.5,1.5,0,0,0,1.246.473,1.853,1.853,0,0,0,1.149-.365Zm3.255-13.686a1.116,1.116,0,0,1-.806-.322,1.088,1.088,0,0,1-.333-.816,1.128,1.128,0,0,1,1.139-1.149,1.137,1.137,0,0,1,.822.328,1.148,1.148,0,0,1,0,1.627A1.128,1.128,0,0,1,539.742,3633.615Zm.859,13.793H538.84v-11H540.6Zm8.164.258a5.1,5.1,0,0,1-3.894-1.542,5.71,5.71,0,0,1-1.456-4.087,5.948,5.948,0,0,1,1.515-4.329,5.446,5.446,0,0,1,4.093-1.558,4.933,4.933,0,0,1,3.84,1.515,6.006,6.006,0,0,1,1.38,4.2,5.909,5.909,0,0,1-1.488,4.216A5.213,5.213,0,0,1,548.766,3647.666Zm.129-10.033a3.351,3.351,0,0,0-2.686,1.155,4.743,4.743,0,0,0-.988,3.185,4.485,4.485,0,0,0,1,3.083,3.4,3.4,0,0,0,2.675,1.128,3.221,3.221,0,0,0,2.626-1.106,4.8,4.8,0,0,0,.918-3.147,4.884,4.884,0,0,0-.918-3.18A3.206,3.206,0,0,0,548.894,3637.633Zm17.295,9.775h-1.762v-6.273q0-3.5-2.557-3.5a2.774,2.774,0,0,0-2.186.994,3.683,3.683,0,0,0-.865,2.508v6.273h-1.762v-11h1.762v1.826h.043a3.97,3.97,0,0,1,3.609-2.084,3.365,3.365,0,0,1,2.761,1.166,5.192,5.192,0,0,1,.956,3.368Z" fill="#fff"/>
    </g>
    <path id="Shape_5" data-name="Shape 5" d="M519.89,3545.408a2.472,2.472,0,0,1-2.471-2.471v-14.829a2.471,2.471,0,0,1,2.471-2.47H522.7a17.255,17.255,0,0,1-2.812-9.435v-6.215a12.305,12.305,0,0,1,.67-4.006l7.645-22.226a7.429,7.429,0,0,1,5.032-5.191l-4.647-17.407a7.329,7.329,0,0,1,2.941-8.012,7.32,7.32,0,0,1,4.2-1.332,7.33,7.33,0,0,1,7.121,5.363l13.188,40.52a12.477,12.477,0,0,1,.336,6.379l-3.811,14.809a17.3,17.3,0,0,0-.546,4.313v2.44h2.471a2.471,2.471,0,0,1,2.471,2.47v14.829a2.472,2.472,0,0,1-2.471,2.471Zm2.471-4.943H552.02v-9.885H522.362Zm10.568-55.274-7.693,22.389a7.372,7.372,0,0,0-.4,2.406v6.215a12.334,12.334,0,0,0,2.076,6.857l1.717,2.578h18.45v-2.44a22.3,22.3,0,0,1,.7-5.546l3.782-14.678a7.427,7.427,0,0,0-.22-3.75l-13.23-40.666-.007-.024a2.441,2.441,0,0,0-3.01-1.691,2.183,2.183,0,0,0-.757.361,2.431,2.431,0,0,0-.988,2.668l5.1,19.054a7.348,7.348,0,0,1,4.315,6.723,6.814,6.814,0,0,1-.247,1.92l-4.473,16.712a2.472,2.472,0,0,1-4.775-1.28l4.491-16.769a2.066,2.066,0,0,0,.071-.583,2.4,2.4,0,0,0-1.638-2.3,3.062,3.062,0,0,0-.329-.106,2.5,2.5,0,0,0-2.936,1.948Zm-121.784,60.217a2.472,2.472,0,0,1-2.471-2.471v-14.829a2.471,2.471,0,0,1,2.471-2.47h2.471v-2.44a17.287,17.287,0,0,0-.546-4.3l-3.811-14.809a12.475,12.475,0,0,1,.337-6.378l13.188-40.532a7.329,7.329,0,0,1,7.133-5.373,7,7,0,0,1,1.977.274,6.922,6.922,0,0,1,2.224,1.058,7.33,7.33,0,0,1,2.941,8.013l-4.658,17.406a7.431,7.431,0,0,1,5.032,5.19l7.644,22.226a12.313,12.313,0,0,1,.671,4.016v6.215a17.263,17.263,0,0,1-2.812,9.435h2.813a2.471,2.471,0,0,1,2.471,2.47v14.829a2.472,2.472,0,0,1-2.471,2.471Zm2.471-4.943h29.658v-9.885H413.618Zm13.909-81.906-13.23,40.666a7.416,7.416,0,0,0-.22,3.749l3.782,14.678a22.327,22.327,0,0,1,.7,5.544v2.44h18.449l1.718-2.578a12.333,12.333,0,0,0,2.076-6.857v-6.215a7.372,7.372,0,0,0-.4-2.406l-7.694-22.389a2.5,2.5,0,0,0-2.936-1.948c-.037.007-.272.086-.329.106a2.4,2.4,0,0,0-1.639,2.3,2.066,2.066,0,0,0,.072.583L432.356,3503a2.472,2.472,0,1,1-4.775,1.28l-4.473-16.712a6.783,6.783,0,0,1-.247-1.92,7.347,7.347,0,0,1,4.325-6.723l5.1-19.052a2.43,2.43,0,0,0-.988-2.667,2.176,2.176,0,0,0-.757-.361.1.1,0,0,0-.023-.006,2.438,2.438,0,0,0-2.993,1.721ZM481.7,3488.64l-39.543-20.118a2.471,2.471,0,0,1-1.349-2.2v-49.429a2.471,2.471,0,0,1,1.482-2.264l39.543-17.3a2.469,2.469,0,0,1,1.977,0l39.543,17.3a2.47,2.47,0,0,1,1.483,2.264v49.676a2.47,2.47,0,0,1-1.362,2.209l-39.543,19.871a2.5,2.5,0,0,1-1.11.261A2.468,2.468,0,0,1,481.7,3488.64Zm3.594-52.832v46.621l34.6-17.387v-44.372Zm-39.543,29,34.6,17.6V3435.8l-9.887-4.325v12.6a2.47,2.47,0,0,1-3.576,2.212L457,3441.347a2.475,2.475,0,0,1-1.367-2.213V3425l-9.886-4.324Zm14.828-27.2,4.943,2.471v-10.758l-4.943-2.163Zm16.163-24.835,10.606,4.623a2.472,2.472,0,0,1,0,4.529l-13.2,5.775,8.675,3.8,33.377-14.6-33.377-14.6-33.365,14.6,7.931,3.475,17.377-7.6a2.475,2.475,0,0,1,1.976,0Zm-13.2,10.294,4.449,1.934,12.175-5.335-4.424-1.93Zm24.486,49.657a2.472,2.472,0,0,1,1.1-3.32l9.9-4.978a2.473,2.473,0,1,1,2.225,4.416l-9.9,4.978a2.472,2.472,0,0,1-3.321-1.1Zm0-9.887a2.47,2.47,0,0,1,1.1-3.318l9.76-4.907a2.473,2.473,0,0,1,2.224,4.417l-9.762,4.906a2.474,2.474,0,0,1-3.316-1.1Z" transform="translate(-0.675)" fill="#fff"/>
  </g>
</svg>
