<svg xmlns="http://www.w3.org/2000/svg" xmlns:xlink="http://www.w3.org/1999/xlink" width="665.95" height="705.65" viewBox="0 0 665.95 705.65">
  <defs>
    <linearGradient id="linear-gradient" x1="0.5" x2="0.5" y2="1" gradientUnits="objectBoundingBox">
      <stop offset="0" stop-color="#4ec7f5"/>
      <stop offset="1" stop-color="#5c75fe"/>
    </linearGradient>
    <filter id="Rounded_Rectangle_3_copy_5" x="0" y="0" width="665.95" height="705.65" filterUnits="userSpaceOnUse">
      <feOffset dy="20" input="SourceAlpha"/>
      <feGaussianBlur stdDeviation="53" result="blur"/>
      <feFlood flood-color="#218ada" flood-opacity="0.122"/>
      <feComposite operator="in" in2="blur"/>
      <feComposite in="SourceGraphic"/>
    </filter>
  </defs>
  <g id="Group_324" data-name="Group 324" transform="translate(-1104.79 -3181.06)">
    <g transform="matrix(1, 0, 0, 1, 1104.79, 3181.06)" filter="url(#Rounded_Rectangle_3_copy_5)">
      <rect id="Rounded_Rectangle_3_copy_5-2" data-name="Rounded Rectangle 3 copy 5" width="347.95" height="387.65" rx="30" transform="translate(159 139)" fill="url(#linear-gradient)"/>
    </g>
    <text id="_Consultancy" data-name=" Consultancy" transform="translate(1352.844 3611.267)" fill="#fff" font-size="26" font-family="SegoeUI, Segoe UI"><tspan x="0" y="0" xml:space="preserve"> Consultancy</tspan></text>
    <g id="_100_open_position" data-name="100 open position">
      <text id="_100_open_position-2" data-name="100 open position" transform="translate(1347.234 3647.408)" fill="#fff" font-size="22" font-family="SegoeUI, Segoe UI"><tspan x="0" y="0">100 open position</tspan></text>
      <path id="Color_Overlay" data-name="Color Overlay" d="M1355.011,3647.408h-1.762V3634.1a4.094,4.094,0,0,1-.6.467,9.7,9.7,0,0,1-.881.521q-.489.258-1.031.483a7.5,7.5,0,0,1-1.058.354v-1.783a10.239,10.239,0,0,0,1.23-.435q.65-.274,1.278-.612t1.187-.709a9.415,9.415,0,0,0,.967-.725h.666Zm15.039-7.767a15.13,15.13,0,0,1-.349,3.427,7.985,7.985,0,0,1-1.01,2.519,4.545,4.545,0,0,1-1.622,1.558,4.441,4.441,0,0,1-2.186.532,4.147,4.147,0,0,1-2.068-.51,4.335,4.335,0,0,1-1.531-1.488,7.538,7.538,0,0,1-.945-2.4,14.846,14.846,0,0,1-.322-3.26,16.8,16.8,0,0,1,.338-3.566,8.157,8.157,0,0,1,.994-2.594,4.423,4.423,0,0,1,1.627-1.579,4.569,4.569,0,0,1,2.229-.532Q1370.05,3631.746,1370.05,3639.641Zm-1.8.172q0-6.574-3.126-6.574-3.3,0-3.3,6.692,0,6.241,3.233,6.241Q1368.246,3646.173,1368.246,3639.813Zm13.664-.172a15.13,15.13,0,0,1-.349,3.427,7.985,7.985,0,0,1-1.01,2.519,4.545,4.545,0,0,1-1.622,1.558,4.441,4.441,0,0,1-2.186.532,4.147,4.147,0,0,1-2.068-.51,4.335,4.335,0,0,1-1.531-1.488,7.538,7.538,0,0,1-.945-2.4,14.846,14.846,0,0,1-.322-3.26,16.8,16.8,0,0,1,.338-3.566,8.157,8.157,0,0,1,.994-2.594,4.423,4.423,0,0,1,1.627-1.579,4.569,4.569,0,0,1,2.229-.532Q1381.91,3631.746,1381.91,3639.641Zm-1.8.172q0-6.574-3.126-6.574-3.3,0-3.3,6.692,0,6.241,3.233,6.241Q1380.105,3646.173,1380.105,3639.813Zm15.114,7.853a5.1,5.1,0,0,1-3.894-1.542,5.71,5.71,0,0,1-1.456-4.087,5.948,5.948,0,0,1,1.515-4.329,5.446,5.446,0,0,1,4.093-1.558,4.934,4.934,0,0,1,3.84,1.515,6.006,6.006,0,0,1,1.38,4.2,5.91,5.91,0,0,1-1.488,4.216A5.213,5.213,0,0,1,1395.219,3647.666Zm.129-10.033a3.351,3.351,0,0,0-2.686,1.155,4.743,4.743,0,0,0-.988,3.185,4.485,4.485,0,0,0,1,3.083,3.4,3.4,0,0,0,2.675,1.128,3.221,3.221,0,0,0,2.626-1.106,4.8,4.8,0,0,0,.918-3.147,4.884,4.884,0,0,0-.918-3.18A3.206,3.206,0,0,0,1395.348,3637.633Zm9.969,8.186h-.043v6.649h-1.762v-16.06h1.762v1.934h.043a4.166,4.166,0,0,1,3.8-2.191,4.028,4.028,0,0,1,3.319,1.477,6.118,6.118,0,0,1,1.192,3.958,6.818,6.818,0,0,1-1.343,4.42,4.471,4.471,0,0,1-3.674,1.66A3.68,3.68,0,0,1,1405.317,3645.818Zm-.043-4.437v1.536a3.271,3.271,0,0,0,.886,2.315,3.162,3.162,0,0,0,4.759-.274,5.618,5.618,0,0,0,.908-3.405,4.435,4.435,0,0,0-.849-2.879,2.809,2.809,0,0,0-2.3-1.042,3.121,3.121,0,0,0-2.471,1.069A3.925,3.925,0,0,0,1405.274,3641.382Zm20.013.967h-7.767a4.114,4.114,0,0,0,.988,2.836,3.407,3.407,0,0,0,2.6,1,5.4,5.4,0,0,0,3.416-1.225v1.654a6.384,6.384,0,0,1-3.835,1.053,4.649,4.649,0,0,1-3.663-1.5,6.133,6.133,0,0,1-1.332-4.216,6.015,6.015,0,0,1,1.456-4.184,4.667,4.667,0,0,1,3.615-1.617,4.136,4.136,0,0,1,3.341,1.4,5.822,5.822,0,0,1,1.182,3.878Zm-1.8-1.493a3.585,3.585,0,0,0-.736-2.374,2.507,2.507,0,0,0-2.014-.849,2.846,2.846,0,0,0-2.116.892,4.046,4.046,0,0,0-1.074,2.331Zm13.6,6.553h-1.762v-6.273q0-3.5-2.557-3.5a2.774,2.774,0,0,0-2.186.994,3.683,3.683,0,0,0-.865,2.508v6.273h-1.762v-11h1.762v1.826h.043a3.97,3.97,0,0,1,3.609-2.084,3.365,3.365,0,0,1,2.761,1.166,5.192,5.192,0,0,1,.956,3.368Zm11.15-1.59h-.043v6.649h-1.762v-16.06h1.762v1.934h.043a4.166,4.166,0,0,1,3.8-2.191,4.028,4.028,0,0,1,3.319,1.477,6.118,6.118,0,0,1,1.192,3.958,6.818,6.818,0,0,1-1.343,4.42,4.471,4.471,0,0,1-3.674,1.66A3.68,3.68,0,0,1,1448.232,3645.818Zm-.043-4.437v1.536a3.271,3.271,0,0,0,.886,2.315,3.162,3.162,0,0,0,4.759-.274,5.618,5.618,0,0,0,.908-3.405,4.435,4.435,0,0,0-.849-2.879,2.809,2.809,0,0,0-2.3-1.042,3.121,3.121,0,0,0-2.471,1.069A3.925,3.925,0,0,0,1448.189,3641.382Zm15.77,6.284a5.1,5.1,0,0,1-3.894-1.542,5.71,5.71,0,0,1-1.456-4.087,5.948,5.948,0,0,1,1.515-4.329,5.446,5.446,0,0,1,4.093-1.558,4.934,4.934,0,0,1,3.84,1.515,6.006,6.006,0,0,1,1.38,4.2,5.91,5.91,0,0,1-1.488,4.216A5.213,5.213,0,0,1,1463.959,3647.666Zm.129-10.033a3.351,3.351,0,0,0-2.686,1.155,4.743,4.743,0,0,0-.988,3.185,4.485,4.485,0,0,0,1,3.083,3.4,3.4,0,0,0,2.675,1.128,3.221,3.221,0,0,0,2.626-1.106,4.8,4.8,0,0,0,.918-3.147,4.884,4.884,0,0,0-.918-3.18A3.206,3.206,0,0,0,1464.088,3637.633Zm7.5,9.378v-1.891a5.214,5.214,0,0,0,3.169,1.063q2.32,0,2.32-1.547a1.342,1.342,0,0,0-.2-.747,1.979,1.979,0,0,0-.537-.542,4.136,4.136,0,0,0-.795-.424q-.456-.188-.983-.392a12.641,12.641,0,0,1-1.284-.585,3.881,3.881,0,0,1-.924-.666,2.478,2.478,0,0,1-.559-.843,2.982,2.982,0,0,1-.188-1.106,2.628,2.628,0,0,1,.354-1.37,3.143,3.143,0,0,1,.945-1,4.407,4.407,0,0,1,1.348-.607,5.983,5.983,0,0,1,1.563-.2,6.312,6.312,0,0,1,2.557.494v1.783a4.982,4.982,0,0,0-2.793-.795,3.265,3.265,0,0,0-.892.113,2.185,2.185,0,0,0-.682.317,1.464,1.464,0,0,0-.44.489,1.287,1.287,0,0,0-.156.628,1.507,1.507,0,0,0,.156.72,1.584,1.584,0,0,0,.457.516,3.493,3.493,0,0,0,.73.408q.43.183.978.4a13.609,13.609,0,0,1,1.311.575,4.5,4.5,0,0,1,.988.666,2.6,2.6,0,0,1,.628.854,2.753,2.753,0,0,1,.22,1.149,2.711,2.711,0,0,1-.36,1.418,3.083,3.083,0,0,1-.961,1,4.4,4.4,0,0,1-1.386.591,6.843,6.843,0,0,1-1.644.193A6.242,6.242,0,0,1,1471.586,3647.01Zm10.9-13.4a1.116,1.116,0,0,1-.806-.322,1.088,1.088,0,0,1-.333-.816,1.128,1.128,0,0,1,1.139-1.149,1.137,1.137,0,0,1,.822.328,1.148,1.148,0,0,1,0,1.627A1.128,1.128,0,0,1,1482.489,3633.615Zm.859,13.793h-1.762v-11h1.762Zm8.669-.107a3.4,3.4,0,0,1-1.644.344q-2.89,0-2.89-3.223v-6.51h-1.891v-1.5h1.891v-2.686l1.762-.569v3.255h2.771v1.5h-2.771v6.2a2.57,2.57,0,0,0,.376,1.579,1.5,1.5,0,0,0,1.246.473,1.853,1.853,0,0,0,1.149-.365Zm3.255-13.686a1.116,1.116,0,0,1-.806-.322,1.088,1.088,0,0,1-.333-.816,1.128,1.128,0,0,1,1.139-1.149,1.137,1.137,0,0,1,.822.328,1.148,1.148,0,0,1,0,1.627A1.128,1.128,0,0,1,1495.272,3633.615Zm.859,13.793h-1.762v-11h1.762Zm8.164.258a5.1,5.1,0,0,1-3.894-1.542,5.71,5.71,0,0,1-1.456-4.087,5.948,5.948,0,0,1,1.515-4.329,5.446,5.446,0,0,1,4.093-1.558,4.934,4.934,0,0,1,3.84,1.515,6.006,6.006,0,0,1,1.38,4.2,5.91,5.91,0,0,1-1.488,4.216A5.213,5.213,0,0,1,1504.3,3647.666Zm.129-10.033a3.351,3.351,0,0,0-2.686,1.155,4.743,4.743,0,0,0-.988,3.185,4.485,4.485,0,0,0,1,3.083,3.4,3.4,0,0,0,2.675,1.128,3.221,3.221,0,0,0,2.626-1.106,4.8,4.8,0,0,0,.918-3.147,4.884,4.884,0,0,0-.918-3.18A3.206,3.206,0,0,0,1504.424,3637.633Zm17.295,9.775h-1.762v-6.273q0-3.5-2.557-3.5a2.774,2.774,0,0,0-2.186.994,3.683,3.683,0,0,0-.865,2.508v6.273h-1.762v-11h1.762v1.826h.043a3.97,3.97,0,0,1,3.609-2.084,3.365,3.365,0,0,1,2.761,1.166,5.192,5.192,0,0,1,.956,3.368Z" fill="#fff"/>
    </g>
    <path id="Shape_7" data-name="Shape 7" d="M1373.546,3544.24v-4.369h18.814v-34.953h-4.18V3491.81h8.362v-8.164a8.725,8.725,0,0,1,6.064-8.4l8.569-2.556v-3.9a13.33,13.33,0,0,1-4.181-9.743v-4.369c0-7.23,5.626-13.108,12.542-13.108s12.542,5.878,12.542,13.108v4.369a13.327,13.327,0,0,1-4.181,9.743v3.9l8.569,2.556a8.688,8.688,0,0,1,6.018,7.83h11.723l11.22-11.725a13.1,13.1,0,0,1-8.264-12.3v-4.369c0-7.23,5.625-13.108,12.542-13.108s12.542,5.878,12.542,13.108v4.369a13.323,13.323,0,0,1-4.073,9.637,7.911,7.911,0,0,1,4.073,7v3.019h8.362v28.4a15.111,15.111,0,0,1-12.342,15.084l1.69,17.685h23.194v4.369Zm98.052-4.369h4.16l-1.671-17.476h-4.161Zm-16.525,0H1467.4l-1.672-17.476h-10.651Zm-13.341-8.738,4.181,8.738h4.979v-26.215h-43.9v-4.369h43.9v-4.37h-54.351v4.37h6.271v4.369h-6.271v26.215h4.979l4.181-8.738Zm-35.537,8.738h35.043l-2.091-4.37h-30.862Zm48.878-21.846h20.9a10.709,10.709,0,0,0,10.453-10.923v-24.03h-4.181v19.661a10.707,10.707,0,0,1-10.452,10.923h-16.724Zm0-8.738H1471.8a6.426,6.426,0,0,0,6.271-6.554v-27.049a3.787,3.787,0,0,0-.06-.455,6.983,6.983,0,0,1-1.85,4.189l-14.813,15.48v10.019h-6.271Zm-62.713-8.739h64.8v-4.369h-64.8Zm41.809-10.922a2.14,2.14,0,0,0,2.091,2.184h22.129l14.812-15.481a2.521,2.521,0,0,0,.686-1.731,2.4,2.4,0,0,0-2.344-2.45,2.308,2.308,0,0,0-1.657.717l-13.947,14.576h-19.679A2.14,2.14,0,0,0,1434.168,3489.626Zm-30.416-10.181a4.366,4.366,0,0,0-3.031,4.2v8.162h29.651a6.748,6.748,0,0,1-.384-2.185,6.425,6.425,0,0,1,6.271-6.553h2a4.306,4.306,0,0,0-2.942-3.627l-8.611-2.571a8.413,8.413,0,0,1-14.342,0Zm11.6-5.714c.518.836,1.958,2.787,4.18,2.787s3.663-1.951,4.181-2.787v-2.346a11.823,11.823,0,0,1-8.362,0Zm45.989-19.058v4.369a8.37,8.37,0,1,0,16.724,0v-4.369a8.37,8.37,0,1,0-16.724,0Zm-50.17,0v4.369a8.37,8.37,0,1,0,16.723,0v-4.369a8.37,8.37,0,1,0-16.723,0Zm27.176-24.031h-14.633V3408.8h50.17v21.846h-20.147l-15.389,13.4Zm-10.453-4.369h14.633v8.444l9.7-8.444h17.48v-13.108H1427.9Zm33.443-4.372v-4.37h4.18v4.37Zm-20.9,0v-4.37h16.72v4.37Zm-8.36,0v-4.37h4.18v4.37Z" fill="#fff"/>
  </g>
</svg>
