<svg xmlns="http://www.w3.org/2000/svg" xmlns:xlink="http://www.w3.org/1999/xlink" width="665.95" height="705.65" viewBox="0 0 665.95 705.65">
  <defs>
    <filter id="Rounded_Rectangle_3" x="0" y="0" width="665.95" height="705.65" filterUnits="userSpaceOnUse">
      <feOffset dy="20" input="SourceAlpha"/>
      <feGaussianBlur stdDeviation="53" result="blur"/>
      <feFlood flood-color="#218ada" flood-opacity="0.122"/>
      <feComposite operator="in" in2="blur"/>
      <feComposite in="SourceGraphic"/>
    </filter>
    <linearGradient id="linear-gradient" x1="0.5" y1="1.25" x2="0.5" y2="-0.25" gradientUnits="objectBoundingBox">
      <stop offset="0" stop-color="#6365d9"/>
      <stop offset="1" stop-color="#34beea"/>
    </linearGradient>
  </defs>
  <g id="Group_317" data-name="Group 317" transform="translate(-149.26 -2653.29)">
    <g transform="matrix(1, 0, 0, 1, 149.26, 2653.29)" filter="url(#Rounded_Rectangle_3)">
      <rect id="Rounded_Rectangle_3-2" data-name="Rounded Rectangle 3" width="347.95" height="387.65" rx="30" transform="translate(159 139)" fill="#fff"/>
    </g>
    <path id="Shape_2" data-name="Shape 2" d="M425.711,3015.307V2952.06h-9.735a7.3,7.3,0,0,1-7.3-7.3v-68.111a7.3,7.3,0,0,1,7.3-7.3h53.542a7.3,7.3,0,0,1,7.3,7.3v2.432h30.212l30.632,30.616v37.5h-4.868v-34.055h-29.2v-29.192H476.819v60.814a7.3,7.3,0,0,1-7.3,7.3H430.578v58.382H532.795v-29.19h4.868v34.055Zm-12.169-138.655v68.111a2.433,2.433,0,0,0,2.434,2.433h53.542a2.433,2.433,0,0,0,2.434-2.433v-68.111a2.433,2.433,0,0,0-2.434-2.433H415.976A2.433,2.433,0,0,0,413.542,2876.652Zm94.916,31.622h20.9l-20.9-20.885Zm-68.145,72.978a24.338,24.338,0,1,1,24.338,24.325A24.331,24.331,0,0,1,440.312,2981.252Zm4.868,0a19.47,19.47,0,1,0,19.47-19.461A19.464,19.464,0,0,0,445.181,2981.252Zm49.392,23.61a2.429,2.429,0,0,1-.491-2.733l5.875-12.752a2.466,2.466,0,0,1,.487-.7l41.722-41.7a7.477,7.477,0,0,1,10.323,0,7.294,7.294,0,0,1,0,10.32l-41.719,41.7a2.449,2.449,0,0,1-.7.487l-12.758,5.872a2.434,2.434,0,0,1-2.736-.492Zm9.621-13.055-2.938,6.373,6.377-2.936,31.109-31.092-3.442-3.439Zm34.556-34.544,3.442,3.438,1.7-1.7-3.442-3.44Zm6.866-6.861-1.724,1.72,3.442,3.44,1.721-1.72a2.433,2.433,0,0,0,0-3.44,2.488,2.488,0,0,0-3.439,0Zm-83.4,45.445v-2.676c-4.238-.8-7.3-3.6-7.3-7.053h4.868c0,.993,1.9,2.433,4.867,2.433s4.867-1.44,4.867-2.433-1.9-2.434-4.867-2.434c-5.459,0-9.735-3.2-9.735-7.3,0-3.461,3.064-6.262,7.3-7.053v-2.677h4.867v2.677c4.238.8,7.3,3.6,7.3,7.053h-4.868c0-.994-1.9-2.433-4.867-2.433s-4.867,1.439-4.867,2.433,1.9,2.433,4.867,2.433c5.459,0,9.735,3.2,9.735,7.3,0,3.461-3.064,6.261-7.3,7.053v2.676ZM496.29,2954.5v-4.871h29.2v4.871Zm-9.74,0v-4.871h4.87v4.871Zm9.74-9.73V2939.9h29.2v4.871Zm-9.74,0V2939.9h4.87v4.871Zm-29.2-.007a4.867,4.867,0,0,1-4.868-4.865v-4.865a4.867,4.867,0,0,1,4.868-4.865h4.867a4.866,4.866,0,0,1,4.867,4.865v4.865a4.866,4.866,0,0,1-4.867,4.865Zm0-4.865h4.867v-4.865h-4.867Zm-17.037,4.865a4.867,4.867,0,0,1-4.867-4.865v-4.865a4.866,4.866,0,0,1,4.867-4.865h4.868a4.866,4.866,0,0,1,4.867,4.865v4.865a4.867,4.867,0,0,1-4.867,4.865Zm0-4.865h4.868v-4.865h-4.868Zm-17.035,4.865a4.867,4.867,0,0,1-4.868-4.865v-4.865a4.867,4.867,0,0,1,4.868-4.865h4.867a4.866,4.866,0,0,1,4.867,4.865v4.865a4.867,4.867,0,0,1-4.867,4.865Zm0-4.865h4.867v-4.865h-4.867Zm73.012-4.868v-4.86h29.2v4.86Zm-9.74,0v-4.86h4.87v4.86Zm-29.2-7.295a4.867,4.867,0,0,1-4.868-4.865v-4.865a4.867,4.867,0,0,1,4.868-4.865h4.867a4.866,4.866,0,0,1,4.867,4.865v4.865a4.866,4.866,0,0,1-4.867,4.865Zm0-4.865h4.867v-4.865h-4.867Zm-17.037,4.865a4.866,4.866,0,0,1-4.867-4.865v-4.865a4.866,4.866,0,0,1,4.867-4.865h4.868a4.866,4.866,0,0,1,4.867,4.865v4.865a4.866,4.866,0,0,1-4.867,4.865Zm0-4.865h4.868v-4.865h-4.868Zm-17.035,4.865a4.867,4.867,0,0,1-4.868-4.865v-4.865a4.867,4.867,0,0,1,4.868-4.865h4.867a4.866,4.866,0,0,1,4.867,4.865v4.865a4.866,4.866,0,0,1-4.867,4.865Zm0-4.865h4.867v-4.865h-4.867Zm73.012,2.439v-4.87h29.2v4.87Zm-9.74,0v-4.87h4.87v4.87Zm-29.2-14.6a4.867,4.867,0,0,1-4.868-4.865v-4.865a4.867,4.867,0,0,1,4.868-4.865h4.867a4.866,4.866,0,0,1,4.867,4.865v4.865a4.866,4.866,0,0,1-4.867,4.865Zm0-4.865h4.867v-4.865h-4.867Zm-17.037,4.865a4.866,4.866,0,0,1-4.867-4.865v-4.865a4.867,4.867,0,0,1,4.867-4.865h4.868a4.867,4.867,0,0,1,4.867,4.865v4.865a4.866,4.866,0,0,1-4.867,4.865Zm0-4.865h4.868v-4.865h-4.868Zm-17.035,4.865a4.867,4.867,0,0,1-4.868-4.865v-4.865a4.867,4.867,0,0,1,4.868-4.865h4.867a4.867,4.867,0,0,1,4.867,4.865v4.865a4.866,4.866,0,0,1-4.867,4.865Zm0-4.865h4.867v-4.865h-4.867Zm-7.3-12.163v-17.028h53.542v17.028Zm4.867-4.865H464.65v-7.3H420.843Z" fill="url(#linear-gradient)"/>
    <g id="Accounting_Finance" data-name="Accounting / Finance">
      <text id="Accounting_Finance-2" data-name="Accounting / Finance" transform="translate(341.276 3085.837)" fill="#69def4" font-size="26" font-family="SegoeUI, Segoe UI"><tspan x="0" y="0">Accounting / Finance</tspan></text>
      <path id="Color_Overlay" data-name="Color Overlay" d="M357.755,3085.837h-2.361l-1.93-5.1h-7.719l-1.815,5.1h-2.374l6.982-18.205h2.209Zm-4.989-7.021-2.856-7.757a7.427,7.427,0,0,1-.279-1.219h-.051a6.8,6.8,0,0,1-.292,1.219l-2.831,7.757Zm16.25,6.424a6.766,6.766,0,0,1-3.555.9,5.885,5.885,0,0,1-4.488-1.809,6.556,6.556,0,0,1-1.708-4.691,7.207,7.207,0,0,1,1.841-5.161,6.44,6.44,0,0,1,4.913-1.949,6.84,6.84,0,0,1,3.021.635v2.133a5.294,5.294,0,0,0-3.1-1.016,4.186,4.186,0,0,0-3.269,1.428,5.42,5.42,0,0,0-1.276,3.751,5.16,5.16,0,0,0,1.2,3.605,4.135,4.135,0,0,0,3.218,1.32,5.219,5.219,0,0,0,3.2-1.13Zm12.01,0a6.766,6.766,0,0,1-3.555.9,5.885,5.885,0,0,1-4.488-1.809,6.556,6.556,0,0,1-1.708-4.691,7.207,7.207,0,0,1,1.841-5.161,6.44,6.44,0,0,1,4.913-1.949,6.84,6.84,0,0,1,3.021.635v2.133a5.294,5.294,0,0,0-3.1-1.016,4.186,4.186,0,0,0-3.269,1.428,5.42,5.42,0,0,0-1.276,3.751,5.16,5.16,0,0,0,1.2,3.605,4.135,4.135,0,0,0,3.218,1.32,5.219,5.219,0,0,0,3.2-1.13Zm8.582.9a6.03,6.03,0,0,1-4.6-1.822,6.748,6.748,0,0,1-1.72-4.831,7.03,7.03,0,0,1,1.79-5.116,6.435,6.435,0,0,1,4.837-1.841,5.831,5.831,0,0,1,4.539,1.79,7.1,7.1,0,0,1,1.631,4.964,6.984,6.984,0,0,1-1.758,4.983A6.161,6.161,0,0,1,389.607,3086.142Zm.152-11.857a3.96,3.96,0,0,0-3.174,1.365,5.605,5.605,0,0,0-1.168,3.764,5.3,5.3,0,0,0,1.181,3.644,4.013,4.013,0,0,0,3.161,1.333,3.806,3.806,0,0,0,3.1-1.308,5.674,5.674,0,0,0,1.085-3.72,5.772,5.772,0,0,0-1.085-3.758A3.79,3.79,0,0,0,389.759,3074.284Zm20.16,11.553h-2.082v-2.057h-.051a4.276,4.276,0,0,1-4.012,2.361q-4.646,0-4.646-5.535v-7.77H401.2v7.439q0,4.113,3.148,4.113a3.185,3.185,0,0,0,2.507-1.124,4.3,4.3,0,0,0,.984-2.939v-7.49h2.082Zm14.993,0h-2.082v-7.414q0-4.139-3.021-4.139a3.277,3.277,0,0,0-2.583,1.174,4.353,4.353,0,0,0-1.022,2.964v7.414h-2.082v-13H416.2V3075h.051a4.692,4.692,0,0,1,4.266-2.463,3.977,3.977,0,0,1,3.263,1.377,6.135,6.135,0,0,1,1.13,3.98Zm9.953-.127a4.015,4.015,0,0,1-1.942.406q-3.415,0-3.415-3.809v-7.693h-2.234v-1.777h2.234v-3.174l2.082-.673v3.847h3.275v1.777H431.59v7.325a3.036,3.036,0,0,0,.444,1.866,1.773,1.773,0,0,0,1.473.559,2.188,2.188,0,0,0,1.358-.432Zm3.847-16.174a1.319,1.319,0,0,1-.952-.381,1.285,1.285,0,0,1-.394-.965,1.333,1.333,0,0,1,1.346-1.358,1.345,1.345,0,0,1,.971.387,1.356,1.356,0,0,1,0,1.923A1.333,1.333,0,0,1,438.713,3069.536Zm1.016,16.3h-2.082v-13h2.082Zm15.006,0h-2.082v-7.414q0-4.139-3.021-4.139a3.277,3.277,0,0,0-2.583,1.174,4.353,4.353,0,0,0-1.022,2.964v7.414h-2.082v-13h2.082V3075h.051a4.692,4.692,0,0,1,4.266-2.463,3.977,3.977,0,0,1,3.263,1.377,6.135,6.135,0,0,1,1.13,3.98Zm15.019-1.041q0,7.16-6.855,7.16a9.2,9.2,0,0,1-4.215-.914v-2.082a8.656,8.656,0,0,0,4.189,1.219q4.8,0,4.8-5.1v-1.422h-.051a5.26,5.26,0,0,1-8.373.755,6.927,6.927,0,0,1-1.479-4.653,8.094,8.094,0,0,1,1.593-5.269,5.322,5.322,0,0,1,4.361-1.955,4.237,4.237,0,0,1,3.9,2.107h.051v-1.8h2.082Zm-2.082-4.837v-1.917a3.719,3.719,0,0,0-1.047-2.653,3.448,3.448,0,0,0-2.609-1.1,3.615,3.615,0,0,0-3.021,1.4,6.261,6.261,0,0,0-1.092,3.929,5.375,5.375,0,0,0,1.047,3.472,3.384,3.384,0,0,0,2.774,1.3,3.624,3.624,0,0,0,2.85-1.244A4.637,4.637,0,0,0,467.671,3079.959Zm21.633-12.327-8.734,21.227h-1.942l8.709-21.227Zm18.561,1.93h-7.109v6.3h6.576v1.917h-6.576v8.062h-2.133v-18.205h9.242Zm4.24-.025a1.319,1.319,0,0,1-.952-.381,1.285,1.285,0,0,1-.394-.965,1.333,1.333,0,0,1,1.346-1.358,1.345,1.345,0,0,1,.971.387,1.356,1.356,0,0,1,0,1.923A1.333,1.333,0,0,1,512.1,3069.536Zm1.016,16.3h-2.082v-13h2.082Zm15.006,0h-2.082v-7.414q0-4.139-3.021-4.139a3.277,3.277,0,0,0-2.583,1.174,4.353,4.353,0,0,0-1.022,2.964v7.414h-2.082v-13h2.082V3075h.051a4.692,4.692,0,0,1,4.266-2.463A3.977,3.977,0,0,1,527,3073.91a6.135,6.135,0,0,1,1.13,3.98Zm13.229,0h-2.082v-2.031h-.051a4.359,4.359,0,0,1-4,2.336,4.274,4.274,0,0,1-3.041-1.028,3.563,3.563,0,0,1-1.1-2.729q0-3.643,4.291-4.24l3.9-.546q0-3.313-2.679-3.313a6.4,6.4,0,0,0-4.24,1.6v-2.133a8.056,8.056,0,0,1,4.418-1.219q4.583,0,4.583,4.85Zm-2.082-6.576-3.136.432a5.092,5.092,0,0,0-2.184.717,2.069,2.069,0,0,0-.736,1.822,1.984,1.984,0,0,0,.679,1.555,2.624,2.624,0,0,0,1.809.6,3.342,3.342,0,0,0,2.558-1.085,3.878,3.878,0,0,0,1.009-2.749Zm16.8,6.576h-2.082v-7.414q0-4.139-3.021-4.139a3.277,3.277,0,0,0-2.583,1.174,4.353,4.353,0,0,0-1.022,2.964v7.414h-2.082v-13h2.082V3075h.051a4.692,4.692,0,0,1,4.266-2.463,3.977,3.977,0,0,1,3.263,1.377,6.135,6.135,0,0,1,1.13,3.98Zm12.784-.6a6.766,6.766,0,0,1-3.555.9,5.885,5.885,0,0,1-4.488-1.809,6.556,6.556,0,0,1-1.708-4.691,7.207,7.207,0,0,1,1.841-5.161,6.44,6.44,0,0,1,4.913-1.949,6.84,6.84,0,0,1,3.021.635v2.133a5.294,5.294,0,0,0-3.1-1.016,4.186,4.186,0,0,0-3.269,1.428,5.42,5.42,0,0,0-1.276,3.751,5.16,5.16,0,0,0,1.2,3.605,4.135,4.135,0,0,0,3.218,1.32,5.219,5.219,0,0,0,3.2-1.13Zm13.6-5.383H573.27a4.862,4.862,0,0,0,1.168,3.352,4.026,4.026,0,0,0,3.072,1.181,6.388,6.388,0,0,0,4.037-1.447v1.955a7.546,7.546,0,0,1-4.532,1.244,5.5,5.5,0,0,1-4.329-1.771,7.248,7.248,0,0,1-1.574-4.983,7.109,7.109,0,0,1,1.72-4.945,5.516,5.516,0,0,1,4.272-1.911,4.887,4.887,0,0,1,3.948,1.65,6.881,6.881,0,0,1,1.4,4.583Zm-2.133-1.765a4.236,4.236,0,0,0-.87-2.806,2.963,2.963,0,0,0-2.38-1,3.364,3.364,0,0,0-2.5,1.054,4.782,4.782,0,0,0-1.27,2.755Z" fill="#254c86"/>
    </g>
    <g id="_100_open_position" data-name="100 open position">
      <text id="_100_open_position-2" data-name="100 open position" transform="translate(392.368 3120.81)" fill="#69def4" font-size="22" font-family="SegoeUI, Segoe UI"><tspan x="0" y="0">100 open position</tspan></text>
      <path id="Color_Overlay-2" data-name="Color Overlay" d="M400.145,3120.81h-1.762V3107.5a4.09,4.09,0,0,1-.6.467,9.7,9.7,0,0,1-.881.521q-.489.258-1.031.483a7.5,7.5,0,0,1-1.058.354v-1.783a10.241,10.241,0,0,0,1.23-.435q.65-.274,1.278-.612t1.187-.709a9.422,9.422,0,0,0,.967-.725h.666Zm15.039-7.767a15.131,15.131,0,0,1-.349,3.427,7.985,7.985,0,0,1-1.01,2.519,4.545,4.545,0,0,1-1.622,1.558,4.441,4.441,0,0,1-2.186.532,4.148,4.148,0,0,1-2.068-.51,4.334,4.334,0,0,1-1.531-1.488,7.539,7.539,0,0,1-.945-2.4,14.846,14.846,0,0,1-.322-3.26,16.8,16.8,0,0,1,.338-3.566,8.157,8.157,0,0,1,.994-2.594,4.423,4.423,0,0,1,1.627-1.579,4.569,4.569,0,0,1,2.229-.532Q415.184,3105.148,415.184,3113.043Zm-1.8.172q0-6.574-3.126-6.574-3.3,0-3.3,6.692,0,6.241,3.233,6.241Q413.38,3119.575,413.38,3113.215Zm13.664-.172a15.131,15.131,0,0,1-.349,3.427,7.985,7.985,0,0,1-1.01,2.519,4.545,4.545,0,0,1-1.622,1.558,4.441,4.441,0,0,1-2.186.532,4.148,4.148,0,0,1-2.068-.51,4.334,4.334,0,0,1-1.531-1.488,7.539,7.539,0,0,1-.945-2.4,14.846,14.846,0,0,1-.322-3.26,16.8,16.8,0,0,1,.338-3.566,8.157,8.157,0,0,1,.994-2.594,4.423,4.423,0,0,1,1.627-1.579,4.569,4.569,0,0,1,2.229-.532Q427.044,3105.148,427.044,3113.043Zm-1.8.172q0-6.574-3.126-6.574-3.3,0-3.3,6.692,0,6.241,3.233,6.241Q425.239,3119.575,425.239,3113.215Zm15.114,7.853a5.1,5.1,0,0,1-3.894-1.542,5.71,5.71,0,0,1-1.456-4.087,5.948,5.948,0,0,1,1.515-4.329,5.446,5.446,0,0,1,4.093-1.558,4.934,4.934,0,0,1,3.84,1.515,6.006,6.006,0,0,1,1.38,4.2,5.91,5.91,0,0,1-1.488,4.216A5.213,5.213,0,0,1,440.353,3121.068Zm.129-10.033a3.351,3.351,0,0,0-2.686,1.155,4.743,4.743,0,0,0-.988,3.185,4.485,4.485,0,0,0,1,3.083,3.4,3.4,0,0,0,2.675,1.128,3.221,3.221,0,0,0,2.626-1.106,4.8,4.8,0,0,0,.918-3.147,4.884,4.884,0,0,0-.918-3.18A3.206,3.206,0,0,0,440.482,3111.035Zm9.969,8.186h-.043v6.649h-1.762v-16.06h1.762v1.934h.043a4.166,4.166,0,0,1,3.8-2.191,4.028,4.028,0,0,1,3.319,1.477,6.118,6.118,0,0,1,1.192,3.958,6.818,6.818,0,0,1-1.343,4.42,4.471,4.471,0,0,1-3.674,1.66A3.68,3.68,0,0,1,450.451,3119.22Zm-.043-4.437v1.536a3.271,3.271,0,0,0,.886,2.315,3.162,3.162,0,0,0,4.759-.274,5.618,5.618,0,0,0,.908-3.405,4.435,4.435,0,0,0-.849-2.879,2.809,2.809,0,0,0-2.3-1.042,3.121,3.121,0,0,0-2.471,1.069A3.925,3.925,0,0,0,450.408,3114.784Zm20.013.967h-7.767a4.114,4.114,0,0,0,.988,2.836,3.407,3.407,0,0,0,2.6,1,5.4,5.4,0,0,0,3.416-1.225v1.654a6.384,6.384,0,0,1-3.835,1.053,4.649,4.649,0,0,1-3.663-1.5,6.134,6.134,0,0,1-1.332-4.216,6.015,6.015,0,0,1,1.456-4.184,4.667,4.667,0,0,1,3.615-1.617,4.136,4.136,0,0,1,3.341,1.4,5.822,5.822,0,0,1,1.182,3.878Zm-1.8-1.493a3.584,3.584,0,0,0-.736-2.374,2.507,2.507,0,0,0-2.014-.849,2.846,2.846,0,0,0-2.116.892,4.046,4.046,0,0,0-1.074,2.331Zm13.6,6.553h-1.762v-6.273q0-3.5-2.557-3.5a2.773,2.773,0,0,0-2.186.994,3.683,3.683,0,0,0-.865,2.508v6.273h-1.762v-11h1.762v1.826h.043a3.97,3.97,0,0,1,3.609-2.084,3.365,3.365,0,0,1,2.761,1.166,5.192,5.192,0,0,1,.956,3.368Zm11.15-1.59h-.043v6.649h-1.762v-16.06h1.762v1.934h.043a4.166,4.166,0,0,1,3.8-2.191,4.028,4.028,0,0,1,3.319,1.477,6.118,6.118,0,0,1,1.192,3.958,6.818,6.818,0,0,1-1.343,4.42,4.471,4.471,0,0,1-3.674,1.66A3.68,3.68,0,0,1,493.366,3119.22Zm-.043-4.437v1.536a3.271,3.271,0,0,0,.886,2.315,3.162,3.162,0,0,0,4.759-.274,5.618,5.618,0,0,0,.908-3.405,4.435,4.435,0,0,0-.849-2.879,2.809,2.809,0,0,0-2.3-1.042,3.121,3.121,0,0,0-2.471,1.069A3.925,3.925,0,0,0,493.323,3114.784Zm15.77,6.284a5.1,5.1,0,0,1-3.894-1.542,5.71,5.71,0,0,1-1.456-4.087,5.948,5.948,0,0,1,1.515-4.329,5.446,5.446,0,0,1,4.093-1.558,4.934,4.934,0,0,1,3.84,1.515,6.006,6.006,0,0,1,1.38,4.2,5.91,5.91,0,0,1-1.488,4.216A5.213,5.213,0,0,1,509.093,3121.068Zm.129-10.033a3.351,3.351,0,0,0-2.686,1.155,4.743,4.743,0,0,0-.988,3.185,4.485,4.485,0,0,0,1,3.083,3.4,3.4,0,0,0,2.675,1.128,3.221,3.221,0,0,0,2.626-1.106,4.8,4.8,0,0,0,.918-3.147,4.884,4.884,0,0,0-.918-3.18A3.206,3.206,0,0,0,509.222,3111.035Zm7.5,9.378v-1.891a5.213,5.213,0,0,0,3.169,1.063q2.32,0,2.32-1.547a1.342,1.342,0,0,0-.2-.747,1.98,1.98,0,0,0-.537-.542,4.136,4.136,0,0,0-.795-.424q-.457-.188-.983-.392a12.635,12.635,0,0,1-1.284-.585,3.88,3.88,0,0,1-.924-.666,2.477,2.477,0,0,1-.559-.843,2.982,2.982,0,0,1-.188-1.106,2.628,2.628,0,0,1,.354-1.37,3.143,3.143,0,0,1,.945-1,4.406,4.406,0,0,1,1.348-.607,5.983,5.983,0,0,1,1.563-.2,6.312,6.312,0,0,1,2.557.494v1.783a4.982,4.982,0,0,0-2.793-.795,3.264,3.264,0,0,0-.892.113,2.184,2.184,0,0,0-.682.317,1.463,1.463,0,0,0-.44.489,1.287,1.287,0,0,0-.156.628,1.507,1.507,0,0,0,.156.72,1.584,1.584,0,0,0,.457.516,3.492,3.492,0,0,0,.73.408q.43.183.978.4a13.609,13.609,0,0,1,1.311.575,4.5,4.5,0,0,1,.988.666,2.6,2.6,0,0,1,.628.854,2.754,2.754,0,0,1,.22,1.149,2.711,2.711,0,0,1-.36,1.418,3.083,3.083,0,0,1-.961,1,4.406,4.406,0,0,1-1.386.591,6.843,6.843,0,0,1-1.644.193A6.242,6.242,0,0,1,516.72,3120.413Zm10.9-13.4a1.116,1.116,0,0,1-.806-.322,1.088,1.088,0,0,1-.333-.816,1.128,1.128,0,0,1,1.139-1.149,1.137,1.137,0,0,1,.822.328,1.148,1.148,0,0,1,0,1.627A1.128,1.128,0,0,1,527.623,3107.017Zm.859,13.793h-1.762v-11h1.762Zm8.669-.107a3.4,3.4,0,0,1-1.644.344q-2.89,0-2.89-3.223v-6.51h-1.891v-1.5h1.891v-2.686l1.762-.569v3.255h2.771v1.5H534.38v6.2a2.57,2.57,0,0,0,.376,1.579,1.5,1.5,0,0,0,1.246.473,1.853,1.853,0,0,0,1.149-.365Zm3.255-13.686a1.116,1.116,0,0,1-.806-.322,1.088,1.088,0,0,1-.333-.816,1.128,1.128,0,0,1,1.139-1.149,1.137,1.137,0,0,1,.822.328,1.148,1.148,0,0,1,0,1.627A1.128,1.128,0,0,1,540.406,3107.017Zm.859,13.793H539.5v-11h1.762Zm8.164.258a5.1,5.1,0,0,1-3.894-1.542,5.71,5.71,0,0,1-1.456-4.087,5.948,5.948,0,0,1,1.515-4.329,5.446,5.446,0,0,1,4.093-1.558,4.934,4.934,0,0,1,3.84,1.515,6.006,6.006,0,0,1,1.38,4.2,5.91,5.91,0,0,1-1.488,4.216A5.213,5.213,0,0,1,549.43,3121.068Zm.129-10.033a3.351,3.351,0,0,0-2.686,1.155,4.742,4.742,0,0,0-.988,3.185,4.485,4.485,0,0,0,1,3.083,3.4,3.4,0,0,0,2.675,1.128,3.221,3.221,0,0,0,2.626-1.106,4.8,4.8,0,0,0,.918-3.147,4.884,4.884,0,0,0-.918-3.18A3.206,3.206,0,0,0,549.558,3111.035Zm17.295,9.775h-1.762v-6.273q0-3.5-2.557-3.5a2.773,2.773,0,0,0-2.186.994,3.683,3.683,0,0,0-.865,2.508v6.273h-1.762v-11h1.762v1.826h.043a3.97,3.97,0,0,1,3.609-2.084,3.365,3.365,0,0,1,2.761,1.166,5.192,5.192,0,0,1,.956,3.368Z" fill="#1f3a63"/>
    </g>
  </g>
</svg>
