<svg xmlns="http://www.w3.org/2000/svg" xmlns:xlink="http://www.w3.org/1999/xlink" width="665.95" height="705.65" viewBox="0 0 665.95 705.65">
  <defs>
    <linearGradient id="linear-gradient" x1="0.5" x2="0.5" y2="1" gradientUnits="objectBoundingBox">
      <stop offset="0" stop-color="#4ec7f5"/>
      <stop offset="1" stop-color="#5c75fe"/>
    </linearGradient>
    <filter id="Rounded_Rectangle_3_copy" x="0" y="0" width="665.95" height="705.65" filterUnits="userSpaceOnUse">
      <feOffset dy="20" input="SourceAlpha"/>
      <feGaussianBlur stdDeviation="53" result="blur"/>
      <feFlood flood-color="#218ada" flood-opacity="0.122"/>
      <feComposite operator="in" in2="blur"/>
      <feComposite in="SourceGraphic"/>
    </filter>
  </defs>
  <g id="Group_318" data-name="Group 318" transform="translate(1613 -3059.06)">
    <g id="Group_316" data-name="Group 316" transform="translate(-1762 -122)">
      <g transform="matrix(1, 0, 0, 1, 149, 3181.06)" filter="url(#Rounded_Rectangle_3_copy)">
        <rect id="Rounded_Rectangle_3_copy-2" data-name="Rounded Rectangle 3 copy" width="347.95" height="387.65" rx="30" transform="translate(159 139)" fill="url(#linear-gradient)"/>
      </g>
      <g id="Production_Operation" data-name="Production / Operation" transform="translate(18.4)">
        <text id="Production_Operation-2" data-name="Production / Operation" transform="translate(330.6 3613.602)" fill="#fff" font-size="26" font-family="SegoeUI, Segoe UI"><tspan x="0" y="0">Production / Operation</tspan></text>
        <path id="Color_Overlay" data-name="Color Overlay" d="M335.12,3606.721v6.881h-2.133V3595.4h5a6.6,6.6,0,0,1,4.526,1.422,5.077,5.077,0,0,1,1.606,4.012,5.518,5.518,0,0,1-1.784,4.24,6.815,6.815,0,0,1-4.818,1.65Zm0-9.395v7.465h2.234a5,5,0,0,0,3.371-1.009,3.573,3.573,0,0,0,1.162-2.85q0-3.605-4.266-3.605Zm18.929,5.383a2.546,2.546,0,0,0-1.574-.419,2.657,2.657,0,0,0-2.228,1.257,5.811,5.811,0,0,0-.9,3.428v6.627h-2.082v-13h2.082v2.679h.051a4.539,4.539,0,0,1,1.358-2.139,3.1,3.1,0,0,1,2.044-.768,3.4,3.4,0,0,1,1.244.178Zm7.693,11.2a6.03,6.03,0,0,1-4.6-1.822,6.748,6.748,0,0,1-1.72-4.831,7.03,7.03,0,0,1,1.79-5.116,6.435,6.435,0,0,1,4.837-1.841,5.831,5.831,0,0,1,4.539,1.79,7.1,7.1,0,0,1,1.631,4.964,6.984,6.984,0,0,1-1.758,4.983A6.161,6.161,0,0,1,361.742,3613.907Zm.152-11.857a3.96,3.96,0,0,0-3.174,1.365,5.605,5.605,0,0,0-1.168,3.764,5.3,5.3,0,0,0,1.181,3.644,4.013,4.013,0,0,0,3.161,1.333,3.806,3.806,0,0,0,3.1-1.308,5.674,5.674,0,0,0,1.085-3.72A5.772,5.772,0,0,0,365,3603.37,3.79,3.79,0,0,0,361.894,3602.049Zm20.744,11.553h-2.082v-2.209h-.051a4.806,4.806,0,0,1-4.469,2.514,4.855,4.855,0,0,1-3.917-1.746,7.161,7.161,0,0,1-1.466-4.754,7.791,7.791,0,0,1,1.625-5.167,5.36,5.36,0,0,1,4.329-1.942,4.167,4.167,0,0,1,3.9,2.107h.051v-8.049h2.082Zm-2.082-5.878v-1.917a3.719,3.719,0,0,0-1.041-2.666,3.492,3.492,0,0,0-2.641-1.092,3.6,3.6,0,0,0-3,1.4,6.119,6.119,0,0,0-1.092,3.859,5.5,5.5,0,0,0,1.047,3.548,3.423,3.423,0,0,0,2.812,1.3,3.556,3.556,0,0,0,2.825-1.257A4.682,4.682,0,0,0,380.556,3607.724Zm16.809,5.878h-2.082v-2.057h-.051a4.276,4.276,0,0,1-4.012,2.361q-4.646,0-4.646-5.535v-7.77h2.069v7.439q0,4.113,3.148,4.113a3.185,3.185,0,0,0,2.507-1.124,4.3,4.3,0,0,0,.984-2.939v-7.49h2.082Zm13.063-.6a6.766,6.766,0,0,1-3.555.9,5.885,5.885,0,0,1-4.488-1.809,6.556,6.556,0,0,1-1.708-4.691,7.207,7.207,0,0,1,1.841-5.161,6.44,6.44,0,0,1,4.913-1.949,6.84,6.84,0,0,1,3.021.635v2.133a5.294,5.294,0,0,0-3.1-1.016,4.186,4.186,0,0,0-3.269,1.428,5.42,5.42,0,0,0-1.276,3.751,5.16,5.16,0,0,0,1.2,3.605,4.135,4.135,0,0,0,3.218,1.32,5.219,5.219,0,0,0,3.2-1.13Zm9.179.47a4.015,4.015,0,0,1-1.942.406q-3.415,0-3.415-3.809v-7.693h-2.234V3600.6h2.234v-3.174l2.082-.673v3.847h3.275v1.777h-3.275v7.325a3.036,3.036,0,0,0,.444,1.866,1.773,1.773,0,0,0,1.473.559,2.188,2.188,0,0,0,1.358-.432Zm3.847-16.174a1.319,1.319,0,0,1-.952-.381,1.285,1.285,0,0,1-.394-.965,1.333,1.333,0,0,1,1.346-1.358,1.345,1.345,0,0,1,.971.387,1.356,1.356,0,0,1,0,1.923A1.333,1.333,0,0,1,423.454,3597.3Zm1.016,16.3h-2.082v-13h2.082Zm9.648.3a6.03,6.03,0,0,1-4.6-1.822,6.748,6.748,0,0,1-1.72-4.831,7.03,7.03,0,0,1,1.79-5.116,6.435,6.435,0,0,1,4.837-1.841,5.831,5.831,0,0,1,4.539,1.79,7.1,7.1,0,0,1,1.631,4.964,6.984,6.984,0,0,1-1.758,4.983A6.161,6.161,0,0,1,434.118,3613.907Zm.152-11.857a3.96,3.96,0,0,0-3.174,1.365,5.605,5.605,0,0,0-1.168,3.764,5.3,5.3,0,0,0,1.181,3.644,4.013,4.013,0,0,0,3.161,1.333,3.806,3.806,0,0,0,3.1-1.308,5.674,5.674,0,0,0,1.085-3.72,5.772,5.772,0,0,0-1.085-3.758A3.79,3.79,0,0,0,434.27,3602.049Zm20.439,11.553h-2.082v-7.414q0-4.139-3.021-4.139a3.277,3.277,0,0,0-2.583,1.174,4.353,4.353,0,0,0-1.022,2.964v7.414h-2.082v-13H446v2.158h.051a4.692,4.692,0,0,1,4.266-2.463,3.977,3.977,0,0,1,3.263,1.377,6.135,6.135,0,0,1,1.13,3.98Zm19.259-18.205-8.734,21.227h-1.942L472,3595.4Zm16.656,18.51a7.991,7.991,0,0,1-6.2-2.552,9.464,9.464,0,0,1-2.33-6.64,10.028,10.028,0,0,1,2.374-7.008,8.292,8.292,0,0,1,6.462-2.615,7.811,7.811,0,0,1,6.075,2.539,9.5,9.5,0,0,1,2.3,6.64,10.061,10.061,0,0,1-2.361,7.046A8.138,8.138,0,0,1,490.624,3613.907Zm.152-16.885a5.869,5.869,0,0,0-4.659,2.069,9.205,9.205,0,0,0-.044,10.848,5.693,5.693,0,0,0,4.551,2.05,5.977,5.977,0,0,0,4.723-1.955,7.99,7.99,0,0,0,1.727-5.472,8.349,8.349,0,0,0-1.676-5.573A5.746,5.746,0,0,0,490.777,3597.022Zm13.965,14.7h-.051v7.858h-2.082V3600.6h2.082v2.285h.051a4.923,4.923,0,0,1,4.494-2.59,4.76,4.76,0,0,1,3.923,1.746,7.23,7.23,0,0,1,1.409,4.678,8.058,8.058,0,0,1-1.587,5.224,5.284,5.284,0,0,1-4.342,1.961A4.349,4.349,0,0,1,504.742,3611.723Zm-.051-5.243v1.815a3.865,3.865,0,0,0,1.047,2.736,3.736,3.736,0,0,0,5.624-.324,6.64,6.64,0,0,0,1.073-4.024,5.242,5.242,0,0,0-1-3.4,3.319,3.319,0,0,0-2.717-1.231,3.689,3.689,0,0,0-2.92,1.263A4.638,4.638,0,0,0,504.691,3606.48Zm23.651,1.143h-9.179a4.863,4.863,0,0,0,1.168,3.352,4.026,4.026,0,0,0,3.072,1.181,6.387,6.387,0,0,0,4.037-1.447v1.955a7.546,7.546,0,0,1-4.532,1.244,5.5,5.5,0,0,1-4.329-1.771,7.249,7.249,0,0,1-1.574-4.983,7.109,7.109,0,0,1,1.72-4.945A5.516,5.516,0,0,1,523,3600.3a4.887,4.887,0,0,1,3.948,1.65,6.881,6.881,0,0,1,1.4,4.583Zm-2.133-1.765a4.236,4.236,0,0,0-.87-2.806,2.963,2.963,0,0,0-2.38-1,3.364,3.364,0,0,0-2.5,1.054,4.782,4.782,0,0,0-1.27,2.755Zm12.061-3.148a2.546,2.546,0,0,0-1.574-.419,2.657,2.657,0,0,0-2.228,1.257,5.811,5.811,0,0,0-.9,3.428v6.627h-2.082v-13h2.082v2.679h.051a4.539,4.539,0,0,1,1.358-2.139,3.1,3.1,0,0,1,2.044-.768,3.4,3.4,0,0,1,1.244.178Zm11.565,10.893h-2.082v-2.031H547.7a4.359,4.359,0,0,1-4,2.336,4.274,4.274,0,0,1-3.041-1.028,3.563,3.563,0,0,1-1.1-2.729q0-3.643,4.291-4.24l3.9-.546q0-3.313-2.679-3.313a6.4,6.4,0,0,0-4.24,1.6v-2.133a8.056,8.056,0,0,1,4.418-1.219q4.583,0,4.583,4.85Zm-2.082-6.576-3.136.432a5.092,5.092,0,0,0-2.184.717A2.069,2.069,0,0,0,541.7,3610a1.984,1.984,0,0,0,.679,1.555,2.624,2.624,0,0,0,1.809.6,3.342,3.342,0,0,0,2.558-1.085,3.878,3.878,0,0,0,1.009-2.749Zm12.035,6.449a4.015,4.015,0,0,1-1.942.406q-3.415,0-3.415-3.809v-7.693H552.2V3600.6h2.234v-3.174l2.082-.673v3.847h3.275v1.777h-3.275v7.325a3.037,3.037,0,0,0,.444,1.866,1.773,1.773,0,0,0,1.473.559,2.188,2.188,0,0,0,1.358-.432Zm3.847-16.174a1.319,1.319,0,0,1-.952-.381,1.285,1.285,0,0,1-.394-.965,1.333,1.333,0,0,1,1.346-1.358,1.345,1.345,0,0,1,.971.387,1.356,1.356,0,0,1,0,1.923A1.333,1.333,0,0,1,563.635,3597.3Zm1.016,16.3h-2.082v-13h2.082Zm9.648.3a6.03,6.03,0,0,1-4.6-1.822,6.748,6.748,0,0,1-1.72-4.831,7.03,7.03,0,0,1,1.79-5.116,6.435,6.435,0,0,1,4.837-1.841,5.83,5.83,0,0,1,4.539,1.79,7.1,7.1,0,0,1,1.631,4.964,6.984,6.984,0,0,1-1.758,4.983A6.161,6.161,0,0,1,574.3,3613.907Zm.152-11.857a3.96,3.96,0,0,0-3.174,1.365,5.605,5.605,0,0,0-1.168,3.764,5.3,5.3,0,0,0,1.181,3.644,4.013,4.013,0,0,0,3.161,1.333,3.806,3.806,0,0,0,3.1-1.308,5.674,5.674,0,0,0,1.085-3.72,5.772,5.772,0,0,0-1.085-3.758A3.79,3.79,0,0,0,574.452,3602.049Zm20.439,11.553h-2.082v-7.414q0-4.139-3.021-4.139a3.277,3.277,0,0,0-2.583,1.174,4.353,4.353,0,0,0-1.022,2.964v7.414H584.1v-13h2.082v2.158h.051a4.692,4.692,0,0,1,4.266-2.463,3.977,3.977,0,0,1,3.263,1.377,6.135,6.135,0,0,1,1.13,3.98Z" fill="#fff"/>
      </g>
      <g id="_100_open_position" data-name="100 open position" transform="translate(2.296)">
        <text id="_100_open_position-2" data-name="100 open position" transform="translate(391.704 3647.408)" fill="#fff" font-size="22" font-family="SegoeUI, Segoe UI"><tspan x="0" y="0">100 open position</tspan></text>
        <path id="Color_Overlay-2" data-name="Color Overlay" d="M399.481,3647.408H397.72V3634.1a4.09,4.09,0,0,1-.6.467,9.7,9.7,0,0,1-.881.521q-.489.258-1.031.483a7.5,7.5,0,0,1-1.058.354v-1.783a10.241,10.241,0,0,0,1.23-.435q.65-.274,1.278-.612t1.187-.709a9.422,9.422,0,0,0,.967-.725h.666Zm15.039-7.767a15.131,15.131,0,0,1-.349,3.427,7.985,7.985,0,0,1-1.01,2.519,4.545,4.545,0,0,1-1.622,1.558,4.441,4.441,0,0,1-2.186.532,4.148,4.148,0,0,1-2.068-.51,4.334,4.334,0,0,1-1.531-1.488,7.539,7.539,0,0,1-.945-2.4,14.846,14.846,0,0,1-.322-3.26,16.8,16.8,0,0,1,.338-3.566,8.157,8.157,0,0,1,.994-2.594,4.423,4.423,0,0,1,1.627-1.579,4.569,4.569,0,0,1,2.229-.532Q414.52,3631.746,414.52,3639.641Zm-1.8.172q0-6.574-3.126-6.574-3.3,0-3.3,6.692,0,6.241,3.233,6.241Q412.716,3646.173,412.716,3639.813Zm13.664-.172a15.131,15.131,0,0,1-.349,3.427,7.985,7.985,0,0,1-1.01,2.519,4.545,4.545,0,0,1-1.622,1.558,4.441,4.441,0,0,1-2.186.532,4.148,4.148,0,0,1-2.068-.51,4.334,4.334,0,0,1-1.531-1.488,7.539,7.539,0,0,1-.945-2.4,14.846,14.846,0,0,1-.322-3.26,16.8,16.8,0,0,1,.338-3.566,8.157,8.157,0,0,1,.994-2.594,4.423,4.423,0,0,1,1.627-1.579,4.569,4.569,0,0,1,2.229-.532Q426.38,3631.746,426.38,3639.641Zm-1.8.172q0-6.574-3.126-6.574-3.3,0-3.3,6.692,0,6.241,3.233,6.241Q424.575,3646.173,424.575,3639.813Zm15.114,7.853a5.1,5.1,0,0,1-3.894-1.542,5.71,5.71,0,0,1-1.456-4.087,5.948,5.948,0,0,1,1.515-4.329,5.446,5.446,0,0,1,4.093-1.558,4.934,4.934,0,0,1,3.84,1.515,6.006,6.006,0,0,1,1.38,4.2,5.91,5.91,0,0,1-1.488,4.216A5.213,5.213,0,0,1,439.689,3647.666Zm.129-10.033a3.351,3.351,0,0,0-2.686,1.155,4.743,4.743,0,0,0-.988,3.185,4.485,4.485,0,0,0,1,3.083,3.4,3.4,0,0,0,2.675,1.128,3.221,3.221,0,0,0,2.626-1.106,4.8,4.8,0,0,0,.918-3.147,4.884,4.884,0,0,0-.918-3.18A3.206,3.206,0,0,0,439.818,3637.633Zm9.969,8.186h-.043v6.649h-1.762v-16.06h1.762v1.934h.043a4.166,4.166,0,0,1,3.8-2.191,4.028,4.028,0,0,1,3.319,1.477,6.118,6.118,0,0,1,1.192,3.958,6.818,6.818,0,0,1-1.343,4.42,4.471,4.471,0,0,1-3.674,1.66A3.68,3.68,0,0,1,449.787,3645.818Zm-.043-4.437v1.536a3.271,3.271,0,0,0,.886,2.315,3.162,3.162,0,0,0,4.759-.274,5.618,5.618,0,0,0,.908-3.405,4.435,4.435,0,0,0-.849-2.879,2.809,2.809,0,0,0-2.3-1.042,3.121,3.121,0,0,0-2.471,1.069A3.925,3.925,0,0,0,449.744,3641.382Zm20.013.967H461.99a4.114,4.114,0,0,0,.988,2.836,3.407,3.407,0,0,0,2.6,1,5.4,5.4,0,0,0,3.416-1.225v1.654a6.384,6.384,0,0,1-3.835,1.053,4.649,4.649,0,0,1-3.663-1.5,6.134,6.134,0,0,1-1.332-4.216,6.015,6.015,0,0,1,1.456-4.184,4.667,4.667,0,0,1,3.615-1.617,4.136,4.136,0,0,1,3.341,1.4,5.822,5.822,0,0,1,1.182,3.878Zm-1.8-1.493a3.584,3.584,0,0,0-.736-2.374,2.507,2.507,0,0,0-2.014-.849,2.846,2.846,0,0,0-2.116.892,4.046,4.046,0,0,0-1.074,2.331Zm13.6,6.553H479.79v-6.273q0-3.5-2.557-3.5a2.773,2.773,0,0,0-2.186.994,3.683,3.683,0,0,0-.865,2.508v6.273h-1.762v-11h1.762v1.826h.043a3.97,3.97,0,0,1,3.609-2.084,3.365,3.365,0,0,1,2.761,1.166,5.192,5.192,0,0,1,.956,3.368Zm11.15-1.59h-.043v6.649H490.9v-16.06h1.762v1.934h.043a4.166,4.166,0,0,1,3.8-2.191,4.028,4.028,0,0,1,3.319,1.477,6.118,6.118,0,0,1,1.192,3.958,6.818,6.818,0,0,1-1.343,4.42,4.471,4.471,0,0,1-3.674,1.66A3.68,3.68,0,0,1,492.7,3645.818Zm-.043-4.437v1.536a3.271,3.271,0,0,0,.886,2.315,3.162,3.162,0,0,0,4.759-.274,5.618,5.618,0,0,0,.908-3.405,4.435,4.435,0,0,0-.849-2.879,2.809,2.809,0,0,0-2.3-1.042,3.121,3.121,0,0,0-2.471,1.069A3.925,3.925,0,0,0,492.659,3641.382Zm15.77,6.284a5.1,5.1,0,0,1-3.894-1.542,5.71,5.71,0,0,1-1.456-4.087,5.948,5.948,0,0,1,1.515-4.329,5.446,5.446,0,0,1,4.093-1.558,4.933,4.933,0,0,1,3.84,1.515,6.006,6.006,0,0,1,1.38,4.2,5.909,5.909,0,0,1-1.488,4.216A5.213,5.213,0,0,1,508.429,3647.666Zm.129-10.033a3.351,3.351,0,0,0-2.686,1.155,4.743,4.743,0,0,0-.988,3.185,4.485,4.485,0,0,0,1,3.083,3.4,3.4,0,0,0,2.675,1.128,3.221,3.221,0,0,0,2.626-1.106,4.8,4.8,0,0,0,.918-3.147,4.884,4.884,0,0,0-.918-3.18A3.206,3.206,0,0,0,508.558,3637.633Zm7.5,9.378v-1.891a5.214,5.214,0,0,0,3.169,1.063q2.32,0,2.32-1.547a1.342,1.342,0,0,0-.2-.747,1.979,1.979,0,0,0-.537-.542,4.134,4.134,0,0,0-.795-.424q-.456-.188-.983-.392a12.647,12.647,0,0,1-1.284-.585,3.881,3.881,0,0,1-.924-.666,2.478,2.478,0,0,1-.559-.843,2.984,2.984,0,0,1-.188-1.106,2.628,2.628,0,0,1,.354-1.37,3.144,3.144,0,0,1,.945-1,4.407,4.407,0,0,1,1.348-.607,5.983,5.983,0,0,1,1.563-.2,6.312,6.312,0,0,1,2.557.494v1.783a4.982,4.982,0,0,0-2.793-.795,3.265,3.265,0,0,0-.892.113,2.185,2.185,0,0,0-.682.317,1.465,1.465,0,0,0-.44.489,1.287,1.287,0,0,0-.156.628,1.508,1.508,0,0,0,.156.72,1.585,1.585,0,0,0,.457.516,3.5,3.5,0,0,0,.73.408q.43.183.978.4a13.6,13.6,0,0,1,1.311.575,4.5,4.5,0,0,1,.988.666,2.6,2.6,0,0,1,.628.854,2.753,2.753,0,0,1,.22,1.149,2.71,2.71,0,0,1-.36,1.418,3.082,3.082,0,0,1-.961,1,4.4,4.4,0,0,1-1.386.591,6.842,6.842,0,0,1-1.644.193A6.242,6.242,0,0,1,516.056,3647.01Zm10.9-13.4a1.116,1.116,0,0,1-.806-.322,1.088,1.088,0,0,1-.333-.816,1.128,1.128,0,0,1,1.139-1.149,1.137,1.137,0,0,1,.822.328,1.148,1.148,0,0,1,0,1.627A1.128,1.128,0,0,1,526.959,3633.615Zm.859,13.793h-1.762v-11h1.762Zm8.669-.107a3.4,3.4,0,0,1-1.644.344q-2.89,0-2.89-3.223v-6.51h-1.891v-1.5h1.891v-2.686l1.762-.569v3.255h2.771v1.5h-2.771v6.2a2.57,2.57,0,0,0,.376,1.579,1.5,1.5,0,0,0,1.246.473,1.853,1.853,0,0,0,1.149-.365Zm3.255-13.686a1.116,1.116,0,0,1-.806-.322,1.088,1.088,0,0,1-.333-.816,1.128,1.128,0,0,1,1.139-1.149,1.137,1.137,0,0,1,.822.328,1.148,1.148,0,0,1,0,1.627A1.128,1.128,0,0,1,539.742,3633.615Zm.859,13.793H538.84v-11H540.6Zm8.164.258a5.1,5.1,0,0,1-3.894-1.542,5.71,5.71,0,0,1-1.456-4.087,5.948,5.948,0,0,1,1.515-4.329,5.446,5.446,0,0,1,4.093-1.558,4.933,4.933,0,0,1,3.84,1.515,6.006,6.006,0,0,1,1.38,4.2,5.909,5.909,0,0,1-1.488,4.216A5.213,5.213,0,0,1,548.766,3647.666Zm.129-10.033a3.351,3.351,0,0,0-2.686,1.155,4.743,4.743,0,0,0-.988,3.185,4.485,4.485,0,0,0,1,3.083,3.4,3.4,0,0,0,2.675,1.128,3.221,3.221,0,0,0,2.626-1.106,4.8,4.8,0,0,0,.918-3.147,4.884,4.884,0,0,0-.918-3.18A3.206,3.206,0,0,0,548.894,3637.633Zm17.295,9.775h-1.762v-6.273q0-3.5-2.557-3.5a2.774,2.774,0,0,0-2.186.994,3.683,3.683,0,0,0-.865,2.508v6.273h-1.762v-11h1.762v1.826h.043a3.97,3.97,0,0,1,3.609-2.084,3.365,3.365,0,0,1,2.761,1.166,5.192,5.192,0,0,1,.956,3.368Z" fill="#fff"/>
      </g>
      <path id="Shape_3" data-name="Shape 3" d="M909.391,3017.643a19.448,19.448,0,0,1-1-38.87l-17.978-43.319a4.878,4.878,0,0,1,2.638-6.357l20.26-8.378a4.925,4.925,0,0,1,6.356,2.6l13.256,31.976a27.49,27.49,0,0,1,5.63-.84l-12.05-51.368v-.109a2.505,2.505,0,0,1-.061-.542l.916-25.287a5.624,5.624,0,0,1,10.564-2.471l12.065,22.256a2.284,2.284,0,0,1,.171.469c.014.046.063.083.063.133l11.812,50.451a33.144,33.144,0,0,1,6.064-4.22,121.57,121.57,0,0,1,.424-17.251c.319-3.468.781-7.026,1.371-10.784a18.864,18.864,0,0,1-3.468-5.6,14.223,14.223,0,0,1,3.339-15.512c9.264-10.209,10.35-15.175,9.1-19.879a2.434,2.434,0,0,1,3.859-2.537c.548.431,13.376,10.669,14.9,24.846a26.53,26.53,0,0,1-6.044,19.49,131.336,131.336,0,0,1-1.262,23.919,32.729,32.729,0,0,1,8.7,3.138l5.575-13.459v-.026a45.6,45.6,0,0,0,4.093-15.162,3.631,3.631,0,0,1,1.72-2.993l17.2-10.72h.024c.036-.022.08-.029.117-.049a2.427,2.427,0,0,1,1.341-.3c.057,0,.105.041.161.041a2.464,2.464,0,0,1,.57.138,2.568,2.568,0,0,1,.378.229,2.195,2.195,0,0,1,.265.161,2.466,2.466,0,0,1,.344.4c.049.064.134.147.154.18s.026.078.046.114a2.434,2.434,0,0,1,.244.59l4.573,19.728a3.621,3.621,0,0,1-.9,3.32,45.71,45.71,0,0,0-7.83,13.578.5.5,0,0,1,0,.054l-11.154,26.887a32.666,32.666,0,0,1,.058,12.406,19.463,19.463,0,1,1,.565,38.921Zm0-34.056a14.6,14.6,0,1,0,0,29.191h107.157a14.6,14.6,0,1,0,0-29.191,15.268,15.268,0,0,0-3.252.355,2.434,2.434,0,0,1-2.849-3.095,27.7,27.7,0,0,0,1.23-8.207,28.011,28.011,0,0,0-54.229-9.852,2.437,2.437,0,0,1-3.733,1.094,23.138,23.138,0,0,0-37.018,18.023,2.434,2.434,0,0,1-3.139,2.283,14.356,14.356,0,0,0-4.121-.6Zm-14.485-50,17.652,42.511a28.251,28.251,0,0,1,15.769-19.171l-1.97-4.751-9.011,3.727a2.434,2.434,0,1,1-1.866-4.5l9.019-3.734-1.863-4.495-4.508,1.866a2.48,2.48,0,0,1-.931.185,2.432,2.432,0,0,1-.935-4.68l4.508-1.866-1.863-4.5-9.011,3.729a2.471,2.471,0,0,1-.933.185,2.432,2.432,0,0,1-.938-4.675l9.012-3.727-1.861-4.491Zm108.272,12.669a33.008,33.008,0,0,1,10.457,12.915l7.771-18.732a12.853,12.853,0,0,1-1.476.09,15.462,15.462,0,0,1-5.959-1.256,14.823,14.823,0,0,1-6.071-4.415Zm-55.795-18.075,6.968,29.646a32.662,32.662,0,0,1,3.656-5.667l-10.867-46.411a11.539,11.539,0,0,1-4.254,3.235l1.724,7.349a2.435,2.435,0,1,1-4.741,1.11l-1.722-7.345c-.156.007-.32.03-.473.03a11.539,11.539,0,0,1-4.768-1.037l10.688,45.563a27.662,27.662,0,0,1,5.309,1.32l-6.261-26.682a2.435,2.435,0,0,1,4.741-1.11Zm25.493,13.479a32.642,32.642,0,0,1,10.794-1.856c.6,0,1.193.058,1.8.09.46-3.38.823-6.648,1.044-9.78-1.064.083-2.126.163-3.134.163a69.6,69.6,0,0,1-9.482-.8l-.706-.094h-.005A117.462,117.462,0,0,0,972.876,2941.656Zm40.624-25.9a47.967,47.967,0,0,1-3.261,13.229,10.021,10.021,0,0,0,13.614,5.624,48.055,48.055,0,0,1,7.062-11.644l-2.706-11.709-3.613,8.719a2.436,2.436,0,0,1-4.5-1.864l3.614-8.719Zm-39.869,8.772c.305.041.6.075.911.119a51.236,51.236,0,0,0,12.2.59c.076-2.387.1-4.737.027-7.008l-12.235-.747h0C974.172,2919.917,973.875,2922.238,973.631,2924.529Zm-3.295-19.274a10.139,10.139,0,0,0,3.219,7.282q7.058.438,14.274.876a21.778,21.778,0,0,0,4.929-15.841,32.52,32.52,0,0,0-8.789-17.437c-.779,5.152-4.13,10.633-10.6,17.758h0A10.137,10.137,0,0,0,970.336,2905.254Zm-39-3.47a8.09,8.09,0,0,0,8.131,3.253v0a8.07,8.07,0,0,0,5.837-6.539l-4.1-7.56a12.415,12.415,0,0,1-4.515,2.243,10.841,10.841,0,0,1-2.474.274,14.29,14.29,0,0,1-2.569-.243Zm1.461-25.164a.751.751,0,0,0-.584.7l-.4,10.961a6.869,6.869,0,0,0,7.041-1.647l-5.222-9.644a.759.759,0,0,0-.838-.375Zm19.892,123.99a2.436,2.436,0,0,1-2.24-1.479,14.609,14.609,0,0,1,25.242-14.328,11.981,11.981,0,0,1,5.224-1.216,12.181,12.181,0,0,1,11.057,7.09,2.436,2.436,0,0,1-4.432,2.021,7.307,7.307,0,0,0-6.625-4.245,7.183,7.183,0,0,0-4.52,1.595,2.419,2.419,0,0,1-.256.131,2.249,2.249,0,0,1-.226.168,1.838,1.838,0,0,1-.193.046,3.006,3.006,0,0,1-.931.156,2.129,2.129,0,0,1-.458-.07,2.334,2.334,0,0,1-.438-.137,2.292,2.292,0,0,1-.39-.243,2.249,2.249,0,0,1-.377-.316c-.049-.05-.112-.075-.156-.129a2.437,2.437,0,0,1-.13-.244,2.77,2.77,0,0,1-.17-.228,9.735,9.735,0,0,0-18.545,4.135,9.9,9.9,0,0,0,.8,3.907,2.433,2.433,0,0,1-2.234,3.386ZM924,2978.721c0-8.947,8.6-11.92,8.972-12.039v-.01a2.438,2.438,0,1,1,1.553,4.621,8.367,8.367,0,0,0-5.655,7.427,2.435,2.435,0,0,1-4.871,0Zm43.245-14.668a2.432,2.432,0,0,1-1.77-2.95,15.166,15.166,0,0,1,14.539-11.572,2.433,2.433,0,1,1,.013,4.865,10.385,10.385,0,0,0-9.83,7.889,2.433,2.433,0,0,1-2.359,1.841h-.01A2.4,2.4,0,0,1,967.248,2964.053Zm16.872-54.173.014-.005a2.432,2.432,0,0,1-1.948-3.892,13.5,13.5,0,0,0,2.417-10.135,2.435,2.435,0,1,1,4.705-1.253,18.234,18.234,0,0,1-3.239,14.323,2.437,2.437,0,0,1-1.94.961Z" transform="translate(-480.938 528)" fill="#fff"/>
    </g>
  </g>
</svg>
