<svg xmlns="http://www.w3.org/2000/svg" xmlns:xlink="http://www.w3.org/1999/xlink" width="550" height="615" viewBox="0 0 550 615">
  <defs>
    <linearGradient id="linear-gradient" x1="0.497" y1="0.872" x2="0.505" y2="-0.043" gradientUnits="objectBoundingBox">
      <stop offset="0" stop-color="#49e3f2"/>
      <stop offset="0.172" stop-color="#4bd5f3"/>
      <stop offset="0.495" stop-color="#51b2f7"/>
      <stop offset="0.929" stop-color="#5b78fd"/>
      <stop offset="1" stop-color="#5d6fff"/>
    </linearGradient>
    <linearGradient id="linear-gradient-2" x1="0.502" y1="0.799" x2="0.499" y2="0.284" xlink:href="#linear-gradient"/>
    <linearGradient id="linear-gradient-3" x1="0.5" y1="0.911" x2="0.5" y2="0.436" xlink:href="#linear-gradient"/>
    <linearGradient id="linear-gradient-4" x1="0.208" y1="0.117" x2="0.775" y2="0.801" gradientUnits="objectBoundingBox">
      <stop offset="0" stop-color="#78ffff"/>
      <stop offset="0.201" stop-color="#7af1ff"/>
      <stop offset="0.577" stop-color="#80ceff"/>
      <stop offset="1" stop-color="#889fff"/>
    </linearGradient>
    <linearGradient id="linear-gradient-5" x1="0.502" y1="1.032" x2="0.499" y2="0.264" gradientUnits="objectBoundingBox">
      <stop offset="0" stop-color="#6e7ee4"/>
      <stop offset="1" stop-color="#4c30c0"/>
    </linearGradient>
    <linearGradient id="linear-gradient-6" x1="0.498" y1="1.009" x2="0.501" y2="0.182" xlink:href="#linear-gradient-5"/>
    <linearGradient id="linear-gradient-7" x1="0.495" y1="1.03" x2="0.503" y2="0.177" xlink:href="#linear-gradient-5"/>
    <linearGradient id="linear-gradient-8" x1="0.538" y1="-0.166" x2="0.492" y2="0.636" gradientUnits="objectBoundingBox">
      <stop offset="0" stop-color="#66f8ff"/>
      <stop offset="0.091" stop-color="#66f2ff" stop-opacity="0.949"/>
      <stop offset="0.261" stop-color="#69e2ff" stop-opacity="0.808"/>
      <stop offset="0.492" stop-color="#6cc9ff" stop-opacity="0.58"/>
      <stop offset="0.771" stop-color="#71a7ff" stop-opacity="0.271"/>
      <stop offset="1" stop-color="#768aff" stop-opacity="0"/>
    </linearGradient>
    <linearGradient id="linear-gradient-9" x1="0.496" y1="-0.082" x2="0.502" y2="0.85" xlink:href="#linear-gradient-8"/>
    <linearGradient id="linear-gradient-10" x1="0.5" y1="0.217" x2="0.5" y2="0.936" gradientUnits="objectBoundingBox">
      <stop offset="0" stop-color="#33ceff"/>
      <stop offset="1" stop-color="#0076dd"/>
    </linearGradient>
    <linearGradient id="linear-gradient-11" x1="0.508" y1="0.144" x2="0.489" y2="0.983" gradientUnits="objectBoundingBox">
      <stop offset="0" stop-color="#57dfff"/>
      <stop offset="1" stop-color="#398aff"/>
    </linearGradient>
    <linearGradient id="linear-gradient-12" x1="0.5" y1="0.13" x2="0.5" y2="0.933" gradientUnits="objectBoundingBox">
      <stop offset="0" stop-color="#33eaff"/>
      <stop offset="1" stop-color="#0076dd"/>
    </linearGradient>
    <linearGradient id="linear-gradient-13" x1="-0.172" y1="0.045" x2="1.012" y2="0.847" xlink:href="#linear-gradient-11"/>
    <linearGradient id="linear-gradient-14" x1="0.658" y1="0.295" x2="0.371" y2="0.805" gradientUnits="objectBoundingBox">
      <stop offset="0" stop-color="#00afff"/>
      <stop offset="1" stop-color="#0057ff"/>
    </linearGradient>
    <linearGradient id="linear-gradient-15" x1="0.641" y1="0.321" x2="0.351" y2="0.867" xlink:href="#linear-gradient-14"/>
    <linearGradient id="linear-gradient-16" x1="1.074" y1="0.411" x2="0.364" y2="0.508" gradientUnits="objectBoundingBox">
      <stop offset="0" stop-color="#2f5b9b"/>
      <stop offset="1" stop-color="#18386b"/>
    </linearGradient>
    <linearGradient id="linear-gradient-17" x1="0.147" y1="0.66" x2="0.904" y2="0.223" xlink:href="#linear-gradient-16"/>
    <linearGradient id="linear-gradient-18" x1="0.544" y1="0.369" x2="0.497" y2="0.813" gradientUnits="objectBoundingBox">
      <stop offset="0" stop-color="#33d5ff"/>
      <stop offset="1" stop-color="#0076dd"/>
    </linearGradient>
    <linearGradient id="linear-gradient-19" x1="-3.02" y1="-0.32" x2="-3.02" y2="-0.01" gradientUnits="objectBoundingBox">
      <stop offset="0" stop-color="#33f1ff"/>
      <stop offset="1" stop-color="#0076dd"/>
    </linearGradient>
    <linearGradient id="linear-gradient-20" x1="0.35" y1="0.297" x2="0.633" y2="0.819" gradientUnits="objectBoundingBox">
      <stop offset="0" stop-color="#00cde9"/>
      <stop offset="1" stop-color="#0076dd"/>
    </linearGradient>
    <linearGradient id="linear-gradient-21" x1="0.596" y1="-6.552" x2="0.592" y2="-5.153" gradientUnits="objectBoundingBox">
      <stop offset="0" stop-color="#33e3ff"/>
      <stop offset="1" stop-color="#0076dd"/>
    </linearGradient>
    <linearGradient id="linear-gradient-22" x1="0.63" y1="-7.255" x2="0.625" y2="-8.203" gradientUnits="objectBoundingBox">
      <stop offset="0" stop-color="#0076dd"/>
      <stop offset="1" stop-color="#0076dd"/>
    </linearGradient>
    <linearGradient id="linear-gradient-23" x1="-0.999" y1="-0.637" x2="-1.007" y2="0.331" xlink:href="#linear-gradient-12"/>
    <linearGradient id="linear-gradient-24" x1="0.526" y1="0.046" x2="0.497" y2="0.807" gradientUnits="objectBoundingBox">
      <stop offset="0" stop-color="#f9c0ca"/>
      <stop offset="1" stop-color="#fc99ba"/>
    </linearGradient>
    <linearGradient id="linear-gradient-25" y1="0.5" x2="1" y2="0.5" gradientUnits="objectBoundingBox">
      <stop offset="0" stop-color="#fff3f2"/>
      <stop offset="1" stop-color="#d5eaff"/>
    </linearGradient>
    <linearGradient id="linear-gradient-26" x1="0.513" y1="0.351" x2="0.596" y2="0.764" xlink:href="#linear-gradient-5"/>
    <radialGradient id="radial-gradient" cx="0.555" cy="0.389" r="0.387" gradientTransform="translate(-0.495) scale(1.989 1)" xlink:href="#linear-gradient-25"/>
    <linearGradient id="linear-gradient-27" x1="0.353" y1="0.03" x2="0.551" y2="0.905" xlink:href="#linear-gradient-5"/>
    <linearGradient id="linear-gradient-28" x1="0.662" y1="0.145" x2="0.47" y2="0.603" xlink:href="#linear-gradient-14"/>
    <linearGradient id="linear-gradient-29" x1="0.404" y1="0.779" x2="0.581" y2="0.264" xlink:href="#linear-gradient-14"/>
    <linearGradient id="linear-gradient-30" x1="0.598" y1="-0.014" x2="0.446" y2="0.781" gradientUnits="objectBoundingBox">
      <stop offset="0" stop-color="#88e9ff"/>
      <stop offset="1" stop-color="#34bfea"/>
    </linearGradient>
    <linearGradient id="linear-gradient-31" x1="0.013" y1="0.434" x2="0.922" y2="0.611" xlink:href="#linear-gradient-24"/>
    <linearGradient id="linear-gradient-32" x1="0.654" y1="0.066" x2="0.426" y2="0.84" xlink:href="#linear-gradient-5"/>
    <linearGradient id="linear-gradient-34" x1="0.264" y1="0.409" x2="0.648" y2="0.565" xlink:href="#linear-gradient-5"/>
    <linearGradient id="linear-gradient-35" x1="0.676" y1="0.45" x2="0.254" y2="0.529" xlink:href="#linear-gradient-14"/>
    <linearGradient id="linear-gradient-36" x1="0.808" y1="0.679" x2="0.348" y2="0.422" xlink:href="#linear-gradient-24"/>
    <linearGradient id="linear-gradient-37" x1="0.802" y1="0.666" x2="0.314" y2="0.42" xlink:href="#linear-gradient-24"/>
    <linearGradient id="linear-gradient-38" x1="0.741" y1="0.593" x2="0.327" y2="0.43" xlink:href="#linear-gradient-24"/>
    <linearGradient id="linear-gradient-39" x1="0.781" y1="0.646" x2="0.277" y2="0.411" xlink:href="#linear-gradient-24"/>
    <linearGradient id="linear-gradient-40" x1="1.167" y1="0.426" x2="0.305" y2="0.527" xlink:href="#linear-gradient-24"/>
    <linearGradient id="linear-gradient-41" x1="1.053" y1="0.486" x2="0.191" y2="0.509" xlink:href="#linear-gradient-24"/>
    <linearGradient id="linear-gradient-42" x1="1.133" y1="0.384" x2="0.222" y2="0.548" xlink:href="#linear-gradient-14"/>
    <linearGradient id="linear-gradient-43" x1="0" y1="0.5" x2="1" y2="0.5" xlink:href="#linear-gradient-16"/>
    <linearGradient id="linear-gradient-44" x1="0.959" y1="0.598" x2="0.332" y2="0.328" xlink:href="#linear-gradient-16"/>
    <linearGradient id="linear-gradient-45" x1="0.242" y1="0.577" x2="0.728" y2="0.455" xlink:href="#linear-gradient-16"/>
  </defs>
  <g id="Vector_Smart_Object1" data-name="Vector Smart Object1" transform="translate(-221.497 -45.195)">
    <ellipse id="Ellipse_24" data-name="Ellipse 24" cx="85.159" cy="85.169" rx="85.159" ry="85.169" transform="translate(601.179 474.366)" opacity="0.3" fill="url(#linear-gradient)"/>
    <ellipse id="Ellipse_25" data-name="Ellipse 25" cx="201.529" cy="201.553" rx="201.529" ry="201.553" transform="translate(221.746 129.759)" opacity="0.3" fill="url(#linear-gradient-2)"/>
    <g id="Group_55" data-name="Group 55">
      <path id="Path_638" data-name="Path 638" d="M483.505,493.89c-27.927-26.538-84.89-66.112-89.769-85.753s-7.462-25.176-18.079-28.632-22.572-20.835-29.355-38.421-21.936-27.067-38.429-31.447-18.24-30.35-37.411-39.984S217.4,248.282,225.83,230.558s44.113-3.646,52.955,5.856,40.74,12,62.528,33.822S376.5,312.875,391.6,317.252s36.55,30.606,49.018,58.6S483.505,493.89,483.505,493.89Z" fill="#20bad3"/>
      <path id="Path_639" data-name="Path 639" d="M246.678,238.58s41.408,21.338,57.762,33.584,37.812,27.034,64.958,55.8,75.508,101.1,75.508,101.1" fill="none" stroke="#12a0af" stroke-miterlimit="10" stroke-width="0.996"/>
      <path id="Path_640" data-name="Path 640" d="M437,384.166c-21.3-42.819-52.065-50.054-64.93-72.359s-42.926-30.8-55.994-56.007-13.538-25.568-30.416-37.162-21.413-41.993-34.11-49.331S213.59,146.532,223.92,128.23s38.641-2.345,52.207,17.367,29.274,16.748,39.115,40.84,22.588,16.13,48.366,41.582,37.984,47.447,53,88.951S437,384.166,437,384.166Z" fill="#34bfea"/>
      <path id="Path_641" data-name="Path 641" d="M389.546,271.838c-9.729-20.155-40.629-36.447-46.89-57.357s-38.758-29.654-42.867-51.515-10.233-34.6-28.662-43.653c-24.186-11.883-21.724-43.955,8.894-38.4,36.56,6.627,47.96,30.348,53.079,47.209s20.7,23.2,29.961,46.96c11.038,28.333,36.868,31.3,44.084,55.129S389.546,271.838,389.546,271.838Z" fill="#53d5f4"/>
      <path id="Path_642" data-name="Path 642" d="M243.7,142.263S313.5,199.124,340.633,235s60.236,78.9,60.236,78.9" fill="none" stroke="#1899b7" stroke-miterlimit="10" stroke-width="0.996"/>
      <path id="Path_643" data-name="Path 643" d="M277.152,95.457a198.469,198.469,0,0,1,46.754,43.576,457.142,457.142,0,0,1,47.357,77.334c9.58,20.21,25.7,35.888,25.7,35.888" fill="none" stroke="#21b6ce" stroke-miterlimit="10" stroke-width="0.996"/>
    </g>
    <g id="Group_56" data-name="Group 56">
      <ellipse id="Ellipse_26" data-name="Ellipse 26" cx="16.971" cy="16.973" rx="16.971" ry="16.973" transform="translate(486.054 499.196)" fill="url(#linear-gradient-3)"/>
      <path id="Path_644" data-name="Path 644" d="M670.538,212.729a167.514,167.514,0,1,0-254.5,143.2h0s19.191,12.37,19.191,70.874H570.828c0-58.5,19.191-70.874,19.191-70.874h0A167.437,167.437,0,0,0,670.538,212.729Z" fill="url(#linear-gradient-4)"/>
      <path id="Path_645" data-name="Path 645" d="M524.086,430.375s-.659-71.805,10.766-142.046,38.01-70.467,40.867-58.272-16.7,33.876-49.875,25.745-46.267-74.73-31.858-79.705c20.214-6.98,26.163,42.291,11.662,63.746s-37.344,28.481-60.438,14.379-16.208-36.049-3.025-27.83,27.633,62.835,33.346,99.872,11.865,104.111,11.865,104.111Z" fill="none" stroke="#fff" stroke-miterlimit="10" stroke-width="1.594"/>
      <rect id="Rectangle_28" data-name="Rectangle 28" width="167.354" height="30.383" rx="11.734" transform="translate(419.347 426.799)" fill="url(#linear-gradient-5)"/>
      <rect id="Rectangle_29" data-name="Rectangle 29" width="143.291" height="30.383" rx="11.734" transform="translate(431.379 457.183)" fill="url(#linear-gradient-6)"/>
      <rect id="Rectangle_30" data-name="Rectangle 30" width="100.632" height="27.349" rx="10.562" transform="translate(452.708 487.566)" fill="url(#linear-gradient-7)"/>
      <ellipse id="Ellipse_27" data-name="Ellipse 27" cx="145.678" cy="125.907" rx="145.678" ry="125.907" transform="translate(357.347 49.153)" fill="url(#linear-gradient-8)" style="mix-blend-mode: screen;isolation: isolate"/>
      <ellipse id="Ellipse_28" data-name="Ellipse 28" cx="108.09" cy="72.565" rx="108.09" ry="72.565" transform="translate(394.934 53.095)" fill="url(#linear-gradient-9)" style="mix-blend-mode: screen;isolation: isolate"/>
    </g>
    <g id="Group_57" data-name="Group 57">
      <path id="Path_646" data-name="Path 646" d="M383.937,660.2l-12.356-11.19v-52.02h54.832l12.356,11.19Z" fill="#0076dd"/>
      <rect id="Rectangle_31" data-name="Rectangle 31" width="54.832" height="52.02" transform="translate(383.937 608.176)" fill="url(#linear-gradient-10)"/>
      <path id="Path_647" data-name="Path 647" d="M477.658,660.2,465.3,649.006V542.689h54.832l12.356,11.19Z" fill="#2a86f4"/>
      <rect id="Rectangle_32" data-name="Rectangle 32" width="54.832" height="106.317" transform="translate(477.658 553.879)" fill="url(#linear-gradient-11)"/>
      <path id="Path_648" data-name="Path 648" d="M571.379,660.2l-12.356-11.19V467.895h54.832l12.356,11.19Z" fill="rgba(0,118,221,0.98)"/>
      <rect id="Rectangle_33" data-name="Rectangle 33" width="54.832" height="181.111" transform="translate(571.379 479.085)" fill="url(#linear-gradient-12)"/>
      <path id="Path_649" data-name="Path 649" d="M665.1,660.2l-12.356-11.19V342.439h54.832l12.356,11.19Z" fill="#2a86f4"/>
      <rect id="Rectangle_34" data-name="Rectangle 34" width="54.832" height="306.567" transform="translate(665.1 353.629)" fill="url(#linear-gradient-13)"/>
    </g>
    <g id="Group_61" data-name="Group 61">
      <path id="Path_650" data-name="Path 650" d="M494.483,529.933s1.936,6.833,13.551,11.731,13.324,6.492,12.64,8.77l-26.761-.8-3.758-4.214-1.936,4.1-8.2-.228s-1.936-13.895,3.3-20.728Z" fill="url(#linear-gradient-14)"/>
      <path id="Path_651" data-name="Path 651" d="M409.189,588.7s-.114,4.1,11.5,8.77,12.526,5.922,12.071,8.428H407.026l-5.466-3.531L399.4,605.9s-9-1.253-9-3.531,4.024-11.773,3.986-17.767C399.168,585.967,409.189,588.7,409.189,588.7Z" fill="url(#linear-gradient-15)"/>
      <path id="Path_652" data-name="Path 652" d="M496.419,530.787s-9.109,1.425-14.462-1.764c0,0,3.557-53.074,6.319-67.167s5.325-19.989-5.181-23.064c-5.656-1.656-24.008-5.91-39.747-9.487-13.5-3.065-25.076-5.632-25.076-5.632L413.658,369.6l12.24-.869,25.084-1.78s61.651,27.022,71.743,38.439C536.39,420.854,496.419,530.787,496.419,530.787Z" fill="url(#linear-gradient-16)"/>
      <path id="Path_653" data-name="Path 653" d="M443.348,429.3c-13.5-3.065-25.076-5.632-25.076-5.632L413.658,369.6l12.24-.869C427.915,379.227,435.155,414.761,443.348,429.3Z" fill="#102d51"/>
      <path id="Path_654" data-name="Path 654" d="M372.151,363.2s-13.836,33.569,0,82.514,32.54,87.9,21.01,138.633c0,0,6.235,8.456,18.078,5.267,0,0,19.928-59.679,15.829-110.246s-1.449-100.47-7.6-118.779Z" fill="url(#linear-gradient-17)"/>
      <g id="Group_59" data-name="Group 59">
        <path id="Path_655" data-name="Path 655" d="M531.628,188.736l-11.951,18.387-3.8,5.847s15.4-3.758,27.078,3.836l3.486-5.363,3.486-5.363c-11.683-7.595-14.5-23.192-14.5-23.192Z" fill="url(#linear-gradient-18)"/>
        <path id="Path_656" data-name="Path 656" d="M546.441,211.444l-5.782,8.9,2.362,1.536,5.782-8.9,5.782-8.9-2.362-1.536Z" fill="url(#linear-gradient-19)"/>
        <path id="Path_657" data-name="Path 657" d="M529.825,147.487c-3.452-1.9-6.723-2.264-9.723-1.092-4.34,1.7-6.742,6.176-7.664,8.283-2.155-1.3-3.553-1.979-3.553-1.979L493.2,176.833l-15.685,24.133s1.192,1,3.25,2.444c-1.552,1.7-4.67,5.712-4.458,10.368.147,3.217,1.81,6.058,4.945,8.443,7.648,5.819,19.4-.282,25.429-4.189a3.745,3.745,0,1,0,4.939-4.242c6.888-.715,13.676-4.184,19.116-12.554s5.855-15.982,3.712-22.568a3.74,3.74,0,1,0,1.871-6.237C537.444,165.335,538.247,152.115,529.825,147.487ZM483.4,219.392c-2.284-1.738-3.444-3.623-3.546-5.763-.18-3.774,3-7.3,3.911-8.222,5.488,3.458,13.947,7.779,22.748,8.44a54.218,54.218,0,0,1-7.862,4.606C494,220.634,487.577,222.567,483.4,219.392Zm50.044-54.531a54.277,54.277,0,0,1-1.019,9.115c-4.177-7.775-11.558-13.751-16.945-17.363.479-1.2,2.424-5.545,5.912-6.908,2-.782,4.2-.488,6.718.9C532.7,153.119,533.543,159.746,533.448,164.861Z" fill="url(#linear-gradient-20)"/>
        <g id="Group_58" data-name="Group 58">
          <path id="Path_658" data-name="Path 658" d="M521.344,191.384l-2.29,3.523-13.276-8.63a14.486,14.486,0,0,1-.288,6.287l-3.2-2.078a12.148,12.148,0,0,0,.236-4.109,7.755,7.755,0,0,0-1.5-4.13l1.858-2.859Z" fill="#fff"/>
        </g>
        <ellipse id="Ellipse_29" data-name="Ellipse 29" cx="28.783" cy="3.246" rx="28.783" ry="3.246" transform="matrix(0.545, -0.838, 0.838, 0.545, 474.793, 199.197)" fill="url(#linear-gradient-21)"/>
        <ellipse id="Ellipse_30" data-name="Ellipse 30" cx="21.371" cy="2.428" rx="21.371" ry="2.428" transform="matrix(0.545, -0.838, 0.838, 0.545, 479.518, 193.428)" fill="url(#linear-gradient-22)"/>
        <rect id="Rectangle_35" data-name="Rectangle 35" width="37.394" height="14.37" rx="1.358" transform="matrix(0.545, -0.838, 0.838, 0.545, 538.614, 228.656)" fill="url(#linear-gradient-23)"/>
        <rect id="Rectangle_36" data-name="Rectangle 36" width="25.36" height="8.029" rx="1.358" transform="matrix(0.545, -0.838, 0.838, 0.545, 544.551, 225.339)" fill="#fff"/>
      </g>
      <path id="Path_659" data-name="Path 659" d="M523.408,216.791a9.107,9.107,0,0,0,1.836-7.816c-1.2-4.356,1.58-8.5,5.85-6.107s4.954,3.417,3.587,4.783-5.167-.854-5.167-.854a12.558,12.558,0,0,0,6.534,5.415c4.868,1.965,5.694,2.548,4.413,4.684s-5.215,1.614-6.633,4.593Z" fill="url(#linear-gradient-24)"/>
      <path id="Path_660" data-name="Path 660" d="M520.391,220.492l1.964-4.536a.957.957,0,0,1,1.354-.451,105.237,105.237,0,0,0,10.811,5.53,1.116,1.116,0,0,1,.657,1.354,3.709,3.709,0,0,1-3.342,2.83Z" fill="url(#linear-gradient-25)"/>
      <path id="Path_661" data-name="Path 661" d="M425.616,266.846s28.647-.8,53.38-11.959c26.135-11.788,37.235-27.686,40.313-35.534,0,0,10.591,1.367,14.178,6.321,0,0-20.156,52.19-88.824,88.066C444.662,313.74,443.6,278.63,425.616,266.846Z" fill="url(#linear-gradient-26)"/>
      <path id="Path_662" data-name="Path 662" d="M423.549,266.846s17.406,21.268,17.851,29.469,0,71.321,0,71.321-29.85,12.292-53.777-2.864c2.208-22.075,6.563-67.176,6.563-67.176l2.627-18.194,5.658-11.7,1.253-2.737,8.721,2.414,4.631-.535Z" fill="url(#radial-gradient)"/>
      <path id="Path_663" data-name="Path 663" d="M459.524,367.041s-12.983,6.065-18.962,17.511-10.59,15.034-10.59,15.034-8.027-17.085-3.587-41.685,7.517-69.017-2.134-84.391a10.971,10.971,0,0,1-.7-6.663,6.168,6.168,0,0,1,.871-1.879s20.756,5.21,22.037,39.292S450.044,367.041,459.524,367.041Z" fill="url(#linear-gradient-27)"/>
      <g id="Group_60" data-name="Group 60">
        <path id="Path_664" data-name="Path 664" d="M333.33,439.095l-3.922-1.961,5.411-10.823-22.811-11.649-5.58,10.476-3.867-2.065,5.6-10.481A4.393,4.393,0,0,1,314,410.758l22.816,11.665a4.386,4.386,0,0,1,1.921,5.85Z" fill="url(#linear-gradient-28)"/>
      </g>
      <rect id="Rectangle_37" data-name="Rectangle 37" width="78.236" height="51.249" rx="4.143" transform="matrix(0.88, 0.474, -0.474, 0.88, 285.427, 412.255)" fill="url(#linear-gradient-29)"/>
      <path id="Rectangle_38" data-name="Rectangle 38" d="M4.143,0H74.093a4.143,4.143,0,0,1,4.143,4.143V19.954a5.67,5.67,0,0,1-5.67,5.67H5.67A5.67,5.67,0,0,1,0,19.954V4.143A4.143,4.143,0,0,1,4.143,0Z" transform="matrix(0.88, 0.474, -0.474, 0.88, 285.427, 412.255)" fill="url(#linear-gradient-30)"/>
      <rect id="Rectangle_39" data-name="Rectangle 39" width="23.345" height="8.31" rx="2.626" transform="matrix(0.88, 0.474, -0.474, 0.88, 299.407, 444.175)" fill="#d4f0f9"/>
      <path id="Path_665" data-name="Path 665" d="M429.972,399.586s-8.027-17.085-3.587-41.685,7.517-69.017-2.134-84.391a10.971,10.971,0,0,1-.7-6.663s9.157,9.258,17.013,39.633l-5.345,8.2,8.42,14.007S428.6,369.859,429.972,399.586Z" fill="#9cb1ff"/>
      <path id="Path_666" data-name="Path 666" d="M333.347,405a14.2,14.2,0,0,0-.569,8.6c1.2,4.7,2.244,8.371-.416,9.14s-3.274-3.759-3.274-3.759-.749,7-7.369,5.979-7.987-9.567-4.913-14.35a57.139,57.139,0,0,0,4.913-9.738Z" fill="url(#linear-gradient-31)"/>
      <path id="Path_667" data-name="Path 667" d="M397.2,396.84c-.44,7.131.149,9.75.149,9.75s-22.206-.341-41-23.576c0,0,16.571-21.866,15.375-60.817-1.15-37.484-.086-37,28.516-55.027q1.677-1.055,3.484-2.2s16.854,28.188,3.7,78.071C400.029,371.085,397.765,387.681,397.2,396.84Z" fill="url(#linear-gradient-32)"/>
      <path id="Path_668" data-name="Path 668" d="M322.358,393.635s-3.331,6.634-2.733,7.317,13.494,5.3,14.776,5.04,2.648-7.346,2.648-7.346Z" fill="url(#linear-gradient-25)"/>
      <path id="Path_669" data-name="Path 669" d="M367.966,350.9c24.974-21.009,28.7-43.051,21.523-57.742s-24.085-6.833-33.138,7.517-18.021,43.051-22.377,58.426-14.349,34.537-14.349,34.537l17.936,5.951S349.689,366.272,367.966,350.9Z" fill="url(#linear-gradient-34)"/>
      <path id="Path_670" data-name="Path 670" d="M407.425,343.038c-7.4,28.047-9.659,44.643-10.227,53.8-1.138-48.9-7.708-61.062-7.708-61.062l14.237-13.238-7.918-11.618c13.282-25.659,6.25-40.617,4.432-43.752q1.677-1.055,3.484-2.2S420.577,293.155,407.425,343.038Z" fill="#9cb1ff"/>
      <path id="Path_671" data-name="Path 671" d="M417.237,275.38s-2.85,25.639,3.654,41.113,15.823,35.175,16.7,55.83c0,0,16.664,12.706,19.786,25.015,0,0,11.661-19.856,11.467-34.733,0,0-2.379-8.416-16.908-25.527S422.065,298.131,421.7,275.63A3.841,3.841,0,0,0,417.237,275.38Z" fill="url(#linear-gradient-35)"/>
      <path id="Path_672" data-name="Path 672" d="M545.444,201.025s2.448-.22,2.847,1.2-3.018,5.459-4.214,5.743-2.05-1.826-1.423-3.476C543.849,202.839,545.444,201.025,545.444,201.025Z" fill="url(#linear-gradient-36)"/>
      <path id="Path_673" data-name="Path 673" d="M542.881,198.005s2.759-.18,3.442,1.528-4.17,7.235-5.059,6.894-2.085-.911-1.345-3.588C541.23,200.561,542.881,198.005,542.881,198.005Z" fill="url(#linear-gradient-37)"/>
      <path id="Path_674" data-name="Path 674" d="M539.977,195.949s3.132-.455,3.758.626-3.986,7.8-5.125,8.143-2.505-.569-1.879-3.246C538.725,198.113,539.977,195.949,539.977,195.949Z" fill="url(#linear-gradient-38)"/>
      <path id="Path_675" data-name="Path 675" d="M537.871,193.5s-3.644,5.239-3.872,6.606.114,3.246,2.448,2.05,4.327-5.353,4.327-6.492S540.547,193.273,537.871,193.5Z" fill="url(#linear-gradient-39)"/>
      <path id="Path_676" data-name="Path 676" d="M422.285,264l-4.326,5.126-7.2-2.278-3.33-6.322.132-3.454.072-1.858.082-2.149,5.01-.825,6.184,2.424,1.491.761.526,2.39v0l.5,2.284Z" fill="url(#linear-gradient-40)"/>
      <path id="Path_677" data-name="Path 677" d="M420.92,257.814v0l-13.364-.745.072-1.858.082-2.149,5.01-.825,6.184,2.424,1.491.761Z" fill="#f283ae"/>
      <path id="Path_678" data-name="Path 678" d="M434.356,232.793s1.936,19.817,0,23.575-26.647-3.3-26.647-3.3l-3.3-2.733-.683-9.225,6.719-13.781Z" fill="url(#linear-gradient-41)"/>
      <path id="Path_679" data-name="Path 679" d="M422.285,270.519l-.213,5.467a4.272,4.272,0,0,1-5.167,0l-2.05-5.253,2.221-3.887S422.072,269.835,422.285,270.519Z" fill="url(#linear-gradient-42)"/>
      <path id="Path_680" data-name="Path 680" d="M413.745,245.491s-1.594-14.977,0-15.318,13.779,10.819,35.644,0,18.79-35.078,5.922-40.09-23.231,5.467-22.662,16.742-7.06,14.032-15.032,10.319-18.79-2.688-17.423,6.082.8,10.933-2.733,13.211-7.63,13.553,10.249,16.628c0,0-3.758-4.9-1.48-8.314S413.745,245.491,413.745,245.491Z" fill="url(#linear-gradient-43)"/>
      <path id="Path_681" data-name="Path 681" d="M421.822,261.9l-4.747,4.946,7.174,6.663s-.085-5.979,1.367-8.371C425.616,265.137,424.348,262.249,421.822,261.9Z" fill="url(#linear-gradient-44)"/>
      <path id="Path_682" data-name="Path 682" d="M417.075,266.846l-1.794,9.14-11.559-11.019s.285-4.527,3.7-4.442C411.268,263.429,417.075,266.846,417.075,266.846Z" fill="url(#linear-gradient-45)"/>
    </g>
  </g>
</svg>
